<svg xmlns="http://www.w3.org/2000/svg" width="63.999" height="58.001" viewBox="0 0 16.933 15.346"><path d="M1.275 2.34c-.708 0-1.277.57-1.277 1.277v10.449c0 .708.57 1.277 1.277 1.277h14.379c.708 0 1.277-.57 1.277-1.277V3.617c0-.708-.57-1.277-1.277-1.277zm12.001 3.813h0c.517 0 .932.437.932.944h0c0 .39-.249.731-.6.87l-2.085 2.583c-.082.429-.442.775-.898.775h-.001a.93.93 0 0 1-.683-.308l-3.177-.979-2.225 2.349c-.107.396-.453.706-.885.706-.517 0-.932-.437-.932-.944 0-.413.281-.766.663-.888L5.641 8.88c.107-.396.453-.706.885-.706h.001a.93.93 0 0 1 .683.308l3.134.966 2.034-2.52c.082-.428.442-.775.898-.775z" class="OxModuleIcon-primary" paint-order="stroke fill markers"/><g class="OxModuleIcon-secondary"><path d="M3.581-.004c-.598 0-1.08.482-1.08 1.08v1.264h4.535V1.075c0-.598-.482-1.08-1.08-1.08z" paint-order="stroke fill markers"/><path d="M2.502 2.34v1.435c0 .598.482 1.08 1.08 1.08h2.375c.598 0 1.08-.482 1.08-1.08V2.34z" opacity=".5" paint-order="stroke fill markers"/><path d="M10.973-.004c-.598 0-1.08.482-1.08 1.08v1.264h4.535V1.075c0-.598-.482-1.08-1.08-1.08z" paint-order="stroke fill markers"/><path d="M9.892 2.34v1.435c0 .598.482 1.08 1.08 1.08h2.375c.598 0 1.08-.482 1.08-1.08V2.34z" opacity=".5" paint-order="stroke fill markers"/></g></svg>
