<svg xmlns="http://www.w3.org/2000/svg" width="64" height="64" viewBox="1 1 14.933 14.933"><path d="M8.777 7.223l-1.17 4.799a.587.587 0 0 1-1.132.033l-.994-3.244H1.852v4.858a1.41 1.41 0 0 0 1.412 1.412h10.405a1.41 1.41 0 0 0 1.412-1.412V8.787h-3.193l-1.009 1.787a.587.587 0 0 1-1.071-.111z"  class="OxModuleIcon-primary"/><path d="M3.264 1.852a1.41 1.41 0 0 0-1.412 1.412v4.372h4.063a.587.587 0 0 1 .562.415l.495 1.616 1.159-4.755a.587.587 0 0 1 1.13-.039l1.257 3.951.516-.913a.587.587 0 0 1 .511-.298h3.536V3.264a1.41 1.41 0 0 0-1.412-1.412z" class="OxModuleIcon-secondary"/></svg>
