<svg xmlns="http://www.w3.org/2000/svg" width="97.765" height="91.355" viewBox="0 0 25.867 24.171"><path d="M2.694-.002c-1.495 0-2.699 1.204-2.699 2.699V21.47c0 1.495 1.204 2.699 2.699 2.699s2.699-1.204 2.699-2.699v-1.623l.029.001h15.007v1.622c0 1.495 1.204 2.699 2.699 2.699s2.698-1.204 2.698-2.699v-3.773h-.012l.012-.237v-3.122c0-1.323-1.065-2.388-2.387-2.388H5.422l-.029.001V2.697c0-1.495-1.204-2.699-2.699-2.699z" class="OxModuleIcon-primary"/><g class="OxModuleIcon-secondary"><path d="M12.536 5.644c-.811 0-1.474.615-1.549 1.406-.916-.794-2.087-1.232-3.299-1.232-.801.008-1.588.207-2.296.581v5.551h.029 18.017c1.323 0 2.387 1.065 2.387 2.388v.321c.023-.106.035-.216.035-.329V7.201c0-.863-.694-1.557-1.557-1.557z"/><path d="M5.393 6.398c-1.672.857-2.728 2.575-2.738 4.454 0 2.78 2.254 5.034 5.034 5.034 1.222 0 2.403-.444 3.321-1.251.142.715.769 1.251 1.527 1.251h11.767c.75 0 1.372-.525 1.522-1.228v-.321c0-1.323-1.065-2.388-2.387-2.388H5.422h-.029z" opacity=".5"/></g></svg>
