<svg xmlns="http://www.w3.org/2000/svg" width="63.999" height="54.864" viewBox="0 0 16.933 14.516"><g transform="matrix(.5558 0 0 .5558 103.5 -115.7)"><path d="M-178.79 222.08a7.4 7.4 0 0 0-7.403 6.967v2.981l-.014 2.258h15.129l.12-12.206zm7.832 0l.12 12.206h15.097v-4.789a7.4 7.4 0 0 0-7.418-7.417z" class="OxModuleIcon-secondary"/><g class="OxModuleIcon-primary"><circle cx="-171.08" cy="214.46" r="6.289" paint-order="stroke fill markers"/><rect x="-178.58" y="216.08" width="15.158" height="18.199" ry="4.501" paint-order="stroke fill markers"/></g><path d="M-178 222.07l-.581.02v7.696a4.49 4.49 0 0 0 4.462 4.501h6.233a4.49 4.49 0 0 0 4.463-4.501v-7.716z" class="OxModuleIcon-secondary" opacity=".5" paint-order="stroke fill markers"/></g></svg>
