<svg xmlns="http://www.w3.org/2000/svg" width="63.999" height="61.965" viewBox="0.25 0.25 16.333 15.895"><path d="M9.002 2.056c-2.639 0-4.848 1.777-5.501 4.205-.35.029-.689.121-1.006.271-.695.333-1.249.934-1.571 1.704a3.3 3.3 0 0 0 .622.197c-.226.471-.342 1-.341 1.548.802-.026 1.542-.339 2.099-.885v.194c0 3.156 2.541 5.697 5.697 5.697S14.7 12.446 14.7 9.29V7.754c0-3.156-2.541-5.697-5.698-5.697z" class="OxModuleIcon-primary"/><path d="M3.502 6.261c-.35.029-.689.121-1.006.271-.695.333-1.249.934-1.571 1.704a3.3 3.3 0 0 0 .622.197c-.226.471-.342 1-.341 1.548.802-.026 1.542-.339 2.099-.885V7.753a5.74 5.74 0 0 1 .196-1.493z" class="OxModuleIcon-secondary" opacity=".5"/><path d="M3.44 9.648c-.047-.001-.093.016-.127.049s-.054.077-.055.125.017.093.049.127.078.054.125.055l1.293.027c.047.001.093-.017.127-.049s.054-.078.055-.125-.017-.093-.049-.127-.077-.054-.124-.055zm9.847.023c-.097 0-.177.078-.178.176-.001.047.018.093.051.126s.078.053.125.053l1.322.008c.047.001.093-.018.126-.051s.053-.078.053-.125-.018-.093-.051-.127-.079-.053-.127-.053l-1.322-.008z" fill="#fff"/><path d="M9.008 1.409c-1.478-.011-2.911.237-4.04.69-.372.103-.555.306-.604.48L3.062 7.139c-.025.088.014.244.121.186 3.494-1.93 7.237-2.452 11.601 0 .079-.003.19-.083.161-.181l-1.6-4.666c-.074-.18-.224-.311-.493-.395-1.199-.451-2.539-.663-3.843-.673h0zM4.598 9.673l.422 3.697c1.026 1.001 2.429 1.616 3.982 1.616a5.68 5.68 0 0 0 3.983-1.616l.422-3.697H4.598zm1.445 1.229h5.92c.065 0 .127.026.173.072s.071.108.071.173c0 .135-.109.244-.244.244h-5.92c-.065 0-.127-.026-.173-.071s-.072-.108-.072-.173.026-.127.071-.173.108-.072.173-.071zm.361 1.147h5.248a.23.23 0 0 1 .23.23.23.23 0 0 1-.23.228H6.404a.23.23 0 0 1-.163-.392.23.23 0 0 1 .163-.067zm.281 1.117h4.58c.057 0 .112.023.152.063s.063.095.063.152-.023.112-.063.152-.095.063-.152.063h-4.58c-.118 0-.214-.096-.214-.214 0-.057.022-.112.063-.152s.095-.063.152-.063z" class="OxModuleIcon-secondary"/><path class="OxModuleIcon-secondary" opacity=".5" d="M6.043 10.902c-.065 0-.127.026-.173.071s-.072.108-.071.173.026.127.072.173.108.071.173.071h5.92c.135 0 .244-.109.244-.244 0-.065-.026-.127-.071-.173s-.108-.072-.173-.072zm.361 1.147a.23.23 0 0 0-.23.23.23.23 0 0 0 .23.228h5.248a.23.23 0 0 0 .163-.392.23.23 0 0 0-.163-.067zm.281 1.117c-.057 0-.112.023-.152.063s-.063.095-.063.152c0 .118.096.214.214.214h4.58c.057 0 .112-.022.152-.063s.063-.095.063-.152-.023-.112-.063-.152-.095-.063-.152-.063z"/></svg>
