<svg xmlns="http://www.w3.org/2000/svg" width="63.999" height="53.035" viewBox="1 1 14.933 12.032"><path d="M2.398 2.1c-.211 0-.389.178-.389.389v2.252c0 .211.178.389.389.389H4.65c.211 0 .389-.178.389-.389V2.489c0-.211-.178-.389-.389-.389zm0 3.903c-.211 0-.389.179-.389.39v2.252c0 .211.178.389.389.389H4.65c.211 0 .389-.178.389-.389V6.393c0-.211-.178-.39-.389-.39zm0 3.903c-.211 0-.389.179-.389.39v2.252c0 .211.178.389.389.389H4.65c.211 0 .389-.178.389-.389v-2.252c0-.211-.178-.39-.389-.39z" class="OxModuleIcon-primary"/><g class="OxModuleIcon-secondary"><path d="M5.801 1.11c-.158 0-.317.064-.445.205v.001l-.022.024-.679.749-.009.01h.004c.211 0 .389.178.389.389V3.62l.272-.3.449-.444.485-.533a.79.79 0 0 0 0-1.028c-.127-.14-.286-.205-.444-.205zM1.968 2.361c-.022 0-.047.002-.074.007a.6.6 0 0 0-.371.2.79.79 0 0 0 0 1.028l.472.52c.005.006.01.012.014.019V2.488c0-.042.007-.083.02-.122-.02-.003-.041-.003-.061-.003zm.061.003l.051.009c-.017-.004-.034-.007-.051-.009zm.151.039l.048.022-.048-.022zm5.02.409c-.297 0-.535.357-.535.8s.239.8.535.8h7.865c.297 0 .535-.357.535-.8s-.239-.8-.535-.8zM2.848 5.058l.034.035-.034-.035zm.037.038l.034.031-.034-.031zm.035.031a.56.56 0 0 0 .742 0zm4.28 1.588c-.297 0-.535.356-.535.799s.239.8.535.8h7.865c.297 0 .535-.357.535-.8s-.239-.799-.535-.799zm0 3.903c-.297 0-.535.357-.535.799s.239.8.535.8h7.865c.297 0 .535-.357.535-.8s-.239-.799-.535-.799z"/><path d="M4.647 2.1L3.415 3.406c-.066.072-.178.072-.244 0l-.672-.741-.087-.096h-.001a.6.6 0 0 0-.381-.202c-.013.038-.02.08-.02.122v1.647c.017.025.027.055.028.086v-.057l.782.862.02.023.009.01c.023.026.047.049.072.07h.742a.72.72 0 0 0 .072-.07l.013-.014.678-.747.002-.004.611-.674V2.488c0-.211-.178-.389-.389-.389z" opacity=".5"/></g></svg>
