<svg width="372" height="269" viewBox="0 0 372 269" fill="none" xmlns="http://www.w3.org/2000/svg">
<g clip-path="url(#clip0_6170_158635)">
<path opacity="0.1" d="M366.109 180.847C357.481 198.829 339.962 210.854 321.807 218.783C297.364 229.463 270.448 233.698 243.901 231.907C239.249 231.594 234.61 231.094 229.986 230.407C213.926 228.04 198.269 223.434 183.462 216.72C179.189 214.775 175.002 212.653 170.902 210.352C164.053 206.516 157.491 202.181 151.269 197.379C149.703 196.172 148.16 194.934 146.638 193.665C145.583 192.786 144.537 191.887 143.475 191.014C141.235 189.174 138.929 187.425 136.357 186.116C135.581 185.721 134.786 185.366 133.974 185.053C125.829 181.923 116.438 183.104 107.96 185.545C101.51 187.402 95.2236 189.945 88.781 191.759C85.9153 192.591 82.9953 193.218 80.0426 193.636C73.4501 194.479 66.7555 193.885 60.4094 191.894L59.8671 191.723C58.9579 191.434 58.0562 191.118 57.1621 190.775L56.6198 190.565C55.7539 190.228 54.9064 189.866 54.0772 189.479L53.5349 189.229C52.669 188.823 51.8214 188.393 50.9923 187.94C50.6935 187.783 50.398 187.612 50.1058 187.451C45.3883 184.789 41.1002 181.416 37.3894 177.448C37.2822 177.34 37.1816 177.228 37.0647 177.12C36.5483 176.556 36.0418 175.981 35.5514 175.394C35.3696 175.178 35.1877 174.961 35.0091 174.738C34.4268 174.021 33.865 173.287 33.3238 172.537C33.2426 172.428 33.1647 172.317 33.0867 172.208C30.8693 169.109 29.031 165.75 27.6118 162.205C27.5663 162.097 27.5241 161.985 27.4851 161.877C27.0522 160.751 26.6571 159.606 26.2999 158.442C26.1538 157.956 26.0141 157.458 25.8907 156.972C25.8485 156.828 25.8095 156.68 25.7738 156.536C23.9813 149.407 23.7767 141.995 23.7767 134.626C23.7767 133.767 23.7767 132.908 23.7767 132.051C23.8287 120.132 24.0105 108.009 25.7511 96.2535C25.7511 96.1715 25.7738 96.0895 25.7868 96.0107C26.3694 92.0533 27.1618 88.1303 28.1606 84.2587C29.2059 80.1964 30.5419 76.2161 32.158 72.3492C36.1619 62.8348 41.9843 54.1766 48.4497 46.1517C64.7348 25.9581 86.0923 9.00591 111.09 2.66075C138.026 -4.17326 167.963 2.37531 189.691 19.8524C196.315 25.1805 202.267 31.4896 209.707 35.5742C216.202 39.1307 223.803 40.6038 230.759 37.8052C236.507 35.4922 240.248 34.3439 246.703 34.6949C260.068 35.4588 273.243 38.2469 285.788 42.966C286.294 43.153 286.801 43.3465 287.304 43.5401C320.008 56.1812 348.12 81.2961 362.732 113.57C363.12 114.423 363.495 115.282 363.859 116.149C372.572 136.71 375.721 160.807 366.109 180.847Z" fill="#3F51B5"/>
<path opacity="0.1" d="M39.0649 243.764C54.8973 243.764 67.732 241.681 67.732 239.111C67.732 236.542 54.8973 234.459 39.0649 234.459C23.2325 234.459 10.3978 236.542 10.3978 239.111C10.3978 241.681 23.2325 243.764 39.0649 243.764Z" fill="#3F51B5"/>
<path opacity="0.1" d="M296.237 269C324.31 269 347.067 266.767 347.067 264.013C347.067 261.259 324.31 259.026 296.237 259.026C268.165 259.026 245.408 261.259 245.408 264.013C245.408 266.767 268.165 269 296.237 269Z" fill="#3F51B5"/>
<path d="M342.258 35.3511H41.7699C39.5299 35.3511 37.714 37.1858 37.714 39.4489V207.871C37.714 210.134 39.5299 211.969 41.7699 211.969H342.258C344.498 211.969 346.314 210.134 346.314 207.871V39.4489C346.314 37.1858 344.498 35.3511 342.258 35.3511Z" fill="url(#paint0_linear_6170_158635)"/>
<path d="M341.803 37.8347H42.2602C40.0202 37.8347 38.2043 39.6694 38.2043 41.9325V207.284C38.2043 209.547 40.0202 211.382 42.2602 211.382H341.803C344.043 211.382 345.859 209.547 345.859 207.284V41.9325C345.859 39.6694 344.043 37.8347 341.803 37.8347Z" fill="white"/>
<path d="M341.803 37.8347H42.2602C40.0202 37.8347 38.2043 39.6694 38.2043 41.9325V207.284C38.2043 209.547 40.0202 211.382 42.2602 211.382H341.803C344.043 211.382 345.859 209.547 345.859 207.284V41.9325C345.859 39.6694 344.043 37.8347 341.803 37.8347Z" fill="white"/>
<path opacity="0.04" d="M341.803 37.8347H42.2602C40.0202 37.8347 38.2043 39.6694 38.2043 41.9325V207.284C38.2043 209.547 40.0202 211.382 42.2602 211.382H341.803C344.043 211.382 345.859 209.547 345.859 207.284V41.9325C345.859 39.6694 344.043 37.8347 341.803 37.8347Z" fill="white"/>
<path d="M344.297 35.8433H39.7663C39.352 35.8433 38.9548 36.0095 38.6618 36.3055C38.3689 36.6014 38.2043 37.0028 38.2043 37.4214V44.0913H345.846V37.4214C345.846 37.0051 345.684 36.6057 345.393 36.3101C345.103 36.0145 344.709 35.8467 344.297 35.8433Z" fill="#5A5773"/>
<path d="M44.3483 42.0998C45.514 42.0998 46.459 41.1451 46.459 39.9673C46.459 38.7895 45.514 37.8347 44.3483 37.8347C43.1826 37.8347 42.2375 38.7895 42.2375 39.9673C42.2375 41.1451 43.1826 42.0998 44.3483 42.0998Z" fill="white"/>
<path d="M50.031 42.0998C51.1967 42.0998 52.1418 41.1451 52.1418 39.9673C52.1418 38.7895 51.1967 37.8347 50.031 37.8347C48.8653 37.8347 47.9203 38.7895 47.9203 39.9673C47.9203 41.1451 48.8653 42.0998 50.031 42.0998Z" fill="white"/>
<path d="M55.7138 42.0998C56.8795 42.0998 57.8245 41.1451 57.8245 39.9673C57.8245 38.7895 56.8795 37.8347 55.7138 37.8347C54.548 37.8347 53.603 38.7895 53.603 39.9673C53.603 41.1451 54.548 42.0998 55.7138 42.0998Z" fill="white"/>
<path opacity="0.2" d="M146.105 59.6031H63.543V66.6832H146.105V59.6031Z" fill="#3F51B5"/>
<path opacity="0.1" d="M320.521 87.9924H63.543V196.903H320.521V87.9924Z" fill="#5A5773"/>
<path opacity="0.1" d="M214.006 95.0954H209.606V86.4602C209.606 76.7161 201.917 68.6157 192.272 68.468C189.947 68.4433 187.639 68.8839 185.483 69.7643C183.326 70.6447 181.364 71.9476 179.708 73.5978C178.053 75.248 176.736 77.213 175.836 79.3794C174.935 81.5458 174.468 83.8709 174.461 86.2207V95.0954H170.07C168.13 95.1015 166.271 95.8829 164.899 97.269C163.527 98.6551 162.754 100.533 162.748 102.494V137.999C162.754 139.959 163.527 141.838 164.899 143.224C166.271 144.61 168.13 145.391 170.07 145.397H214.006C215.946 145.391 217.805 144.61 219.176 143.224C220.548 141.837 221.321 139.959 221.326 137.999V102.494C221.321 100.534 220.548 98.6554 219.176 97.2692C217.805 95.883 215.946 95.1015 214.006 95.0954ZM194.604 118.176V130.893C194.608 131.566 194.359 132.216 193.907 132.711C193.454 133.205 192.833 133.508 192.168 133.557C191.821 133.573 191.475 133.518 191.149 133.395C190.824 133.273 190.526 133.084 190.275 132.842C190.024 132.6 189.824 132.309 189.687 131.986C189.55 131.663 189.48 131.316 189.479 130.965V118.17C188.292 117.584 187.335 116.609 186.766 115.404C186.197 114.199 186.049 112.834 186.346 111.533C186.644 110.232 187.369 109.071 188.403 108.24C189.437 107.409 190.72 106.956 192.042 106.956C193.363 106.956 194.646 107.409 195.68 108.24C196.715 109.071 197.44 110.232 197.737 111.533C198.034 112.834 197.886 114.199 197.317 115.404C196.748 116.609 195.792 117.584 194.604 118.17V118.176ZM204.488 95.0954H179.585V86.2207C179.585 82.8855 180.896 79.6868 183.231 77.3285C185.565 74.9701 188.731 73.6452 192.032 73.6452C195.333 73.6452 198.499 74.9701 200.833 77.3285C203.167 79.6868 204.479 82.8855 204.479 86.2207L204.488 95.0954Z" fill="black"/>
<path d="M214.006 94.4392H209.606V85.804C209.606 76.0599 201.917 67.9595 192.272 67.8118C189.947 67.7871 187.639 68.2277 185.483 69.1081C183.326 69.9885 181.364 71.2914 179.708 72.9416C178.053 74.5918 176.736 76.5568 175.836 78.7232C174.935 80.8896 174.468 83.2147 174.461 85.5645V94.4392H170.07C168.13 94.4453 166.271 95.2267 164.899 96.6128C163.527 97.9989 162.754 99.8772 162.748 101.838V137.343C162.754 139.303 163.527 141.181 164.899 142.568C166.271 143.954 168.13 144.735 170.07 144.741H214.006C215.946 144.735 217.805 143.954 219.176 142.567C220.548 141.181 221.321 139.303 221.326 137.343V101.838C221.321 99.8775 220.548 97.9992 219.176 96.613C217.805 95.2268 215.946 94.4453 214.006 94.4392ZM194.604 117.52V130.237C194.608 130.91 194.359 131.56 193.907 132.054C193.454 132.549 192.833 132.851 192.168 132.901C191.821 132.917 191.475 132.862 191.149 132.739C190.824 132.616 190.526 132.428 190.275 132.186C190.024 131.944 189.824 131.652 189.687 131.33C189.55 131.007 189.48 130.66 189.479 130.309V117.513C188.292 116.928 187.335 115.953 186.766 114.748C186.197 113.543 186.049 112.178 186.346 110.877C186.644 109.576 187.369 108.415 188.403 107.584C189.437 106.752 190.72 106.3 192.042 106.3C193.363 106.3 194.646 106.752 195.68 107.584C196.715 108.415 197.44 109.576 197.737 110.877C198.034 112.178 197.886 113.543 197.317 114.748C196.748 115.953 195.792 116.928 194.604 117.513V117.52ZM204.488 94.4392H179.585V85.5645C179.585 82.2293 180.896 79.0307 183.231 76.6723C185.565 74.3139 188.731 72.989 192.032 72.989C195.333 72.989 198.499 74.3139 200.833 76.6723C203.167 79.0307 204.479 82.2293 204.479 85.5645L204.488 94.4392Z" fill="#3F51B5"/>
<path opacity="0.1" d="M320.521 77.51H294.51V83.7141H320.521V77.51Z" fill="#5A5773"/>
<path d="M329.373 265.516C329.202 264.646 328.909 263.805 328.503 263.019L324.606 257.14H324.629C324.629 257.14 324.015 254.187 324.629 252.737C325.242 251.287 322.44 247.72 322.44 247.72C322.44 247.72 322.099 246.825 322.989 245.722C323.878 244.62 322.44 241.392 322.44 241.392C322.44 241.392 321.758 234.65 321.69 233.619C321.622 232.589 321.073 226.88 321.073 226.88L319.774 214.777L317.462 182.701L317.42 182.1C317.705 181.959 317.858 181.871 317.858 181.871L317.397 164.134L317.796 163.77C321.284 160.581 329.327 153.199 329.246 153.038C329.165 152.878 328.272 140.712 328.168 137.668C328.079 135.504 327.61 133.373 326.785 131.375C326.583 130.971 326.002 128.311 325.762 127.185C325.697 126.877 325.655 126.683 325.655 126.683C325.655 126.683 323.297 122.143 323.502 120.079C323.706 118.015 324.115 116.47 319.089 115.748C319.089 115.748 314.867 115.112 312.354 113.376C310.867 112.337 309.243 111.515 307.528 110.935C307.528 110.935 306.119 108.311 305.138 109.2C304.723 108.263 304.413 107.283 304.213 106.277L304.184 106.093C306.045 104.781 307.385 102.844 307.963 100.627C307.996 100.502 308.022 100.374 308.051 100.25C308.149 100.283 308.25 100.302 308.353 100.305C309.207 100.305 309.733 99.3441 310.532 99.039C310.857 98.911 311.256 98.8913 311.506 98.6321C311.589 98.5322 311.65 98.4164 311.687 98.2918C311.724 98.1672 311.735 98.0363 311.721 97.9071C311.729 97.8176 311.729 97.7275 311.721 97.638C311.722 97.6063 311.722 97.5746 311.721 97.5429V97.5757C311.503 96.3815 310.587 95.3218 310.688 94.1078C310.785 92.9661 311.779 91.9622 311.698 90.85C311.697 90.762 311.689 90.6743 311.675 90.5875V90.6269C311.554 90.1926 311.331 89.7943 311.026 89.4654C310.676 88.9843 310.217 88.595 309.688 88.3303C309.236 88.1301 308.714 88.0842 308.291 87.8447C307.051 87.1623 307.054 85.3841 306.317 84.1701C306.001 83.6634 305.553 83.2546 305.022 82.9889C304.491 82.7232 303.897 82.6108 303.307 82.6642C302.385 82.7561 301.55 83.2515 300.638 83.4123C299.391 83.6354 298.121 83.2253 296.939 82.7561C295.757 82.2869 294.559 81.7719 293.289 81.7719C292.019 81.7719 290.646 82.428 290.262 83.6387C290.058 84.2948 290.159 85.0002 290.003 85.6662C289.723 86.8408 288.704 87.6807 287.648 88.2647C286.999 88.6288 286.226 89.0455 286.025 89.7345C286.025 89.7148 286.025 89.6984 286.025 89.682C286.01 89.7369 285.999 89.7928 285.992 89.8493C285.986 89.9224 285.986 89.996 285.992 90.0691C285.992 90.5416 286.239 90.991 286.405 91.4405C286.713 92.2956 286.706 93.2345 286.385 94.0849C286.145 94.7082 285.736 95.2561 285.502 95.8762C285.392 96.1651 285.32 96.4673 285.288 96.7752V96.7227C285.28 96.8625 285.28 97.0028 285.288 97.1426C285.284 97.6218 285.395 98.0947 285.612 98.5206C285.761 98.8147 285.967 99.0756 286.218 99.2881C286.468 99.5005 286.758 99.6601 287.07 99.7575C287.72 99.9084 288.126 99.2653 288.811 99.4294C288.934 99.4592 289.054 99.4976 289.171 99.5442C289.194 99.6918 289.217 99.8395 289.243 99.9838C289.657 102.192 290.822 104.184 292.536 105.617C292.536 105.696 292.562 105.775 292.571 105.857C292.779 107.165 292.869 108.489 292.841 109.813C292.841 109.813 291.818 108.301 290.415 111.221C290.415 111.221 286.755 113.353 285.492 113.596C284.229 113.839 279.744 115.417 279.744 115.417C279.068 115.911 278.254 116.176 277.419 116.175C276.02 116.175 274.857 119.269 275.026 120.952C275.195 122.635 274.926 123.875 273.623 123.944C272.321 124.013 273.032 126.68 273.042 126.726L272.922 127.3C272.669 128.475 272.117 130.994 271.922 131.388C271.096 133.387 270.627 135.517 270.535 137.681C270.435 140.725 269.561 152.845 269.46 153.052C269.392 153.186 274.903 158.275 278.777 161.831L279.339 162.343L277.556 179.167C277.608 179.815 277.798 180.444 278.115 181.011C278.431 181.577 278.865 182.068 279.387 182.448C279.387 182.645 279.387 182.845 279.368 183.052C279.29 185.02 279.134 187.402 278.822 188.025C278.277 189.128 278.413 195.04 278.413 195.04C278.413 195.04 277.864 207.074 277.182 208.383C276.5 209.692 276.361 212.438 276.565 212.976C276.77 213.514 275.88 227.966 275.88 227.966L275.198 234.433C275.198 234.433 275.403 240.621 274.786 240.758C274.169 240.896 273.828 245.161 273.828 245.161C273.828 245.161 271.642 248.186 272.597 249.285C273.552 250.384 272.458 250.87 272.357 251.142C272.256 251.415 270.272 252.455 271.707 256.3C271.721 256.338 271.736 256.375 271.753 256.411C270.409 258.298 266.148 264.384 266.408 265.309C266.6 265.898 267.006 266.39 267.544 266.687C268.548 267.294 270.269 267.576 273.006 266.687C277.553 265.207 277.228 264.141 277.228 264.141C277.251 263.643 277.463 263.172 277.819 262.827C278.176 262.481 278.65 262.287 279.144 262.284C281.024 262.146 282.427 260.394 282.427 260.394L282.206 259.564L281.904 258.416C281.94 258.088 282.17 257.514 283.203 257.195C284.778 256.713 284.365 253.688 284.365 253.688C284.365 253.688 284.229 250.526 284.911 250.112C285.593 249.699 285.323 244.472 285.323 244.472C285.323 244.472 286.077 240.69 287.168 238.144C288.259 235.598 289.564 220.473 289.564 220.473C289.564 220.473 290.451 213.045 291.272 210.913C292.094 208.78 292.847 202.799 292.847 202.799C292.847 202.799 297.91 192.894 297.975 190.693C297.975 190.693 298.624 188.629 299.274 190.899C299.923 193.17 301.748 198.603 301.748 198.603L303.524 205.273L305.645 215.243L307.015 223.636C307.015 223.636 306.807 226.798 307.34 227.901C307.873 229.003 308.639 231.543 308.23 232.025C307.821 232.507 309.048 234.777 309.392 235.256C309.736 235.735 309.392 245.916 309.392 245.916C309.392 245.916 310.964 254.581 313.221 256.087C313.378 256.191 313.546 256.279 313.721 256.349C313.688 257.287 313.656 258.544 313.698 259.2C313.693 259.347 313.717 259.493 313.77 259.63C313.974 259.905 316.299 261.762 316.78 261.762C317.26 261.762 318.965 262.967 319.037 263.551C319.108 264.135 324.034 266.608 324.732 266.68C325.431 266.753 328.814 267.366 329.279 266.405C329.394 266.124 329.426 265.815 329.373 265.516ZM317.27 141.592L317.621 141.897C317.621 141.897 317.981 144.735 318.238 145.584C318.494 146.434 318.186 148.088 318.186 148.088C318.21 148.705 318.331 149.314 318.546 149.892C318.852 150.512 317.929 151.861 317.929 151.861H317.108L316.851 141.237L317.27 141.592ZM292.841 109.872V109.81C292.834 109.83 292.831 109.853 292.831 109.872H292.841ZM280.225 150.768C280.099 150.493 280.08 150.18 280.173 149.892C280.246 149.736 280.304 149.574 280.345 149.407C280.446 148.976 280.509 148.536 280.534 148.094C280.534 148.089 280.534 148.083 280.534 148.078C280.504 147.92 280.241 146.398 280.485 145.591C280.728 144.784 281.099 141.903 281.099 141.903L281.332 141.703L281.875 141.227C281.875 141.227 281.875 141.05 281.914 140.758C282.027 143.252 282.118 146.008 281.972 146.145C281.699 146.418 280.706 149.098 280.946 149.203C281.024 149.239 280.917 150.312 280.735 151.756C280.531 151.446 280.36 151.115 280.225 150.768Z" fill="url(#paint1_linear_6170_158635)"/>
<path d="M306.398 112.494V116.575L298.111 120.784C298.111 120.784 289.883 115.755 291.912 113.754C293.211 112.487 292.961 109.009 292.61 106.618C292.406 105.227 292.169 104.206 292.169 104.206C292.169 104.206 306.95 99.9412 304.716 103.179C303.969 104.262 303.911 105.663 304.161 107.051C304.667 109.803 306.398 112.494 306.398 112.494Z" fill="#C37098"/>
<path d="M283.696 152.405L282.628 165.699C282.628 165.699 281.027 164.233 278.955 162.323C275.114 158.783 269.658 153.721 269.723 153.586C269.824 153.38 270.698 141.319 270.792 138.288C270.88 136.136 271.344 134.017 272.162 132.028C272.357 131.634 272.906 129.128 273.136 127.956C273.214 127.592 273.263 127.356 273.263 127.356L275.055 126.628C275.055 126.628 282.524 135.046 282.524 135.2C282.524 135.355 282.014 141.821 282.014 141.821L281.485 142.287L281.255 142.487C281.255 142.487 280.897 145.312 280.644 146.159C280.391 147.005 280.664 148.475 280.693 148.632C280.669 149.074 280.607 149.513 280.508 149.945C280.465 150.11 280.408 150.272 280.336 150.427C280.244 150.714 280.263 151.026 280.387 151.3C280.532 151.68 280.719 152.042 280.946 152.379L283.696 152.405Z" fill="#3F3D56"/>
<path d="M328.96 153.586C329.038 153.747 321.073 161.093 317.621 164.265L316.056 165.699L314.997 152.405H317.741C317.741 152.405 318.657 151.07 318.352 150.453C318.139 149.878 318.019 149.272 317.998 148.659C317.998 148.659 318.3 147.018 318.046 146.168C317.793 145.319 317.436 142.497 317.436 142.497L317.088 142.195L316.676 141.831C316.676 141.831 316.166 135.365 316.166 135.21C316.166 135.056 323.635 126.637 323.635 126.637L325.414 127.356C325.414 127.356 325.453 127.55 325.518 127.858C325.759 128.977 326.333 131.624 326.531 132.028C327.349 134.017 327.813 136.136 327.902 138.288C327.986 141.319 328.857 153.38 328.96 153.586Z" fill="#3F3D56"/>
<path d="M328.993 266.428C328.515 267.386 325.164 266.756 324.473 266.703C323.781 266.651 318.897 264.167 318.829 263.587C318.761 263.006 317.069 261.808 316.595 261.808C316.121 261.808 313.818 259.958 313.614 259.686C313.562 259.55 313.539 259.405 313.545 259.259C313.474 258.134 313.614 255.237 313.614 255.237L323.437 255.785L328.21 263.039C328.613 263.821 328.903 264.657 329.074 265.522C329.132 265.826 329.104 266.14 328.993 266.428Z" fill="#3F3D56"/>
<path opacity="0.1" d="M328.993 266.428C328.515 267.386 325.164 266.756 324.473 266.703C323.781 266.651 318.897 264.167 318.829 263.587C318.761 263.006 317.069 261.808 316.595 261.808C316.121 261.808 313.818 259.958 313.614 259.686C313.562 259.55 313.539 259.405 313.545 259.259C313.474 258.134 313.614 255.237 313.614 255.237L323.437 255.785L328.21 263.039C328.613 263.821 328.903 264.657 329.074 265.522C329.132 265.826 329.104 266.14 328.993 266.428Z" fill="black"/>
<path opacity="0.1" d="M328.993 266.428C328.516 267.386 325.164 266.756 324.473 266.703C323.781 266.651 318.897 264.167 318.829 263.587C318.761 263.006 317.069 261.808 316.595 261.808C316.121 261.808 313.818 259.958 313.614 259.686C313.562 259.55 313.539 259.405 313.546 259.259L316.728 261.293C316.728 261.293 318.761 262.606 319.303 263.383C319.845 264.161 324.119 265.778 324.473 265.811C324.736 265.837 327.541 265.293 329.074 265.522C329.132 265.826 329.104 266.14 328.993 266.428Z" fill="black"/>
<path d="M282.557 260.44C282.557 260.44 281.167 262.186 279.309 262.32C278.819 262.324 278.349 262.518 277.996 262.861C277.643 263.205 277.435 263.673 277.413 264.167C277.413 264.167 277.738 265.23 273.247 266.703C270.535 267.586 268.83 267.307 267.837 266.703C267.303 266.406 266.901 265.916 266.71 265.332C266.405 264.24 272.399 255.923 272.399 255.923L277.855 255.594L281.751 257.373L282.349 259.627L282.557 260.44Z" fill="#3F3D56"/>
<path opacity="0.1" d="M282.557 260.44C282.557 260.44 281.167 262.186 279.309 262.32C278.819 262.324 278.349 262.518 277.996 262.861C277.643 263.205 277.435 263.673 277.413 264.167C277.413 264.167 277.738 265.23 273.247 266.703C270.535 267.586 268.83 267.307 267.837 266.703C267.303 266.406 266.901 265.916 266.71 265.332C266.405 264.24 272.399 255.923 272.399 255.923L277.855 255.594L281.751 257.373L282.349 259.627L282.557 260.44Z" fill="black"/>
<path opacity="0.1" d="M282.557 260.44C282.557 260.44 281.167 262.186 279.309 262.32C278.819 262.324 278.349 262.518 277.996 262.861C277.643 263.205 277.435 263.673 277.413 264.167C277.413 264.167 277.738 265.23 273.247 266.703C270.535 267.586 268.83 267.307 267.837 266.703C270.392 266.434 276.039 264.804 276.604 264.239C277.283 263.554 278.131 261.671 278.705 261.638C279.105 261.612 281.134 260.378 282.352 259.614L282.557 260.44Z" fill="black"/>
<path d="M324.385 252.809C323.775 254.246 324.385 257.189 324.385 257.189C324.385 257.189 315.293 257.668 313.071 256.162C310.85 254.656 309.279 246.031 309.279 246.031C309.279 246.031 309.603 235.903 309.279 235.424C308.954 234.945 307.72 232.688 308.126 232.209C308.532 231.73 307.801 229.197 307.246 228.101C306.691 227.005 306.921 223.859 306.921 223.859L305.564 215.506L303.466 205.584L301.683 198.944C301.683 198.944 299.855 193.537 299.235 191.28C298.615 189.023 297.959 191.073 297.959 191.073C297.894 193.265 292.88 203.121 292.88 203.121C292.88 203.121 292.133 209.075 291.321 211.195C290.509 213.314 289.626 220.709 289.626 220.709C289.626 220.709 288.327 235.765 287.255 238.298C286.184 240.831 285.447 244.594 285.447 244.594C285.447 244.594 285.72 249.797 285.041 250.207C284.362 250.617 284.473 253.767 284.473 253.767C284.473 253.767 284.878 256.776 283.32 257.258C281.761 257.74 282.021 258.764 282.021 258.764C282.021 258.764 273.351 260.201 271.928 256.365C270.506 252.53 272.471 251.51 272.578 251.234C272.685 250.959 273.766 250.483 272.818 249.384C271.87 248.285 274.036 245.279 274.036 245.279C274.036 245.279 274.377 241.037 274.984 240.9C275.591 240.762 275.393 234.604 275.393 234.604L276.069 228.17C276.069 228.17 276.952 213.796 276.747 213.249C276.543 212.701 276.679 209.968 277.358 208.655C278.036 207.343 278.575 195.374 278.575 195.374C278.575 195.374 278.439 189.492 278.981 188.396C279.306 187.776 279.442 185.391 279.52 183.445C279.579 181.959 279.592 180.729 279.592 180.729L287.178 177.855L296.919 174.708L305.116 178.678L317.108 181.004L317.257 183.094L319.547 215.02L320.845 227.064C320.845 227.064 321.388 232.743 321.456 233.77C321.524 234.797 322.2 241.507 322.2 241.507C322.2 241.507 323.622 244.722 322.742 245.818C321.862 246.913 322.2 247.786 322.2 247.786C322.2 247.786 324.996 251.372 324.385 252.809Z" fill="#3F3D56"/>
<path opacity="0.1" d="M304.723 103.179C303.976 104.262 303.917 105.663 304.167 107.051C302.461 108.267 300.406 108.883 298.319 108.804C296.232 108.726 294.229 107.956 292.617 106.614C292.412 105.223 292.175 104.203 292.175 104.203C292.175 104.203 306.957 99.9445 304.723 103.179Z" fill="black"/>
<path d="M308.178 98.993C308.178 100.894 307.62 102.753 306.574 104.334C305.529 105.914 304.043 107.147 302.304 107.874C300.566 108.602 298.653 108.792 296.807 108.421C294.961 108.05 293.266 107.135 291.935 105.79C290.605 104.446 289.699 102.733 289.332 100.868C288.964 99.0037 289.153 97.0708 289.873 95.3143C290.593 93.5578 291.813 92.0565 293.377 91.0002C294.942 89.9439 296.781 89.3801 298.663 89.3801C299.914 89.374 301.154 89.6185 302.311 90.0995C303.468 90.5804 304.52 91.2883 305.404 92.1821C306.289 93.076 306.99 94.1381 307.466 95.3071C307.942 96.4762 308.184 97.7289 308.178 98.993Z" fill="#C37098"/>
<path opacity="0.1" d="M310.159 114.967L307.041 171.054L290.107 167.461L286.752 144.977L290.074 114.794L292.574 115.118L296.984 115.686L301.352 115.958L306.086 115.427L310.159 114.967Z" fill="black"/>
<path d="M310.159 115.378L307.041 171.464L290.107 167.871L286.752 145.387L290.074 115.207L292.574 115.528L296.984 116.096L301.352 116.368L306.086 115.837L310.159 115.378Z" fill="#3F51B5"/>
<path d="M296.237 116.883L302.336 117.09L300.621 119.515C300.621 119.515 300.741 124.413 301.556 125.817C302.372 127.221 302.131 148.914 302.131 148.914L300.508 152.028L297.731 148.537L297.767 119.895L296.237 116.883Z" fill="#3F3D56"/>
<path opacity="0.1" d="M296.237 116.883L302.336 117.09L300.621 119.515C300.621 119.515 300.741 124.413 301.556 125.817C302.372 127.221 302.131 148.914 302.131 148.914L300.508 152.028L297.731 148.537L297.767 119.895L296.237 116.883Z" fill="black"/>
<path opacity="0.1" d="M305.788 110.519L300.098 116.884L303.349 120.305L308.736 115L305.788 110.519Z" fill="black"/>
<path d="M305.788 110.109L300.098 116.473L303.349 119.895L308.736 114.59L305.788 110.109Z" fill="#3F51B5"/>
<path opacity="0.1" d="M297.695 116.575L291.935 110.758L291.392 113.803L294.036 120.476L297.695 116.575Z" fill="black"/>
<path d="M297.897 116.165L292.139 110.348L291.597 113.393L294.24 120.066L297.897 116.165Z" fill="#3F51B5"/>
<path opacity="0.1" d="M317.286 183.104C314.522 184.435 311.56 185.301 308.519 185.667C302.93 186.385 299.274 179.2 299.274 179.2L297.14 182.005C296.462 184.984 286.132 185.735 281.933 184.607C281.062 184.389 280.243 183.998 279.524 183.455C279.582 181.969 279.595 180.739 279.595 180.739L287.181 177.865L296.923 174.718L305.119 178.688L317.111 181.014L317.286 183.104Z" fill="black"/>
<path opacity="0.1" d="M310.159 115.381L307.044 171.464L290.107 167.871L286.746 145.391L290.064 115.207L292.565 115.535C292.501 116.635 292.378 117.73 292.198 118.816C291.792 120.735 294.299 134.354 294.299 134.354C294.299 134.354 299.063 149.626 301.206 147.425C303.349 145.223 306.401 133.599 306.401 133.599C308.47 129.288 306.437 117.195 306.285 116.952C306.178 116.595 306.113 116.226 306.09 115.853L310.159 115.381Z" fill="black"/>
<path opacity="0.1" d="M317.475 158.78L317.618 164.275L316.052 165.709L314.997 152.405H317.335L317.475 158.78Z" fill="black"/>
<path opacity="0.1" d="M280.696 148.642C280.672 149.084 280.61 149.523 280.511 149.954C280.511 149.833 280.511 149.764 280.485 149.754C280.387 149.728 280.504 149.226 280.696 148.642Z" fill="black"/>
<path opacity="0.1" d="M283.696 152.405L282.628 165.699C282.628 165.699 281.027 164.233 278.955 162.323L279.202 159.968C279.202 159.968 280.076 154.18 280.394 151.326C280.538 151.706 280.726 152.068 280.952 152.405H283.696Z" fill="black"/>
<path d="M292.883 110.551C292.883 110.551 291.87 109.046 290.48 111.952C290.48 111.952 286.856 114.075 285.609 114.315C284.362 114.554 279.926 116.129 279.926 116.129C279.256 116.618 278.451 116.881 277.624 116.88C276.234 116.88 275.081 119.961 275.25 121.637C275.419 123.314 275.15 124.548 273.864 124.616C272.578 124.685 273.286 127.385 273.286 127.385L281.855 137.31C281.855 137.31 282.398 146.447 282.128 146.723C281.858 146.998 280.875 149.676 281.112 149.767C281.349 149.859 279.813 159.964 279.813 159.964L277.747 179.574C277.747 179.574 277.747 182.855 281.949 183.987C286.151 185.119 296.488 184.371 297.153 181.392L299.287 178.583C299.287 178.583 302.943 185.771 308.532 185.053C314.12 184.334 317.679 182.281 317.679 182.281L317.069 158.78L316.663 141.841L325.388 127.356C325.388 127.356 323.05 122.838 323.255 120.794C323.46 118.75 323.862 117.202 318.884 116.483C318.884 116.483 314.685 115.85 312.211 114.121C310.74 113.089 309.133 112.272 307.437 111.693C307.437 111.693 306.041 109.069 305.07 109.967C305.07 109.967 306.044 113.678 305.963 114.233C305.882 114.787 306.116 117.294 306.268 117.553C306.421 117.812 308.454 129.889 306.385 134.2C306.385 134.2 303.349 145.824 301.19 148.025C299.03 150.227 294.283 134.954 294.283 134.954C294.283 134.954 291.776 121.332 292.182 119.416C292.588 117.5 292.883 110.551 292.883 110.551Z" fill="#3F3D56"/>
<path d="M300.131 155.417C300.954 155.417 301.622 154.743 301.622 153.911C301.622 153.079 300.954 152.405 300.131 152.405C299.308 152.405 298.641 153.079 298.641 153.911C298.641 154.743 299.308 155.417 300.131 155.417Z" fill="#3F3D56"/>
<path d="M300.131 162.517C300.954 162.517 301.622 161.843 301.622 161.011C301.622 160.179 300.954 159.505 300.131 159.505C299.308 159.505 298.641 160.179 298.641 161.011C298.641 161.843 299.308 162.517 300.131 162.517Z" fill="#3F3D56"/>
<path opacity="0.1" d="M300.131 155.417C300.954 155.417 301.622 154.743 301.622 153.911C301.622 153.079 300.954 152.405 300.131 152.405C299.308 152.405 298.641 153.079 298.641 153.911C298.641 154.743 299.308 155.417 300.131 155.417Z" fill="black"/>
<path opacity="0.1" d="M300.131 162.517C300.954 162.517 301.622 161.843 301.622 161.011C301.622 160.179 300.954 159.505 300.131 159.505C299.308 159.505 298.641 160.179 298.641 161.011C298.641 161.843 299.308 162.517 300.131 162.517Z" fill="black"/>
<path opacity="0.1" d="M313.526 250.755C313.526 250.755 319.644 251.234 320.251 251.713C320.858 252.192 313.526 250.755 313.526 250.755Z" fill="black" stroke="#3F51B5" stroke-miterlimit="10"/>
<path opacity="0.1" d="M277.101 245.896C277.101 245.896 278.4 247.537 277.848 248.291C277.296 249.046 277.101 245.896 277.101 245.896Z" fill="black" stroke="#3F51B5" stroke-miterlimit="10"/>
<path opacity="0.1" d="M278.66 251.812C278.66 251.812 281.03 250.237 281.979 251.283C282.927 252.33 278.66 251.812 278.66 251.812Z" fill="black" stroke="#3F51B5" stroke-miterlimit="10"/>
<path opacity="0.1" d="M308.178 98.993C308.18 99.8132 308.077 100.63 307.873 101.424C307.672 101.332 307.505 101.18 307.392 100.989C307.279 100.798 307.227 100.576 307.243 100.355C307.285 99.9641 307.541 99.6065 307.486 99.2194C307.405 98.6223 306.691 98.3795 306.314 97.907C305.849 97.3362 305.95 96.5061 305.989 95.7679C306.028 95.0297 305.843 94.1275 305.158 93.8749C304.953 93.7994 304.729 93.7929 304.531 93.7076C303.992 93.4779 303.826 92.802 303.466 92.3362C302.745 91.3978 301.313 91.4175 300.219 91.8637C299.742 92.0944 299.255 92.3003 298.757 92.4805C298.508 92.5692 298.244 92.6048 297.981 92.5851C297.717 92.5653 297.461 92.4906 297.228 92.3657C297.014 92.2279 296.841 92.0376 296.621 91.8998C295.887 91.4536 294.926 91.8998 294.289 92.474C293.653 93.0481 293.143 93.8191 292.341 94.1702C291.98 94.3342 291.535 94.4326 291.367 94.787C291.283 94.9799 291.247 95.1905 291.263 95.4005C291.263 96.6767 291.412 97.9727 291.149 99.2227C290.98 100.026 290.422 100.939 289.613 100.84C289.512 100.825 289.413 100.8 289.318 100.765C289.074 99.4506 289.105 98.0998 289.407 96.7984C289.71 95.497 290.278 94.2736 291.075 93.2065C291.872 92.1393 292.88 91.2519 294.036 90.6008C295.191 89.9496 296.469 89.5492 297.786 89.425C299.103 89.3009 300.432 89.4557 301.687 89.8796C302.942 90.3035 304.095 90.9872 305.074 91.887C306.052 92.7868 306.834 93.8829 307.37 95.1054C307.906 96.3278 308.183 97.6496 308.184 98.9864L308.178 98.993Z" fill="black"/>
<path d="M288.892 100.22C289.136 100.276 289.366 100.404 289.616 100.437C290.425 100.535 290.983 99.623 291.152 98.8192C291.415 97.5692 291.279 96.2732 291.269 94.997C291.251 94.7872 291.286 94.5761 291.37 94.3835C291.555 94.0291 292 93.9307 292.344 93.7667C293.13 93.4123 293.643 92.6577 294.292 92.0705C294.942 91.4832 295.887 91.0501 296.621 91.4963C296.838 91.6276 297.014 91.8244 297.228 91.9622C297.462 92.0853 297.719 92.159 297.983 92.1788C298.246 92.1985 298.511 92.1639 298.761 92.077C299.264 91.9261 299.735 91.6604 300.219 91.4602C301.303 91.014 302.739 90.9976 303.466 91.9294C303.826 92.3985 303.992 93.0711 304.531 93.3008C304.729 93.3861 304.953 93.3959 305.158 93.4714C305.843 93.7306 306.018 94.6262 305.989 95.3644C305.96 96.1026 305.862 96.9327 306.314 97.5036C306.691 97.9694 307.405 98.2122 307.486 98.8159C307.538 99.203 307.285 99.5639 307.243 99.9511C307.233 100.095 307.252 100.239 307.298 100.376C307.344 100.512 307.416 100.638 307.511 100.746C307.605 100.854 307.72 100.942 307.848 101.005C307.977 101.068 308.116 101.105 308.259 101.112C309.103 101.112 309.626 100.158 310.415 99.8526C310.74 99.7247 311.133 99.705 311.389 99.4458C311.485 99.3212 311.552 99.1772 311.587 99.0236C311.622 98.8701 311.623 98.7108 311.591 98.5567C311.432 97.3001 310.435 96.2076 310.542 94.9478C310.642 93.7404 311.75 92.6873 311.516 91.4996C311.397 91.0617 311.174 90.6597 310.867 90.3283C310.518 89.8517 310.065 89.464 309.542 89.1964C309.09 88.9996 308.567 88.9537 308.155 88.7142C306.928 88.035 306.931 86.2634 306.207 85.056C305.896 84.5571 305.455 84.1541 304.933 83.8914C304.41 83.6287 303.827 83.5163 303.245 83.5665C302.333 83.6584 301.505 84.1472 300.602 84.3113C299.365 84.5344 298.111 84.1243 296.939 83.6551C295.767 83.1859 294.581 82.6708 293.325 82.6708C292.068 82.6708 290.707 83.327 290.324 84.5278C290.123 85.184 290.224 85.8861 290.068 86.5455C289.795 87.7168 288.769 88.5501 287.736 89.1308C287.025 89.5311 286.171 89.9904 286.086 90.8073C286.031 91.3257 286.314 91.7916 286.492 92.2936C286.796 93.1428 286.789 94.0737 286.473 94.9182C286.236 95.5383 285.84 96.0829 285.599 96.6997C285.429 97.1184 285.348 97.5688 285.363 98.0212C285.377 98.4737 285.487 98.9179 285.684 99.3244C285.835 99.6208 286.045 99.8829 286.3 100.094C286.555 100.306 286.851 100.463 287.168 100.555C287.808 100.709 288.21 100.069 288.892 100.22Z" fill="#3F3D56"/>
<g opacity="0.1">
<path opacity="0.1" d="M291.152 98.1039C290.983 98.9077 290.422 99.8198 289.613 99.7213C289.363 99.6885 289.136 99.5606 288.889 99.5048C288.21 99.3539 287.808 99.9969 287.168 99.8329C286.85 99.7408 286.554 99.5843 286.299 99.3727C286.043 99.1612 285.833 98.8991 285.681 98.6026C285.511 98.2686 285.408 97.904 285.379 97.5298C285.314 98.1107 285.419 98.698 285.681 99.2194C285.833 99.5159 286.043 99.7779 286.299 99.9895C286.554 100.201 286.85 100.358 287.168 100.45C287.817 100.601 288.21 99.9576 288.889 100.122C289.126 100.205 289.368 100.276 289.613 100.335C290.422 100.437 290.983 99.5245 291.152 98.7207C291.285 98.0105 291.338 97.2873 291.308 96.5652C291.305 97.0819 291.253 97.5972 291.152 98.1039Z" fill="black"/>
<path opacity="0.1" d="M286.703 93.1618C286.745 92.6242 286.672 92.0839 286.489 91.5772C286.342 91.2402 286.218 90.8939 286.116 90.5404C286.102 90.5955 286.091 90.6514 286.083 90.7077C286.028 91.2228 286.314 91.692 286.489 92.1939C286.603 92.5056 286.675 92.831 286.703 93.1618Z" fill="black"/>
<path opacity="0.1" d="M311.513 91.434C311.36 92.3657 310.613 93.2417 310.539 94.2227C310.521 94.3906 310.521 94.56 310.539 94.7279C310.701 93.5829 311.704 92.5691 311.513 91.434Z" fill="black"/>
<path opacity="0.1" d="M311.568 98.3565C311.54 98.4937 311.476 98.6207 311.383 98.724C311.143 98.9832 310.733 99.0028 310.409 99.1308C309.62 99.4359 309.11 100.4 308.252 100.391C308.033 100.378 307.822 100.299 307.649 100.163C307.475 100.027 307.346 99.8409 307.278 99.6295C307.259 99.7006 307.243 99.7729 307.233 99.846C307.224 99.9896 307.243 100.134 307.289 100.27C307.335 100.406 307.407 100.532 307.502 100.639C307.597 100.747 307.711 100.835 307.839 100.897C307.968 100.96 308.107 100.996 308.249 101.004C309.097 101.004 309.616 100.049 310.405 99.7476C310.73 99.6196 311.126 99.5999 311.38 99.3408C311.475 99.2162 311.542 99.0721 311.577 98.9186C311.612 98.7651 311.613 98.6057 311.581 98.4517C311.578 98.4123 311.571 98.386 311.568 98.3565Z" fill="black"/>
<path opacity="0.1" d="M307.496 98.0842C307.415 97.4871 306.7 97.2443 306.324 96.7719C306.093 96.4615 305.967 96.084 305.966 95.6957C305.94 96.306 305.95 96.9293 306.324 97.3887C306.697 97.848 307.265 98.0448 307.447 98.5173C307.493 98.3779 307.51 98.2304 307.496 98.0842Z" fill="black"/>
<path opacity="0.1" d="M305.986 94.6492C306.012 93.911 305.837 93.0087 305.151 92.7561C304.95 92.6807 304.726 92.6708 304.528 92.5888C303.989 92.3591 303.82 91.6833 303.463 91.2174C302.739 90.2824 301.307 90.2988 300.215 90.745C299.728 90.9451 299.264 91.2108 298.757 91.3618C298.508 91.4505 298.244 91.4861 297.981 91.4663C297.718 91.4465 297.461 91.3718 297.228 91.2469C297.014 91.1091 296.838 90.9188 296.621 90.781C295.884 90.3348 294.922 90.781 294.289 91.3552C293.656 91.9293 293.143 92.6971 292.341 93.0514C291.977 93.2154 291.535 93.3139 291.347 93.6682C291.265 93.8613 291.23 94.072 291.246 94.2817C291.246 94.4097 291.246 94.5376 291.246 94.6656C291.251 94.5334 291.283 94.4037 291.341 94.285C291.529 93.9307 291.971 93.8322 292.334 93.6682C293.12 93.3139 293.633 92.5593 294.283 91.972C294.932 91.3847 295.877 90.9516 296.614 91.3978C296.832 91.5291 297.007 91.7259 297.221 91.8604C297.454 91.9861 297.711 92.0613 297.974 92.081C298.238 92.1008 298.502 92.0648 298.751 91.9753C299.247 91.7968 299.734 91.592 300.209 91.3618C301.297 90.9156 302.729 90.8959 303.456 91.8309C303.813 92.2968 303.982 92.9726 304.521 93.2023C304.719 93.2876 304.943 93.2975 305.145 93.3729C305.7 93.5829 305.921 94.2128 305.97 94.8362L305.986 94.6492Z" fill="black"/>
</g>
<g opacity="0.1">
<path opacity="0.1" d="M289.993 98.0842C290.011 97.5397 290.205 97.0159 290.543 96.5917C290.881 96.1675 291.347 95.8658 291.87 95.7319C293.318 95.3742 294.837 95.4437 296.247 95.932C299.329 96.9622 295.857 100.67 295.857 100.67C295.857 100.67 293.549 102.966 291.396 101.362C290.76 100.876 290.315 100.179 290.139 99.3933C290.034 98.9653 289.984 98.5252 289.993 98.0842Z" fill="black"/>
<path opacity="0.1" d="M306.934 98.0842C306.915 97.5392 306.722 97.0151 306.383 96.5909C306.043 96.1666 305.577 95.8651 305.054 95.7318C303.607 95.3748 302.089 95.4443 300.68 95.9319C297.598 96.9621 301.069 100.669 301.069 100.669C301.069 100.669 303.375 102.966 305.531 101.362C306.167 100.876 306.612 100.179 306.788 99.3932C306.893 98.9653 306.942 98.5251 306.934 98.0842Z" fill="black"/>
<path opacity="0.1" d="M295.666 95.6287V95.781H301.293V95.5995L295.666 95.6287Z" fill="black"/>
<path opacity="0.1" d="M297.462 97.2739H297.64V96.7522C297.64 96.7522 298.212 96.3027 299.16 96.7522V97.2181H299.485V96.913H299.326C299.326 96.913 299.39 96.2798 298.332 96.3815C298.332 96.3815 297.481 96.2995 297.5 96.8441H297.306L297.462 97.2739Z" fill="black"/>
</g>
<path d="M289.993 97.871C290.012 97.3265 290.205 96.8027 290.543 96.3785C290.882 95.9543 291.347 95.6526 291.87 95.5186C293.318 95.1634 294.837 95.2328 296.247 95.7188C299.329 96.7522 295.858 100.456 295.858 100.456C295.858 100.456 293.549 102.753 291.396 101.149C290.759 100.664 290.313 99.9663 290.139 99.1801C290.033 98.7521 289.984 98.312 289.993 97.871Z" fill="#3F51B5"/>
<path d="M306.934 97.871C306.915 97.326 306.722 96.802 306.383 96.3777C306.044 95.9534 305.577 95.652 305.054 95.5186C303.607 95.1633 302.089 95.2327 300.68 95.7188C297.598 96.7522 301.069 100.456 301.069 100.456C301.069 100.456 303.375 102.753 305.531 101.149C306.168 100.664 306.614 99.9663 306.788 99.1801C306.894 98.7521 306.943 98.312 306.934 97.871Z" fill="#3F51B5"/>
<path d="M295.666 95.4231V95.5787H301.293V95.3939L295.666 95.4231Z" fill="#3F51B5"/>
<path d="M297.462 97.0671H297.64V96.5455C297.64 96.5455 298.212 96.0993 299.16 96.5455V97.0146H299.485V96.7062H299.326C299.326 96.7062 299.391 96.0763 298.332 96.1747C298.332 96.1747 297.481 96.096 297.501 96.6373H297.306L297.462 97.0671Z" fill="#3F51B5"/>
<path d="M39.9872 149.997H38.1427V191.959H39.9872V149.997Z" fill="#535461"/>
<path d="M51.5799 191.831L51.463 193.721L51.3007 196.388L51.2325 197.501L51.0701 200.171L50.9987 201.283L50.8363 203.951L48.9756 234.289C48.8962 235.594 48.327 236.82 47.3838 237.716C46.4407 238.612 45.1948 239.111 43.9001 239.111H34.2297C32.9353 239.111 31.6897 238.612 30.7471 237.716C29.8045 236.82 29.236 235.594 29.1574 234.289L27.2869 203.951L27.1246 201.283L27.0564 200.171L26.8973 197.494L26.8291 196.382L26.6667 193.714L26.5498 191.825C26.5276 191.462 26.5792 191.098 26.7014 190.757C26.8236 190.415 27.0138 190.102 27.2602 189.837C27.5067 189.573 27.8041 189.362 28.1343 189.218C28.4645 189.074 28.8204 189 29.1801 189H48.9529C49.313 188.999 49.6693 189.074 49.9998 189.218C50.3303 189.363 50.628 189.574 50.8742 189.84C51.1205 190.105 51.3102 190.419 51.4316 190.762C51.553 191.104 51.6035 191.468 51.5799 191.831Z" fill="#3F3D56"/>
<path d="M51.4632 193.721L51.3008 196.388H26.8259L26.6636 193.721H51.4632Z" fill="#9D9CB5"/>
<path d="M51.2325 197.5L51.0701 200.171H27.0597L26.894 197.5H51.2325Z" fill="#9D9CB5"/>
<path d="M50.9987 201.283L50.8363 203.951H27.2934L27.1278 201.283H50.9987Z" fill="#9D9CB5"/>
<path d="M23.8482 165.725C34.5902 173.577 39.065 185.86 39.065 185.86C39.065 185.86 26.118 185.411 15.3598 177.559C4.60148 169.708 0.142944 157.425 0.142944 157.425C0.142944 157.425 13.1029 157.874 23.8482 165.725Z" fill="#3F51B5"/>
<path d="M0.15918 157.425C0.15918 157.425 13.5965 164.971 17.9056 171.204C22.2148 177.438 39.065 185.863 39.065 185.863" stroke="#535461" stroke-width="2" stroke-miterlimit="10"/>
<path d="M30.781 149.922C36.6262 154.187 39.0649 160.88 39.0649 160.88C39.0649 160.88 32.0182 160.637 26.1699 156.362C20.3215 152.087 17.8893 145.404 17.8893 145.404C17.8893 145.404 24.9359 145.63 30.781 149.922Z" fill="#3F51B5"/>
<path d="M17.8893 145.388C17.8893 145.388 25.2022 149.489 27.5467 152.884C29.8913 156.28 39.0649 160.863 39.0649 160.863" stroke="#535461" stroke-width="2" stroke-miterlimit="10"/>
<path d="M47.563 160.525C40.8444 167.983 39.4253 177.727 39.4253 177.727C39.4253 177.727 48.8944 175.381 55.6098 167.924C62.3252 160.466 63.7475 150.719 63.7475 150.719C63.7475 150.719 54.2784 153.065 47.563 160.525Z" fill="#3F51B5"/>
<path d="M63.7475 150.719C63.7475 150.719 54.9993 158.363 52.7749 163.632C50.5505 168.901 39.4253 177.74 39.4253 177.74" stroke="#535461" stroke-width="2" stroke-miterlimit="10"/>
</g>
<defs>
<linearGradient id="paint0_linear_6170_158635" x1="192.012" y1="211.969" x2="192.012" y2="35.3511" gradientUnits="userSpaceOnUse">
<stop stop-color="#808080" stop-opacity="0.25"/>
<stop offset="0.54" stop-color="#808080" stop-opacity="0.12"/>
<stop offset="1" stop-color="#808080" stop-opacity="0.1"/>
</linearGradient>
<linearGradient id="paint1_linear_6170_158635" x1="59761.1" y1="158607" x2="59761.1" y2="53739.6" gradientUnits="userSpaceOnUse">
<stop stop-color="#808080" stop-opacity="0.25"/>
<stop offset="0.54" stop-color="#808080" stop-opacity="0.12"/>
<stop offset="1" stop-color="#808080" stop-opacity="0.1"/>
</linearGradient>
<clipPath id="clip0_6170_158635">
<rect width="372" height="269" fill="white"/>
</clipPath>
</defs>
</svg>
