<svg width="323" height="269" viewBox="0 0 323 269" fill="none" xmlns="http://www.w3.org/2000/svg">
<g clip-path="url(#clip0_2512_120220)">
<path opacity="0.1" d="M104.707 9.56673C114.152 1.18054 128.977 -0.538631 142.473 0.129039C184.86 2.23204 223.12 22.6427 256.217 45.7338C268.2 54.091 279.996 63.0997 287.772 74.6113C303.616 98.0443 298.908 130.505 276.895 149.81C269.403 156.377 260.324 161.421 251.002 165.876C234.428 173.81 216.544 180.181 197.732 182.003C184.32 183.293 170.739 182.245 157.402 180.442C120.143 175.391 83.5768 164.244 52.9145 145.175C39.4701 136.811 26.7984 126.412 21.2563 112.888C15.7143 99.3635 19.2613 82.204 32.9903 74.1823C38.6682 70.8698 45.4583 69.3732 52.1029 67.9669C61.8872 65.8994 71.8266 63.8609 80.6538 59.6581C89.7752 55.3166 100.572 46.9208 98.7608 37.3089C96.8337 27.01 95.2752 17.9529 104.707 9.56673Z" fill="#3F51B5"/>
<path d="M221.471 215.748C221.471 215.748 229.574 201.43 241.774 197.304C246.903 195.607 251.341 192.295 254.423 187.867C255.87 185.754 257.119 183.512 258.154 181.171" stroke="#535461" stroke-width="2" stroke-miterlimit="10"/>
<path d="M265.83 178.523C264.44 179.871 257.964 181.261 257.964 181.261C257.964 181.261 259.551 174.846 260.941 173.501C261.609 172.854 262.507 172.498 263.437 172.512C264.368 172.525 265.255 172.907 265.903 173.573C266.551 174.239 266.908 175.135 266.894 176.063C266.881 176.991 266.498 177.876 265.83 178.523V178.523Z" fill="#3F51B5"/>
<path d="M262.167 190.131C260.266 190.508 254.083 188.167 254.083 188.167C254.083 188.167 258.914 183.651 260.812 183.264C261.725 183.083 262.672 183.271 263.446 183.787C264.22 184.303 264.757 185.105 264.938 186.015C265.119 186.926 264.931 187.871 264.413 188.643C263.896 189.415 263.093 189.95 262.18 190.131H262.167Z" fill="#3F51B5"/>
<path d="M248.829 202.691C246.996 202.046 242.834 196.917 242.834 196.917C242.834 196.917 249.301 195.447 251.125 196.079C251.57 196.222 251.981 196.452 252.336 196.755C252.69 197.059 252.98 197.43 253.189 197.847C253.398 198.264 253.521 198.718 253.551 199.184C253.581 199.649 253.518 200.115 253.365 200.556C253.212 200.996 252.973 201.401 252.661 201.748C252.348 202.095 251.97 202.376 251.547 202.575C251.125 202.774 250.667 202.887 250.2 202.907C249.733 202.927 249.267 202.853 248.829 202.691V202.691Z" fill="#3F51B5"/>
<path d="M236.591 209.929C234.68 209.606 229.707 205.249 229.707 205.249C229.707 205.249 235.821 202.707 237.732 203.023C238.19 203.094 238.629 203.255 239.025 203.496C239.42 203.738 239.764 204.055 240.035 204.429C240.307 204.804 240.502 205.228 240.608 205.678C240.715 206.128 240.731 206.595 240.655 207.051C240.58 207.507 240.415 207.944 240.169 208.336C239.923 208.728 239.602 209.068 239.224 209.335C238.847 209.603 238.419 209.793 237.967 209.895C237.515 209.997 237.047 210.008 236.591 209.929V209.929Z" fill="#3F51B5"/>
<path d="M248.671 183.154C248.671 185.09 252.176 190.692 252.176 190.692C252.176 190.692 255.687 185.09 255.687 183.158C255.687 182.23 255.318 181.339 254.66 180.683C254.002 180.027 253.109 179.658 252.179 179.658C251.249 179.658 250.356 180.027 249.698 180.683C249.04 181.339 248.671 182.23 248.671 183.158V183.154Z" fill="#3F51B5"/>
<path d="M234.466 191.799C235.048 193.644 240.073 197.946 240.073 197.946C240.073 197.946 241.742 191.55 241.163 189.705C240.885 188.819 240.265 188.08 239.44 187.65C238.616 187.22 237.653 187.134 236.765 187.412C235.877 187.69 235.136 188.308 234.705 189.13C234.274 189.953 234.188 190.913 234.466 191.799V191.799Z" fill="#3F51B5"/>
<path d="M221.817 202.088C222.076 204.004 226.302 209.094 226.302 209.094C226.302 209.094 229.031 203.072 228.772 201.156C228.648 200.236 228.163 199.402 227.423 198.839C226.684 198.276 225.75 198.029 224.828 198.153C223.905 198.276 223.07 198.76 222.506 199.498C221.941 200.236 221.693 201.168 221.817 202.088Z" fill="#3F51B5"/>
<path opacity="0.25" d="M265.83 178.523C264.44 179.871 257.964 181.261 257.964 181.261C257.964 181.261 259.551 174.846 260.941 173.501C261.609 172.854 262.507 172.498 263.437 172.512C264.368 172.525 265.255 172.907 265.903 173.573C266.551 174.239 266.908 175.135 266.894 176.063C266.881 176.991 266.498 177.876 265.83 178.523Z" fill="black"/>
<path opacity="0.25" d="M262.167 190.131C260.266 190.508 254.083 188.167 254.083 188.167C254.083 188.167 258.914 183.651 260.812 183.264C261.725 183.083 262.672 183.271 263.446 183.787C264.22 184.303 264.757 185.105 264.938 186.015C265.119 186.926 264.931 187.871 264.413 188.643C263.896 189.415 263.093 189.95 262.18 190.131H262.167Z" fill="black"/>
<path opacity="0.25" d="M248.829 202.691C246.996 202.046 242.834 196.917 242.834 196.917C242.834 196.917 249.301 195.447 251.125 196.079C251.57 196.222 251.981 196.452 252.336 196.755C252.69 197.059 252.98 197.43 253.189 197.847C253.398 198.264 253.521 198.718 253.551 199.184C253.581 199.649 253.518 200.115 253.365 200.556C253.212 200.996 252.973 201.401 252.661 201.748C252.348 202.095 251.97 202.376 251.547 202.575C251.125 202.774 250.667 202.887 250.2 202.907C249.733 202.927 249.267 202.853 248.829 202.691Z" fill="black"/>
<path opacity="0.25" d="M236.591 209.929C234.68 209.606 229.707 205.249 229.707 205.249C229.707 205.249 235.821 202.707 237.732 203.023C238.19 203.094 238.629 203.255 239.025 203.496C239.42 203.738 239.764 204.055 240.035 204.429C240.307 204.804 240.502 205.228 240.608 205.678C240.715 206.128 240.731 206.595 240.655 207.051C240.58 207.507 240.415 207.944 240.169 208.336C239.923 208.728 239.602 209.068 239.224 209.335C238.847 209.603 238.419 209.793 237.967 209.895C237.515 209.997 237.047 210.008 236.591 209.929Z" fill="black"/>
<path opacity="0.25" d="M248.671 183.154C248.671 185.09 252.176 190.692 252.176 190.692C252.176 190.692 255.687 185.09 255.687 183.158C255.687 182.23 255.318 181.339 254.66 180.683C254.002 180.027 253.109 179.658 252.179 179.658C251.249 179.658 250.356 180.027 249.698 180.683C249.04 181.339 248.671 182.23 248.671 183.158V183.154Z" fill="black"/>
<path opacity="0.25" d="M234.466 191.799C235.048 193.644 240.073 197.946 240.073 197.946C240.073 197.946 241.742 191.55 241.163 189.705C240.885 188.819 240.265 188.08 239.44 187.65C238.616 187.22 237.653 187.134 236.765 187.412C235.877 187.69 235.136 188.308 234.705 189.13C234.274 189.953 234.188 190.913 234.466 191.799Z" fill="black"/>
<path opacity="0.25" d="M221.817 202.088C222.076 204.004 226.302 209.094 226.302 209.094C226.302 209.094 229.031 203.072 228.772 201.156C228.648 200.236 228.163 199.402 227.423 198.839C226.684 198.276 225.75 198.029 224.828 198.153C223.905 198.276 223.07 198.76 222.506 199.498C221.941 200.236 221.693 201.168 221.817 202.088Z" fill="black"/>
<path d="M221.937 215.457C221.937 215.457 223.528 199.091 233.008 190.389C237.007 186.763 239.719 181.94 240.736 176.645C241.201 174.127 241.433 171.571 241.428 169.011" stroke="#535461" stroke-width="2" stroke-miterlimit="10"/>
<path d="M247.368 163.502C246.643 165.295 241.289 169.185 241.289 169.185C241.289 169.185 240.138 162.676 240.862 160.886C241.026 160.448 241.276 160.048 241.598 159.709C241.919 159.369 242.305 159.097 242.734 158.909C243.162 158.72 243.624 158.62 244.092 158.612C244.561 158.605 245.025 158.691 245.46 158.866C245.894 159.04 246.289 159.3 246.621 159.629C246.953 159.958 247.216 160.35 247.394 160.782C247.571 161.214 247.661 161.678 247.656 162.145C247.652 162.612 247.554 163.073 247.368 163.502V163.502Z" fill="#3F51B5"/>
<path d="M248.735 175.594C247.151 176.707 240.536 177.068 240.536 177.068C240.536 177.068 243.122 170.982 244.697 169.869C245.074 169.604 245.499 169.416 245.949 169.316C246.398 169.215 246.863 169.204 247.317 169.283C247.771 169.362 248.205 169.529 248.595 169.775C248.984 170.021 249.321 170.341 249.586 170.717C249.851 171.093 250.039 171.517 250.14 171.966C250.241 172.414 250.252 172.878 250.173 173.331C250.094 173.784 249.927 174.217 249.68 174.605C249.433 174.993 249.112 175.329 248.735 175.594Z" fill="#3F51B5"/>
<path d="M241.645 192.469C239.704 192.631 233.82 189.612 233.82 189.612C233.82 189.612 239.126 185.657 241.043 185.493C241.971 185.415 242.891 185.708 243.602 186.307C244.313 186.906 244.756 187.762 244.834 188.688C244.912 189.613 244.619 190.531 244.018 191.24C243.417 191.949 242.559 192.392 241.632 192.469H241.645Z" fill="#3F51B5"/>
<path d="M233.396 204.033C231.521 204.517 225.203 202.536 225.203 202.536C225.203 202.536 229.759 197.74 231.634 197.256C232.083 197.13 232.553 197.095 233.016 197.153C233.479 197.21 233.926 197.359 234.331 197.591C234.735 197.823 235.089 198.133 235.372 198.503C235.655 198.873 235.861 199.296 235.979 199.746C236.096 200.197 236.122 200.666 236.055 201.127C235.988 201.587 235.83 202.03 235.589 202.429C235.349 202.828 235.031 203.175 234.654 203.45C234.278 203.725 233.85 203.922 233.396 204.03V204.033Z" fill="#3F51B5"/>
<path d="M233.564 174.668C234.347 176.436 239.831 180.152 239.831 180.152C239.831 180.152 240.765 173.61 239.979 171.843C239.591 171.012 238.892 170.366 238.032 170.044C237.172 169.722 236.22 169.749 235.38 170.12C234.539 170.491 233.879 171.176 233.539 172.028C233.2 172.879 233.209 173.83 233.564 174.675V174.668Z" fill="#3F51B5"/>
<path d="M224.09 188.315C225.368 189.767 231.712 191.67 231.712 191.67C231.712 191.67 230.641 185.148 229.361 183.696C229.06 183.342 228.69 183.051 228.275 182.841C227.86 182.63 227.407 182.504 226.942 182.471C226.478 182.437 226.011 182.495 225.57 182.643C225.128 182.791 224.721 183.025 224.371 183.332C224.021 183.638 223.736 184.011 223.532 184.429C223.328 184.847 223.209 185.301 223.183 185.765C223.157 186.229 223.224 186.693 223.38 187.131C223.536 187.569 223.777 187.971 224.09 188.315V188.315Z" fill="#3F51B5"/>
<path d="M216.705 202.836C217.721 204.484 223.651 207.426 223.651 207.426C223.651 207.426 223.699 200.82 222.681 199.172C222.44 198.78 222.123 198.44 221.75 198.17C221.377 197.901 220.955 197.707 220.506 197.6C220.058 197.493 219.594 197.476 219.139 197.548C218.684 197.62 218.247 197.782 217.855 198.022C217.462 198.263 217.121 198.578 216.851 198.95C216.58 199.322 216.386 199.744 216.279 200.191C216.172 200.638 216.154 201.102 216.227 201.556C216.299 202.009 216.461 202.445 216.702 202.836H216.705Z" fill="#3F51B5"/>
<path opacity="0.1" d="M120.984 268.997C142.213 268.997 159.423 266.119 159.423 262.568C159.423 259.018 142.213 256.14 120.984 256.14C99.7549 256.14 82.5453 259.018 82.5453 262.568C82.5453 266.119 99.7549 268.997 120.984 268.997Z" fill="#3F51B5"/>
<path opacity="0.1" d="M196.642 219.65C217.871 219.65 235.081 216.772 235.081 213.222C235.081 209.672 217.871 206.794 196.642 206.794C175.413 206.794 158.204 209.672 158.204 213.222C158.204 216.772 175.413 219.65 196.642 219.65Z" fill="#3F51B5"/>
<path d="M199.193 128.383L199.158 129.638L196.972 206.571H193.299L195.1 129.638L195.135 128.189L199.193 128.383Z" fill="#B77B7F"/>
<path d="M220.459 193.557L217.708 193.55L176.825 193.463L174.645 193.46L175.806 189.892H220.168L220.459 193.557Z" fill="#DDA2A6"/>
<path opacity="0.1" d="M199.193 128.383L199.158 129.638H195.1L195.135 128.189L199.193 128.383Z" fill="black"/>
<path d="M200.742 126.502H193.929V129.06H200.742V126.502Z" fill="#B77B7F"/>
<path opacity="0.1" d="M177.187 189.892L176.825 193.463L174.645 193.46L175.806 189.892H177.187Z" fill="black"/>
<path d="M183.055 126.454L182.942 127.564L173.873 216.793L169.718 216.596L179.276 127.564L179.382 126.551L183.055 126.454Z" fill="#DDA2A6"/>
<path opacity="0.1" d="M220.459 193.557L217.708 193.55L217.336 189.892H220.168L220.459 193.557Z" fill="black"/>
<path d="M224.808 216.596L220.65 216.793L211.584 127.564L211.471 126.454L215.14 126.551L215.247 127.564L224.808 216.596Z" fill="#DDA2A6"/>
<path d="M242.492 38.4797H150.87V126.115H242.492V38.4797Z" fill="white"/>
<path d="M198.469 9.16994V30.3322H194.896V9.16994C194.886 8.92953 194.924 8.68955 195.01 8.46442C195.095 8.23929 195.225 8.03368 195.392 7.85996C195.559 7.68623 195.759 7.54799 195.981 7.45355C196.203 7.35911 196.441 7.31042 196.683 7.31042C196.924 7.31042 197.162 7.35911 197.384 7.45355C197.606 7.54799 197.807 7.68623 197.973 7.85996C198.14 8.03368 198.27 8.23929 198.355 8.46442C198.441 8.68955 198.479 8.92953 198.469 9.16994Z" fill="#DDA2A6"/>
<path opacity="0.1" d="M198.469 28.4066H194.893V30.3322H198.469V28.4066Z" fill="black"/>
<path d="M199.872 29.8516V36.838H193.512V29.8516C193.512 29.7375 193.534 29.6245 193.578 29.5191C193.621 29.4136 193.685 29.3178 193.766 29.2371C193.847 29.1565 193.943 29.0926 194.049 29.0491C194.154 29.0057 194.268 28.9835 194.382 28.984H199.009C199.239 28.9857 199.458 29.0778 199.62 29.2404C199.782 29.4029 199.872 29.6226 199.872 29.8516Z" fill="#DDA2A6"/>
<path opacity="0.1" d="M196.681 34.7672C197.427 34.7672 198.033 34.1636 198.033 33.419C198.033 32.6744 197.427 32.0707 196.681 32.0707C195.935 32.0707 195.329 32.6744 195.329 33.419C195.329 34.1636 195.935 34.7672 196.681 34.7672Z" fill="black"/>
<path d="M196.681 34.4769C197.427 34.4769 198.033 33.8732 198.033 33.1286C198.033 32.384 197.427 31.7804 196.681 31.7804C195.935 31.7804 195.329 32.384 195.329 33.1286C195.329 33.8732 195.935 34.4769 196.681 34.4769Z" fill="#B77B7F"/>
<path opacity="0.1" d="M199.872 35.9735H193.493V36.8411H199.872V35.9735Z" fill="black"/>
<path opacity="0.1" d="M202.482 37.1315H190.883V39.0603H202.482V37.1315Z" fill="black"/>
<path d="M202.482 36.5509H190.883V38.4797H202.482V36.5509Z" fill="#DDA2A6"/>
<path opacity="0.1" d="M173.219 123.858H221.931C222.488 123.858 223.023 124.078 223.417 124.472C223.811 124.865 224.032 125.398 224.032 125.954V126.412H171.118V125.954C171.118 125.398 171.339 124.865 171.733 124.472C172.127 124.078 172.662 123.858 173.219 123.858Z" fill="black"/>
<path opacity="0.1" d="M179.382 126.551L183.055 126.454L182.942 127.564H179.276L179.382 126.551Z" fill="black"/>
<path opacity="0.1" d="M200.742 126.502H193.929V127.564H200.742V126.502Z" fill="black"/>
<path opacity="0.1" d="M215.247 127.564H211.584L211.471 126.454L215.14 126.551L215.247 127.564Z" fill="black"/>
<path d="M173.219 124.428H221.931C222.488 124.428 223.023 124.649 223.417 125.043C223.811 125.436 224.032 125.969 224.032 126.525V126.983H171.118V126.525C171.118 125.969 171.339 125.436 171.733 125.043C172.127 124.649 172.662 124.428 173.219 124.428Z" fill="#DDA2A6"/>
<path d="M162.54 83.7426C161.806 83.3555 153.809 77.3304 153.809 77.3304L140.905 69.1667C140.905 69.1667 140.837 68.9732 140.714 68.641C144.255 64.6317 143.482 58.813 139.88 54.7231C135.515 49.7624 115.791 39.0829 109.848 48.2174C109.017 49.5075 108.988 50.9719 108.771 52.3911C108.264 55.7037 106.628 58.913 104.06 61.6159C102.082 63.7028 99.4851 65.6252 98.3469 67.9862C98.3469 67.9572 98.3243 67.9281 98.3146 67.8959C98.0399 68.4019 97.8405 68.9452 97.7229 69.5086C97.1571 72.3889 99.0971 75.1499 100.129 77.9529C100.475 78.902 100.726 79.8831 100.879 80.8816C100.905 80.6816 100.927 80.4849 100.95 80.2849C101.201 81.7067 101.287 83.1527 101.205 84.5941C94.0433 86.0488 94.0401 98.27 94.0401 98.27C94.0401 98.27 93.1573 103.128 93.3061 104.879C93.4548 106.63 93.4516 110.417 93.4516 111.33C93.4516 112.243 92.5689 117.936 92.4816 118.619C92.4824 118.629 92.4824 118.639 92.4816 118.648C92.3522 119.397 91.0104 123.003 94.2535 123.809C94.4798 123.867 94.7191 123.916 94.9681 123.961C95.1071 126.88 95.3593 132.992 95.1362 134.353C95.1362 134.353 96.3164 142.565 97.2961 144.652C97.9156 145.876 98.6405 147.043 99.4625 148.142C99.3913 148.642 99.2221 149.123 98.9645 149.558C98.4634 150.277 98.722 150.868 99.5595 151.122C99.5304 151.371 99.498 151.651 99.4625 151.967C99.1036 155.135 98.5668 161.431 99.4786 164.621C100.73 168.995 100.804 170.453 100.804 170.453C100.804 170.453 100.804 171.762 101.322 172.491C101.839 173.22 102.793 180 102.793 181.093C102.793 182.187 105.296 192.024 104.558 194.356C103.821 196.688 104.413 199.969 104.413 199.969C104.413 199.969 103.97 205.726 103.443 206.965C102.916 208.203 102.706 228.172 103.514 233.346C104.322 238.519 104.84 242.819 104.84 242.819C104.84 242.819 104.325 247.557 104.765 248.212C105.205 248.867 106.017 252.805 105.428 253.021C104.84 253.237 104.545 254.843 104.545 254.843C104.857 255.315 105.192 255.771 105.551 256.208C105.324 256.129 105.103 256.035 104.888 255.927C105.121 256.25 105.47 256.708 105.9 257.217L105.496 262.459C105.479 262.663 105.534 262.867 105.653 263.035C105.771 263.203 105.944 263.324 106.143 263.378C107.434 263.728 108.796 263.722 110.084 263.361C111.372 263 112.538 262.297 113.457 261.327C117.136 257.611 118.388 258.121 119.05 255.863C119.122 255.621 119.183 255.382 119.235 255.156C119.71 253.144 117.56 251.647 115.849 252.505C116.085 250.912 116.27 249.102 116.092 248.08C115.723 245.967 115.798 240.429 115.798 240.429L115.283 213.899C115.283 213.899 116.237 208.652 117.343 206.613C118.449 204.575 118.313 197.43 118.313 197.43L119.564 173.962L120.741 162.521C120.741 162.521 121.918 158.586 123.39 162.96C123.39 162.96 122.581 171.775 122.95 173.891C123.318 176.007 123.833 186.28 123.464 188.538C123.095 190.796 121.479 203.188 122.494 206.32C123.509 209.452 124.641 213.248 124.415 214.49C124.188 215.732 123.445 242.619 123.445 242.619C123.445 242.619 125.433 247.78 123.962 249.47C122.491 251.16 123.888 257.856 123.888 257.856C123.888 257.856 124.065 257.982 124.369 258.156L124.327 258.714L123.865 264.742C123.848 264.947 123.904 265.151 124.022 265.32C124.14 265.488 124.313 265.61 124.512 265.665C125.803 266.015 127.165 266.01 128.453 265.648C129.741 265.287 130.907 264.584 131.826 263.613C135.505 259.895 136.756 260.407 137.419 258.146C137.49 257.904 137.552 257.669 137.607 257.44C138.124 255.243 135.505 253.65 133.753 255.085L133.665 255.16C133.574 255.237 133.478 255.309 133.378 255.376C133.331 255.41 133.282 255.441 133.232 255.469C133.601 253.805 134.137 250.954 133.879 249.618C133.51 247.651 134.244 241.677 134.244 241.677C134.244 241.677 136.378 234.533 136.453 231.678L137.041 208.942C137.041 208.942 136.97 199.685 137.264 197.427C137.558 195.169 139.912 175.636 142.266 169.804C144.074 165.34 144.882 153.948 144.403 148.171C144.378 147.887 144.352 147.613 144.319 147.358C147.207 145.233 147.495 141.698 147.495 141.698C147.495 141.698 144.843 136.647 142.292 134.508C139.741 132.37 139.191 128.693 139.282 127.128C139.325 126.175 139.01 125.24 138.399 124.506C138.399 124.506 137.222 120.716 136.436 120.329C136.372 120.296 136.314 120.253 136.265 120.2C135.731 119.629 136.142 117.997 136.142 117.997V117.945C136.236 117.568 136.789 115.123 136.624 114.497C136.427 113.82 136.721 110.611 136.721 110.611C136.721 110.611 138.587 105.073 138.292 100.699C137.998 96.3251 142.121 96.7154 142.121 96.7154L154.851 96.5831H156.299C156.81 96.1504 157.277 95.6686 157.693 95.1446C160.118 94.8575 165.023 93.9447 165.573 91.274C166.319 87.7292 163.277 84.1328 162.54 83.7426ZM103.562 124.177L103.65 121.955C103.95 122.213 104.151 122.377 104.151 122.377C104.313 122.959 104.321 123.572 104.174 124.158C104.095 124.432 103.954 124.686 103.763 124.899C103.573 125.113 103.336 125.28 103.071 125.39C103.009 125.416 102.95 125.448 102.893 125.483L102.77 124.229L103.562 124.177ZM149.735 85.1489C149.195 84.9069 147.378 84.9553 146.444 84.9553C145.509 84.9553 143.993 84.178 143.993 84.178C143.669 83.549 141.881 83.1749 140.291 82.962C139.081 79.9881 137.381 77.0884 137.151 73.9888C137.151 73.8759 137.151 73.763 137.135 73.6501L137.319 73.9726C137.319 73.9726 144.73 78.6883 145.564 80.101C146.211 81.1783 149.325 83.5845 150.767 84.6618C150.568 84.9202 150.29 85.1062 149.975 85.1908C149.892 85.1997 149.809 85.1851 149.735 85.1489Z" fill="url(#paint0_linear_2512_120220)"/>
<path d="M137.497 257.459C137.442 257.685 137.384 257.921 137.313 258.159C136.666 260.417 135.428 259.895 131.816 263.581C130.916 264.544 129.769 265.242 128.5 265.601C127.231 265.961 125.888 265.967 124.615 265.62C124.416 265.567 124.243 265.447 124.124 265.279C124.006 265.112 123.951 264.908 123.968 264.704L124.424 258.724L124.641 255.847C124.641 255.847 130.409 257.459 133.345 255.411C133.444 255.344 133.539 255.272 133.63 255.195C133.652 255.175 133.674 255.153 133.694 255.131C134.073 254.818 134.541 254.631 135.032 254.596C135.522 254.562 136.012 254.681 136.431 254.938C136.85 255.195 137.178 255.576 137.369 256.028C137.561 256.48 137.605 256.981 137.497 257.459Z" fill="#67647E"/>
<path d="M119.39 255.201C119.335 255.427 119.277 255.663 119.206 255.901C118.559 258.159 117.321 257.637 113.709 261.323C112.809 262.286 111.662 262.984 110.393 263.344C109.124 263.703 107.781 263.709 106.508 263.362C106.309 263.31 106.136 263.189 106.017 263.021C105.899 262.854 105.844 262.65 105.861 262.446L106.317 256.466L106.534 253.589C106.534 253.589 112.302 255.201 115.238 253.153C115.337 253.086 115.432 253.014 115.523 252.937C115.545 252.917 115.567 252.895 115.587 252.873C115.966 252.56 116.434 252.373 116.925 252.338C117.415 252.304 117.905 252.423 118.324 252.68C118.743 252.937 119.071 253.318 119.262 253.77C119.454 254.222 119.498 254.723 119.39 255.201Z" fill="#67647E"/>
<path opacity="0.1" d="M113.431 256.098L113.664 259.207C110.353 262.507 106.411 257.595 105.257 255.982C108.293 257.543 113.431 256.098 113.431 256.098Z" fill="black"/>
<path opacity="0.1" d="M132.893 257.362L133.326 257.075C130.303 261.662 125.811 259.546 124.411 258.724L124.628 255.847C124.628 255.847 130.396 257.459 133.332 255.411C133.103 256.534 132.893 257.362 132.893 257.362Z" fill="black"/>
<path d="M142.101 170.524C139.78 176.307 137.461 195.682 137.17 197.94C136.879 200.198 136.954 209.365 136.954 209.365L136.372 231.907C136.297 234.73 134.196 241.816 134.196 241.816C134.196 241.816 133.471 247.744 133.833 249.696C134.196 251.647 132.893 256.792 132.893 256.792L133.326 256.501C129.701 261.985 123.975 257.875 123.975 257.875C123.975 257.875 122.597 251.225 124.049 249.56C125.501 247.896 123.542 242.764 123.542 242.764C123.542 242.764 124.266 216.083 124.482 214.854C124.699 213.625 123.613 209.864 122.597 206.755C121.582 203.646 123.179 191.354 123.542 189.112C123.904 186.87 123.396 176.675 123.034 174.578C122.672 172.481 123.467 163.731 123.467 163.731C122.019 159.392 120.858 163.299 120.858 163.299L119.697 174.649L118.465 197.933C118.465 197.933 118.611 205.03 117.524 207.045C116.438 209.061 115.494 214.274 115.494 214.274L116.001 240.597C116.001 240.597 115.93 246.08 116.292 248.186C116.654 250.292 115.494 255.708 115.494 255.708C111.436 265.246 104.917 254.905 104.917 254.905C104.917 254.905 105.208 253.315 105.787 253.099C106.366 252.882 105.57 248.976 105.14 248.325C104.71 247.673 105.211 242.974 105.211 242.974C105.211 242.974 104.704 238.71 103.918 233.575C103.132 228.44 103.339 208.629 103.847 207.4C104.355 206.171 104.788 200.459 104.788 200.459C104.788 200.459 104.209 197.205 104.933 194.889C105.658 192.573 103.194 182.816 103.194 181.729C103.194 180.642 102.253 173.92 101.745 173.197C101.238 172.475 101.238 171.172 101.238 171.172C101.238 171.172 101.166 169.727 99.9442 165.389C99.0454 162.221 99.5756 155.977 99.9281 152.832C100.054 151.668 100.164 150.926 100.164 150.926C100.164 150.926 141.736 144.201 143.395 145.72C143.783 146.078 144.041 147.307 144.193 149.058C144.688 154.787 143.873 166.108 142.101 170.524Z" fill="#444053"/>
<path opacity="0.1" d="M126.368 203.036C126.562 203.036 131.153 203.423 132.834 203.085C134.516 202.746 126.368 203.036 126.368 203.036Z" fill="black"/>
<path opacity="0.1" d="M126.707 205.736C126.707 205.736 133.048 206.845 133.371 206.268C133.694 205.691 126.707 205.736 126.707 205.736Z" fill="black"/>
<path opacity="0.1" d="M107.329 204.578C107.329 204.578 110.614 204.723 112.402 205.546C114.191 206.368 107.329 204.578 107.329 204.578Z" fill="black"/>
<path d="M95.3916 123.5C95.3916 123.5 95.9219 133.573 95.6341 135.356C95.6341 135.356 96.7917 143.504 97.7585 145.575C98.7252 147.645 100.804 150.252 100.804 150.252L103.656 130.254L102.977 123.403L95.3916 123.5Z" fill="#EFB7B9"/>
<path d="M125.352 77.6077C131.517 77.6077 136.514 72.6228 136.514 66.4735C136.514 60.3242 131.517 55.3392 125.352 55.3392C119.188 55.3392 114.191 60.3242 114.191 66.4735C114.191 72.6228 119.188 77.6077 125.352 77.6077Z" fill="#EFB7B9"/>
<path d="M119.555 71.6761C119.555 71.6761 116.076 78.4754 112.597 81.6557C109.117 84.836 133.471 88.4517 134.05 88.4517C134.629 88.4517 129.701 73.992 130.571 72.247C131.441 70.5021 119.555 71.6761 119.555 71.6761Z" fill="#EFB7B9"/>
<path opacity="0.1" d="M144.2 149.058C143.653 149.474 143.05 149.811 142.408 150.058C137.966 151.793 133.132 154.203 129.847 153.242C126.562 152.28 119.603 153.242 119.603 153.242C119.603 153.242 105.587 152.084 102.79 152.758C101.516 153.064 100.526 153.051 99.8796 152.832C100.006 151.668 100.116 150.926 100.116 150.926C100.116 150.926 141.736 144.201 143.395 145.72C143.789 146.078 144.041 147.307 144.2 149.058Z" fill="black"/>
<path d="M147.242 142.633C147.242 142.633 146.858 147.455 142.408 149.19C137.959 150.926 133.132 153.335 129.847 152.374C126.562 151.413 119.603 152.374 119.603 152.374C119.603 152.374 105.587 151.216 102.79 151.89C99.9927 152.564 98.5345 151.7 99.4043 150.445C100.274 149.19 100.18 145.046 100.18 143.31C100.18 141.575 99.2103 134.537 100.08 133.282C100.95 132.028 101.723 127.209 103.462 126.435C103.723 126.325 103.957 126.158 104.145 125.947C104.333 125.735 104.471 125.484 104.549 125.212C104.692 124.632 104.685 124.024 104.526 123.448C104.526 123.448 104.232 123.206 103.828 122.848C102.803 121.935 101.069 120.242 101.626 119.687C102.398 118.913 101.626 113.901 101.626 113.901C101.626 113.901 99.789 110.046 100.468 108.601C101.147 107.156 94.5703 99.5376 94.5703 99.5376C94.5703 99.5376 94.5703 86.4294 102.495 85.8488C102.495 85.8488 108.102 86.0423 108.778 83.5361C109.454 81.03 113.9 79.5817 113.9 79.5817L124.049 81.8008C124.049 81.8008 133.035 83.7361 134.681 82.5717C136.326 81.4073 137.591 84.1135 137.591 84.1135C137.591 84.1135 143.194 84.4038 143.773 85.5617C144.352 86.7197 141.94 97.9959 141.94 97.9959C141.94 97.9959 137.878 97.612 138.169 101.95C138.46 106.289 136.604 111.785 136.604 111.785C136.604 111.785 136.313 114.965 136.507 115.639C136.689 116.262 136.126 118.687 136.035 119.061V119.11C136.035 119.11 135.631 120.722 136.155 121.297C136.204 121.349 136.26 121.392 136.323 121.426C137.099 121.809 138.263 125.57 138.263 125.57C138.867 126.3 139.177 127.228 139.133 128.173C139.039 129.718 139.618 133.379 142.13 135.501C144.643 137.624 147.242 142.633 147.242 142.633Z" fill="#A36468"/>
<path d="M104.138 120.306V120.716L103.963 125.232C103.963 125.232 98.0171 125.712 94.7805 124.909C91.5439 124.106 92.9051 120.523 93.0345 119.781C93.0357 119.771 93.0357 119.761 93.0345 119.752C93.1283 119.074 94.0045 113.436 94.0045 112.52C94.0045 111.604 94.0045 107.843 93.859 106.108C93.7135 104.373 94.5703 99.5377 94.5703 99.5377L95.1976 98.77L102.007 101.373L104.138 120.306Z" fill="#A36468"/>
<path opacity="0.1" d="M104.122 120.726L103.947 125.241C103.947 125.241 98.001 125.722 94.7644 124.919C91.5277 124.116 92.889 120.532 93.0183 119.79L104.122 120.726Z" fill="black"/>
<path opacity="0.1" d="M104.549 125.216C104.692 124.635 104.685 124.028 104.526 123.451C104.526 123.451 104.232 123.209 103.828 122.851C108.946 122.138 129.216 119.365 136.042 119.061V119.11C136.042 119.11 135.638 120.722 136.161 121.297L104.549 125.216Z" fill="black"/>
<path opacity="0.1" d="M136.805 128.693C136.805 128.693 138.063 135.789 133.374 138.285C133.371 138.298 136.032 134.779 136.805 128.693Z" fill="black"/>
<path opacity="0.1" d="M106.12 138.488C106.12 138.488 117.437 136.553 119.652 138.056C121.867 139.559 106.12 138.488 106.12 138.488Z" fill="black"/>
<path opacity="0.1" d="M132.893 94.5737C132.893 94.5737 131.153 101.708 132.456 103.347C133.759 104.985 132.893 94.5737 132.893 94.5737Z" fill="black"/>
<path opacity="0.1" d="M100.129 88.7421C100.129 88.7421 101.723 91.3934 100.756 94.1415C99.789 96.8896 100.129 88.7421 100.129 88.7421Z" fill="black"/>
<path opacity="0.1" d="M96.8337 111.978C96.8337 111.978 98.8643 113.181 98.1885 115.062C97.5127 116.942 96.8337 111.978 96.8337 111.978Z" fill="black"/>
<path opacity="0.1" d="M96.6494 106.482C96.6494 106.482 98.5312 107.495 98.7737 108.988C99.0162 110.482 96.6494 106.482 96.6494 106.482Z" fill="black"/>
<path opacity="0.1" d="M124.579 164.134C124.579 164.134 136.42 165.34 138.787 162.544C138.787 162.56 128.107 164.666 124.579 164.134Z" fill="black"/>
<path opacity="0.1" d="M104.138 163.46C104.138 163.46 116.848 166.45 119.361 164.085C119.361 164.085 108.438 164.905 104.138 163.46Z" fill="black"/>
<path opacity="0.1" d="M125.498 168.043C125.498 168.043 130.813 168.043 133.277 168.188C135.741 168.333 125.498 168.043 125.498 168.043Z" fill="black"/>
<path opacity="0.1" d="M105.008 170.301C105.008 170.301 107.617 173.243 110.566 172.714C113.515 172.185 105.008 170.301 105.008 170.301Z" fill="black"/>
<path d="M110.133 49.8785C109.315 51.1461 109.286 52.6137 109.072 54.02C108.574 57.3067 106.961 60.4903 104.435 63.1738C102.117 65.6316 98.9387 67.8604 98.3372 70.8633C97.7682 73.7146 99.6985 76.4595 100.711 79.2495C103.378 86.5681 99.6532 94.2447 98.5668 101.799C98.2661 103.886 98.6282 106.553 101.205 107.246C102.01 107.466 102.932 107.437 103.656 107.785C104.626 108.25 104.924 109.214 105.102 110.082C105.75 113.185 105.974 116.362 105.768 119.526C105.651 121.3 105.522 123.342 107.203 124.561C107.966 125.119 108.995 125.403 109.987 125.67C112.635 126.383 116.059 126.96 117.844 125.286C118.594 124.587 118.876 123.6 119.81 123.045C121.21 122.216 123.196 122.777 124.958 122.864C128.576 123.045 131.9 120.929 133.326 118.378C134.752 115.826 134.619 112.894 134.102 110.143C133.585 107.392 132.66 104.66 132.595 101.866C132.572 100.899 132.66 99.915 133.216 99.0571C134.293 97.3959 136.799 96.6412 138.512 95.3349C141.723 92.8835 141.713 88.8678 140.546 85.5069C139.379 82.146 137.284 78.9237 137.025 75.4499C136.909 74.6102 137.077 73.7559 137.5 73.0212C137.959 72.3148 138.761 71.7858 139.44 71.202C144.125 67.254 143.572 60.7709 139.699 56.3326C135.411 51.4138 115.985 40.8182 110.133 49.8785Z" fill="#E3787D"/>
<g opacity="0.1">
<path opacity="0.1" d="M101.305 82.2879C101.671 79.356 101.603 76.4498 100.565 73.5953C100.054 72.1955 99.3137 70.8053 98.7738 69.4022C98.504 69.9095 98.3081 70.4525 98.1918 71.015C97.6227 73.8663 99.553 76.6111 100.565 79.4011C100.906 80.337 101.154 81.3039 101.305 82.2879Z" fill="black"/>
<path opacity="0.1" d="M105.622 113.872C105.828 110.708 105.605 107.531 104.959 104.427C104.778 103.56 104.481 102.599 103.511 102.134C102.786 101.786 101.865 101.812 101.06 101.596C100.565 101.477 100.104 101.248 99.7118 100.925C99.3195 100.602 99.0064 100.193 98.7964 99.7312C98.6477 100.467 98.5183 101.199 98.4116 101.934C98.1109 104.021 98.473 106.689 101.05 107.382C101.855 107.598 102.777 107.569 103.501 107.917C104.471 108.382 104.768 109.346 104.95 110.214C105.246 111.653 105.453 113.11 105.57 114.575C105.593 114.336 105.606 114.104 105.622 113.872Z" fill="black"/>
<path opacity="0.1" d="M133.184 112.727C131.754 115.288 128.43 117.394 124.812 117.213C123.05 117.123 121.065 116.568 119.668 117.394C118.733 117.945 118.449 118.936 117.699 119.636C115.914 121.297 112.49 120.732 109.842 120.019C108.849 119.748 107.824 119.468 107.058 118.91C106.327 118.374 105.835 117.576 105.684 116.684C105.703 117.674 105.684 118.668 105.622 119.658C105.506 121.432 105.376 123.474 107.058 124.696C107.824 125.251 108.849 125.535 109.842 125.803C112.49 126.515 115.914 127.093 117.699 125.419C118.449 124.719 118.733 123.732 119.668 123.161C121.065 122.332 123.05 122.893 124.812 122.98C128.43 123.161 131.754 121.045 133.184 118.494C134.554 116.029 134.493 113.243 134.015 110.582C133.834 111.33 133.555 112.052 133.184 112.727Z" fill="black"/>
<path opacity="0.1" d="M139.308 65.5639C138.616 66.1445 137.814 66.6767 137.368 67.3831C136.944 68.1179 136.777 68.9721 136.892 69.8119C136.986 70.8673 137.21 71.9073 137.558 72.9083C138.097 72.3354 138.687 71.8129 139.321 71.3472C142.489 68.6797 143.259 64.8511 142.231 61.2773C141.688 62.956 140.673 64.4439 139.308 65.5639Z" fill="black"/>
<path opacity="0.1" d="M138.367 89.6807C136.656 90.987 134.147 91.745 133.074 93.4061C132.514 94.2641 132.427 95.2543 132.45 96.2122C132.489 97.3403 132.628 98.4627 132.863 99.5667C132.925 99.4362 132.995 99.3101 133.074 99.1893C134.147 97.5282 136.656 96.7735 138.367 95.4672C141.299 93.2287 141.545 89.6871 140.679 86.5294C140.239 87.7856 139.434 88.8827 138.367 89.6807Z" fill="black"/>
</g>
<path d="M155.94 96.5509C155.94 96.5509 164.302 96.1187 165.026 92.5997C165.75 89.0807 162.763 85.5037 162.032 85.1263C161.301 84.7489 153.418 78.7625 153.418 78.7625L140.711 70.6666C140.711 70.6666 134.622 53.2491 133.274 59.9161C131.926 66.5831 137.19 75.437 137.19 75.437C137.19 75.437 144.484 80.1139 145.306 81.5106C146.127 82.9072 151.155 86.5713 151.155 86.5713L155.94 96.5509Z" fill="#EFB7B9"/>
<path d="M160.435 90.8612C158.456 95.8767 155.892 97.854 155.892 97.854H154.466L141.93 97.983L140.485 94.0447L142.515 85.5101L143.77 85.5617C143.77 85.5617 145.27 86.3326 146.185 86.3326C147.1 86.3326 148.895 86.2842 149.418 86.5229C149.492 86.5586 149.574 86.571 149.654 86.5584C150.13 86.51 150.624 85.8004 150.624 85.8004C150.624 85.8004 162.417 85.8488 160.435 90.8612Z" fill="#A36468"/>
<path opacity="0.1" d="M160.435 90.8612C158.456 95.8768 155.892 97.854 155.892 97.854H154.466C155.209 95.8671 156.778 91.7901 157.376 90.8483C157.961 89.9581 152.71 87.7422 149.638 86.5455C150.114 86.4971 150.608 85.7875 150.608 85.7875C150.608 85.7875 162.417 85.8488 160.435 90.8612Z" fill="black"/>
<path opacity="0.1" d="M29.3657 248.934C37.2552 248.934 43.6508 247.687 43.6508 246.148C43.6508 244.609 37.2552 243.361 29.3657 243.361C21.4762 243.361 15.0806 244.609 15.0806 246.148C15.0806 247.687 21.4762 248.934 29.3657 248.934Z" fill="#3F51B5"/>
<path opacity="0.1" d="M267.492 229.795C273.239 229.795 277.897 228.886 277.897 227.766C277.897 226.645 273.239 225.737 267.492 225.737C261.746 225.737 257.087 226.645 257.087 227.766C257.087 228.886 261.746 229.795 267.492 229.795Z" fill="#3F51B5"/>
<path opacity="0.1" d="M312.595 238.016C318.341 238.016 323 237.108 323 235.987C323 234.867 318.341 233.959 312.595 233.959C306.848 233.959 302.19 234.867 302.19 235.987C302.19 237.108 306.848 238.016 312.595 238.016Z" fill="#3F51B5"/>
<path opacity="0.1" d="M242.757 254.95C248.503 254.95 253.162 254.042 253.162 252.921C253.162 251.801 248.503 250.892 242.757 250.892C237.01 250.892 232.352 251.801 232.352 252.921C232.352 254.042 237.01 254.95 242.757 254.95Z" fill="#3F51B5"/>
<path d="M42.8651 168.788C42.8651 168.788 45.2061 171.843 41.7852 176.449C38.3642 181.055 35.548 184.945 36.6926 187.818C36.6926 187.818 41.8498 179.261 46.05 179.142C50.2502 179.023 47.4856 173.936 42.8651 168.788Z" fill="#3F51B5"/>
<path opacity="0.1" d="M42.8651 168.788C43.0699 169.086 43.2311 169.412 43.3437 169.756C47.4404 174.559 49.6229 179.039 45.6846 179.152C42.018 179.255 37.6173 185.799 36.5632 187.451C36.597 187.579 36.6391 187.705 36.6893 187.828C36.6893 187.828 41.8466 179.271 46.0468 179.152C50.247 179.032 47.4856 173.936 42.8651 168.788Z" fill="black"/>
<path d="M47.214 172.678C47.214 173.752 47.0944 174.613 46.9457 174.613C46.7969 174.613 46.6741 173.742 46.6741 172.678C46.6741 171.614 46.826 172.11 46.9748 172.11C47.1235 172.11 47.214 171.591 47.214 172.678Z" fill="#FFD037"/>
<path d="M48.7079 173.962C47.7637 174.475 46.9392 174.788 46.8681 174.655C46.7969 174.523 47.5147 174.01 48.4492 173.488C49.3836 172.965 49.0215 173.349 49.0959 173.488C49.1702 173.626 49.652 173.446 48.7079 173.962Z" fill="#FFD037"/>
<path d="M30.5103 168.788C30.5103 168.788 28.1694 171.843 31.5903 176.449C35.0112 181.055 37.8275 184.945 36.6926 187.818C36.6926 187.818 31.5192 179.261 27.3157 179.142C23.1123 179.023 25.8898 173.936 30.5103 168.788Z" fill="#3F51B5"/>
<path opacity="0.1" d="M30.5103 168.788C30.3055 169.086 30.1444 169.412 30.0318 169.756C25.935 174.559 23.7525 179.039 27.6908 179.152C31.3575 179.255 35.7743 185.799 36.8122 187.451C36.7781 187.579 36.7371 187.705 36.6893 187.828C36.6893 187.828 31.5159 179.271 27.3125 179.152C23.1091 179.032 25.8898 173.936 30.5103 168.788Z" fill="black"/>
<path d="M26.1614 172.678C26.1614 173.752 26.281 174.613 26.4298 174.613C26.5785 174.613 26.7014 173.742 26.7014 172.678C26.7014 171.614 26.5494 172.11 26.4007 172.11C26.2519 172.11 26.1614 171.591 26.1614 172.678Z" fill="#FFD037"/>
<path d="M24.6676 173.962C25.615 174.475 26.4363 174.788 26.5106 174.655C26.585 174.523 25.8639 174.01 24.9263 173.488C23.9886 172.965 24.3539 173.349 24.2796 173.488C24.2052 173.626 23.7234 173.446 24.6676 173.962Z" fill="#FFD037"/>
<path opacity="0.1" d="M36.6861 211.164C50.1953 211.164 61.1467 209.488 61.1467 207.42C61.1467 205.351 50.1953 203.675 36.6861 203.675C23.1769 203.675 12.2255 205.351 12.2255 207.42C12.2255 209.488 23.1769 211.164 36.6861 211.164Z" fill="#3F51B5"/>
<path d="M49.2769 183.706L49.1605 184.674L48.9956 186.019L48.9277 186.58L48.7628 187.928L48.6917 188.489L48.5268 189.834L46.6579 205.136C46.4898 206.504 44.2522 207.568 41.5491 207.568H31.8425C29.1394 207.568 26.9051 206.504 26.7369 205.136L24.8648 189.831L24.6999 188.486L24.632 187.925L24.4639 186.577L24.396 186.015L24.2311 184.67L24.1147 183.703C24.0209 182.929 25.2302 182.277 26.7596 182.277H46.6514C48.1614 182.28 49.3739 182.932 49.2769 183.706Z" fill="#65617D"/>
<path d="M49.1573 184.657L48.9956 186.006H24.3766L24.2149 184.657H49.1573Z" fill="#E8EAF6"/>
<path d="M48.9245 186.567L48.7628 187.912H24.6126L24.4477 186.567H48.9245Z" fill="#E8EAF6"/>
<path d="M48.6917 188.473L48.5268 189.818H24.8454L24.6805 188.473H48.6917Z" fill="#E8EAF6"/>
<path opacity="0.1" d="M58.1979 50.3236C63.823 50.3236 68.3831 45.7747 68.3831 40.1634C68.3831 34.552 63.823 30.0032 58.1979 30.0032C52.5728 30.0032 48.0127 34.552 48.0127 40.1634C48.0127 45.7747 52.5728 50.3236 58.1979 50.3236Z" fill="#3F51B5"/>
<path opacity="0.1" d="M36.8575 22.2621C40.3397 22.2621 43.1626 19.4461 43.1626 15.9724C43.1626 12.4988 40.3397 9.6828 36.8575 9.6828C33.3753 9.6828 30.5524 12.4988 30.5524 15.9724C30.5524 19.4461 33.3753 22.2621 36.8575 22.2621Z" fill="#3F51B5"/>
<path opacity="0.1" d="M3.88007 33.8737C6.02298 33.8737 7.76015 32.1408 7.76015 30.0032C7.76015 27.8655 6.02298 26.1326 3.88007 26.1326C1.73717 26.1326 0 27.8655 0 30.0032C0 32.1408 1.73717 33.8737 3.88007 33.8737Z" fill="#3F51B5"/>
</g>
<defs>
<linearGradient id="paint0_linear_2512_120220" x1="128.89" y1="265.91" x2="128.89" y2="44.6436" gradientUnits="userSpaceOnUse">
<stop stop-color="#808080" stop-opacity="0.25"/>
<stop offset="0.54" stop-color="#808080" stop-opacity="0.12"/>
<stop offset="1" stop-color="#808080" stop-opacity="0.1"/>
</linearGradient>
<clipPath id="clip0_2512_120220">
<rect width="323" height="269" fill="white"/>
</clipPath>
</defs>
</svg>
