<svg width="432" height="269" viewBox="0 0 432 269" fill="none" xmlns="http://www.w3.org/2000/svg">
<g clip-path="url(#clip0_6181_158643)">
<path d="M112.903 163.94C158.293 163.94 195.089 127.241 195.089 81.97C195.089 36.6992 158.293 0 112.903 0C67.5129 0 30.717 36.6992 30.717 81.97C30.717 127.241 67.5129 163.94 112.903 163.94Z" fill="#F2F2F2"/>
<path d="M0 19.6814C0 49.5053 18.7592 73.6385 41.9421 73.6385Z" fill="#2F2E41"/>
<path d="M41.942 73.6385C41.942 43.4794 62.8763 19.0751 88.747 19.0751Z" fill="#3F51B5"/>
<path d="M15.1964 22.385C15.1964 50.7146 27.1588 73.6385 41.9421 73.6385Z" fill="#3F51B5"/>
<path d="M41.942 73.6385C41.942 35.1019 66.1387 3.91864 96.0412 3.91864Z" fill="#2F2E41"/>
<path d="M33.1185 74.0189C33.1185 74.0189 39.0666 73.8362 40.8592 72.5631C42.6518 71.2899 50.0088 69.7697 50.4535 71.8116C50.8982 73.8534 59.3924 81.9667 52.677 82.0207C45.9617 82.0748 37.0736 80.9774 35.2844 79.8905C33.4953 78.8035 33.1185 74.0189 33.1185 74.0189Z" fill="#A8A8A8"/>
<path opacity="0.2" d="M52.7969 81.3099C46.0815 81.364 37.1934 80.2667 35.4043 79.1797C34.0417 78.3519 33.4988 75.3816 33.3171 74.0112C33.1913 74.0166 33.1185 74.0189 33.1185 74.0189C33.1185 74.0189 33.4953 78.8034 35.2844 79.8904C37.0736 80.9774 45.9617 82.0747 52.677 82.0207C54.6155 82.0051 55.2851 81.3172 55.2483 80.2984C54.979 80.914 54.2397 81.2983 52.7969 81.3099Z" fill="black"/>
<path d="M76.6331 173.153C116.483 173.153 148.787 168.77 148.787 163.363C148.787 157.956 116.483 153.572 76.6331 153.572C36.7837 153.572 4.47937 157.956 4.47937 163.363C4.47937 168.77 36.7837 173.153 76.6331 173.153Z" fill="#3F3D56"/>
<path opacity="0.1" d="M76.6331 171.582C110.09 171.582 137.211 167.902 137.211 163.363C137.211 158.823 110.09 155.143 76.6331 155.143C43.1766 155.143 16.0548 158.823 16.0548 163.363C16.0548 167.902 43.1766 171.582 76.6331 171.582Z" fill="black"/>
<path d="M322.805 269C383.112 269 432 262.367 432 254.184C432 246.001 383.112 239.368 322.805 239.368C262.498 239.368 213.609 246.001 213.609 254.184C213.609 262.367 262.498 269 322.805 269Z" fill="#3F3D56"/>
<path d="M178.497 240.907C213.224 249.758 279.975 229.362 287.307 206.272" stroke="#2F2E41" stroke-width="2" stroke-miterlimit="10"/>
<path d="M119.462 99.6724C119.462 99.6724 169.623 85.8183 172.709 130.459C175.796 175.1 131.424 187.8 166.15 196.651" stroke="#2F2E41" stroke-width="2" stroke-miterlimit="10"/>
<path d="M153.152 208.104C153.152 208.104 168.475 211.242 163.21 223.617C157.946 235.993 144.331 233.336 152.423 240.447" stroke="#2F2E41" stroke-width="2" stroke-miterlimit="10"/>
<path d="M300.462 216.755L297.423 236.11C297.423 236.11 282.459 244.039 292.98 244.272C303.502 244.505 353.07 244.272 353.07 244.272C353.07 244.272 362.656 244.272 347.458 235.877L344.419 215.589L300.462 216.755Z" fill="#2F2E41"/>
<path opacity="0.1" d="M290.864 244.062C293.253 241.941 297.423 239.732 297.423 239.732L300.462 220.376L344.419 220.418L347.458 239.499C351.003 241.456 353.198 242.957 354.482 244.108C356.434 243.664 358.567 242.013 347.458 235.877L344.419 215.589L300.462 216.755L297.423 236.11C297.423 236.11 284.849 242.773 290.864 244.062Z" fill="black"/>
<path d="M414.263 81.8501H230.151C226.305 81.8501 223.188 84.9593 223.188 88.7947V212.492C223.188 216.327 226.305 219.436 230.151 219.436H414.263C418.108 219.436 421.226 216.327 421.226 212.492V88.7947C421.226 84.9593 418.108 81.8501 414.263 81.8501Z" fill="#2F2E41"/>
<path d="M414.562 89.1958H229.851V192.269H414.562V89.1958Z" fill="#3F3D56"/>
<path d="M322.207 87.097C322.852 87.097 323.376 86.575 323.376 85.9311C323.376 85.2871 322.852 84.7651 322.207 84.7651C321.561 84.7651 321.038 85.2871 321.038 85.9311C321.038 86.575 321.561 87.097 322.207 87.097Z" fill="#F2F2F2"/>
<path d="M421.226 200.431V212.492C421.226 213.404 421.046 214.307 420.696 215.15C420.346 215.992 419.833 216.758 419.187 217.403C418.54 218.048 417.772 218.559 416.928 218.908C416.083 219.257 415.177 219.437 414.263 219.436H230.151C229.236 219.437 228.331 219.257 227.486 218.908C226.641 218.559 225.873 218.048 225.227 217.403C224.58 216.758 224.067 215.992 223.718 215.15C223.368 214.307 223.188 213.404 223.188 212.492V200.431H421.226Z" fill="#2F2E41"/>
<path d="M373.879 256.865V259.197H248.089V257.331L248.262 256.865L251.362 248.469H371.307L373.879 256.865Z" fill="#2F2E41"/>
<path d="M422.288 254.582C422.058 255.559 421.193 256.59 419.239 257.564C412.224 261.062 397.962 256.631 397.962 256.631C397.962 256.631 386.973 254.766 386.973 249.869C387.281 249.658 387.603 249.467 387.936 249.297C390.885 247.741 400.663 243.902 418 249.46C419.278 249.86 420.419 250.606 421.296 251.614C421.999 252.434 422.549 253.475 422.288 254.582Z" fill="#2F2E41"/>
<path opacity="0.1" d="M422.287 254.582C413.702 257.863 406.049 258.108 398.195 252.667C394.235 249.925 390.636 249.246 387.936 249.297C390.885 247.741 400.663 243.901 418 249.46C419.278 249.86 420.418 250.605 421.296 251.614C421.998 252.434 422.549 253.475 422.287 254.582Z" fill="black"/>
<path d="M411.523 252.667C413.201 252.667 414.562 252.249 414.562 251.734C414.562 251.219 413.201 250.802 411.523 250.802C409.844 250.802 408.483 251.219 408.483 251.734C408.483 252.249 409.844 252.667 411.523 252.667Z" fill="#F2F2F2"/>
<path d="M322.207 214.423C324.66 214.423 326.649 212.439 326.649 209.992C326.649 207.545 324.66 205.561 322.207 205.561C319.753 205.561 317.764 207.545 317.764 209.992C317.764 212.439 319.753 214.423 322.207 214.423Z" fill="#F2F2F2"/>
<path opacity="0.1" d="M373.879 256.865V259.197H248.089V257.331L248.262 256.865H373.879Z" fill="black"/>
<path d="M122.163 61.1888H41.9067V154.319H122.163V61.1888Z" fill="#2F2E41"/>
<path d="M130.266 51.9528H33.804V85.0486H130.266V51.9528Z" fill="#3F3D56"/>
<path d="M130.266 91.206H33.804V124.302H130.266V91.206Z" fill="#3F3D56"/>
<path d="M130.266 130.459H33.804V163.555H130.266V130.459Z" fill="#3F3D56"/>
<path opacity="0.4" d="M110.974 57.7253H104.8V63.8827H110.974V57.7253Z" fill="#3F51B5"/>
<path opacity="0.8" d="M119.848 57.7253H113.675V63.8827H119.848V57.7253Z" fill="#3F51B5"/>
<path d="M128.723 57.7253H122.549V63.8827H128.723V57.7253Z" fill="#3F51B5"/>
<path opacity="0.4" d="M110.974 96.5937H104.8V102.751H110.974V96.5937Z" fill="#3F51B5"/>
<path opacity="0.8" d="M119.848 96.5937H113.675V102.751H119.848V96.5937Z" fill="#3F51B5"/>
<path d="M128.723 96.5937H122.549V102.751H128.723V96.5937Z" fill="#3F51B5"/>
<path opacity="0.4" d="M110.974 135.462H104.8V141.619H110.974V135.462Z" fill="#3F51B5"/>
<path opacity="0.8" d="M119.848 135.462H113.675V141.619H119.848V135.462Z" fill="#3F51B5"/>
<path d="M128.723 135.462H122.549V141.619H128.723V135.462Z" fill="#3F51B5"/>
<path fill-rule="evenodd" clip-rule="evenodd" d="M174.261 232.553C173.992 232.709 173.9 233.054 174.057 233.323L176.046 236.745C176.203 237.014 176.548 237.106 176.817 236.949C177.086 236.792 177.177 236.447 177.021 236.178L175.031 232.756C174.875 232.487 174.53 232.396 174.261 232.553ZM168.991 238.58C168.709 238.535 168.517 238.269 168.562 237.987C168.607 237.704 168.873 237.512 169.155 237.557L174.353 238.389C174.636 238.435 174.828 238.7 174.783 238.983C174.738 239.265 174.472 239.457 174.19 239.412L168.991 238.58ZM169.922 243.994C169.666 244.082 169.387 243.945 169.3 243.689C169.212 243.432 169.349 243.153 169.605 243.066L174.575 241.368C174.831 241.28 175.11 241.417 175.197 241.673C175.285 241.93 175.148 242.208 174.892 242.296L169.922 243.994Z" fill="#2F2E41" fill-opacity="0.2"/>
</g>
<defs>
<clipPath id="clip0_6181_158643">
<rect width="432" height="269" fill="white"/>
</clipPath>
</defs>
</svg>
