<svg width="351" height="269" viewBox="0 0 351 269" fill="none" xmlns="http://www.w3.org/2000/svg">
                <path opacity="0.1"
                      d="M160.838 237.53C241.396 237.53 306.702 232.473 306.702 226.234C306.702 219.995 241.396 214.937 160.838 214.937C80.2797 214.937 14.9742 219.995 14.9742 226.234C14.9742 232.473 80.2797 237.53 160.838 237.53Z"
                      fill="#3F51B5"/>
                <g opacity="0.1">
                    <path opacity="0.1"
                          d="M290.029 161.863C289.157 159.224 285.622 158.009 282.135 159.152C281.633 159.316 281.147 159.525 280.683 159.779C280.46 159.717 280.23 159.662 279.997 159.621C280.187 158.862 280.26 158.078 280.213 157.297C281.416 156.494 282.392 155.397 283.047 154.11C283.702 152.823 284.014 151.389 283.954 149.947C285.154 149.142 286.126 148.044 286.779 146.757C287.431 145.471 287.742 144.038 287.681 142.598C288.89 141.803 289.865 140.702 290.506 139.407C292.188 136.087 291.491 132.355 288.948 131.072C286.405 129.788 282.976 131.441 281.294 134.762C280.627 136.043 280.316 137.479 280.392 138.921C279.192 139.726 278.219 140.824 277.567 142.111C276.914 143.398 276.604 144.83 276.664 146.271C275.465 147.076 274.492 148.174 273.84 149.461C273.187 150.747 272.876 152.18 272.937 153.62C271.735 154.424 270.759 155.522 270.104 156.81C269.449 158.097 269.137 159.531 269.196 160.973C267.987 161.768 267.012 162.869 266.371 164.164C266.055 164.788 265.816 165.448 265.658 166.129C265.236 165.514 264.722 164.968 264.134 164.51C264.066 163.987 263.952 163.471 263.791 162.969C262.644 159.488 259.569 157.365 256.926 158.235C254.284 159.104 253.062 162.627 254.208 166.108C254.677 167.601 255.58 168.921 256.803 169.901C256.87 170.424 256.985 170.94 257.146 171.442C257.812 173.461 259.126 175.022 260.63 175.806C260.496 176.242 260.401 176.689 260.345 177.141C258.927 178.501 258.015 180.301 257.757 182.245C256.338 183.606 255.426 185.407 255.169 187.353C254.467 188.025 253.886 188.814 253.453 189.684C251.768 193.005 252.465 196.739 255.008 198.02C257.551 199.3 260.98 197.653 262.665 194.329C263.109 193.463 263.399 192.526 263.523 191.56C264.94 190.2 265.853 188.401 266.111 186.456C267.529 185.096 268.442 183.294 268.698 181.348C270.106 179.985 271.008 178.186 271.255 176.244C272.679 174.884 273.595 173.08 273.85 171.13C274.287 170.717 274.677 170.258 275.013 169.761C276.416 170.048 277.869 169.957 279.225 169.497C279.727 169.334 280.213 169.124 280.676 168.871C282.194 169.27 283.797 169.213 285.282 168.707C288.759 167.573 290.897 164.506 290.029 161.863Z"
                          fill="#3F3D56"/>
                    <g opacity="0.1">
                        <path opacity="0.1"
                              d="M283.875 151.457C283.515 151.81 283.119 152.126 282.695 152.398C282.748 153.375 282.619 154.354 282.314 155.284C282.584 154.912 282.825 154.519 283.034 154.11C283.46 153.278 283.744 152.382 283.875 151.457Z"
                              fill="black"/>
                        <path opacity="0.1"
                              d="M287.602 144.107C287.242 144.461 286.847 144.776 286.422 145.049C286.476 146.026 286.346 147.004 286.041 147.934C286.312 147.561 286.553 147.168 286.762 146.757C287.186 145.926 287.47 145.03 287.602 144.107Z"
                              fill="black"/>
                        <path opacity="0.1"
                              d="M279.149 141.372C279.118 140.868 279.137 140.362 279.207 139.862C278.541 140.518 277.987 141.277 277.567 142.112C277.36 142.523 277.185 142.95 277.045 143.388C277.613 142.59 278.327 141.906 279.149 141.372Z"
                              fill="black"/>
                        <path opacity="0.1"
                              d="M255.492 185.85C255.792 185.433 256.131 185.046 256.504 184.693C256.563 184.229 256.663 183.77 256.803 183.324C256.504 183.723 256.241 184.148 256.017 184.594C255.809 184.998 255.634 185.418 255.492 185.85Z"
                              fill="black"/>
                        <path opacity="0.1"
                              d="M258.08 180.749C258.379 180.332 258.718 179.945 259.092 179.592C259.148 179.14 259.243 178.693 259.377 178.257C259.092 178.646 258.839 179.057 258.622 179.486C258.41 179.893 258.228 180.315 258.08 180.749Z"
                              fill="black"/>
                        <path opacity="0.1"
                              d="M280.144 158.807C279.786 159.16 279.392 159.474 278.967 159.745C279.014 160.526 278.941 161.31 278.751 162.069C278.983 162.109 279.212 162.161 279.437 162.226C279.901 161.973 280.387 161.763 280.889 161.6C284.383 160.457 287.915 161.672 288.783 164.311C288.999 164.975 289.036 165.683 288.893 166.365C290.043 165.016 290.52 163.373 290.025 161.867C289.154 159.228 285.619 158.012 282.132 159.156C281.629 159.319 281.143 159.529 280.68 159.782C280.457 159.721 280.227 159.666 279.993 159.625C280.059 159.351 280.107 159.08 280.144 158.807Z"
                              fill="black"/>
                        <path opacity="0.1"
                              d="M254.215 188.414C253.917 188.814 253.654 189.239 253.429 189.684C253.22 190.097 253.044 190.525 252.901 190.964C253.207 190.545 253.552 190.156 253.93 189.8C253.983 189.331 254.078 188.867 254.215 188.414Z"
                              fill="black"/>
                        <path opacity="0.1"
                              d="M275.405 148.722C275.373 148.218 275.393 147.712 275.463 147.212C274.797 147.867 274.242 148.627 273.823 149.461C273.615 149.872 273.441 150.299 273.301 150.738C273.869 149.94 274.583 149.256 275.405 148.722Z"
                              fill="black"/>
                        <path opacity="0.1"
                              d="M270.02 178.695C269.952 179.205 269.837 179.707 269.677 180.195C269.945 179.821 270.185 179.427 270.394 179.017C270.619 178.577 270.806 178.119 270.953 177.648C270.672 178.023 270.36 178.373 270.02 178.695Z"
                              fill="black"/>
                        <path opacity="0.1"
                              d="M264.844 188.903C264.777 189.413 264.662 189.915 264.501 190.403C264.772 190.03 265.013 189.636 265.222 189.225C265.445 188.785 265.632 188.327 265.781 187.856C265.5 188.232 265.186 188.582 264.844 188.903Z"
                              fill="black"/>
                        <path opacity="0.1"
                              d="M267.432 183.796C267.365 184.305 267.25 184.807 267.089 185.295C267.362 184.929 267.608 184.542 267.823 184.138C268.048 183.699 268.235 183.24 268.383 182.769C268.095 183.137 267.777 183.481 267.432 183.796Z"
                              fill="black"/>
                        <path opacity="0.1"
                              d="M272.608 173.591C272.54 174.1 272.425 174.601 272.264 175.087C272.534 174.715 272.773 174.323 272.982 173.913C273.209 173.466 273.397 173 273.545 172.52C273.265 172.904 272.951 173.263 272.608 173.591Z"
                              fill="black"/>
                        <path opacity="0.1"
                              d="M255.663 160.682C258.313 159.816 261.388 161.935 262.528 165.417C262.688 165.92 262.803 166.437 262.871 166.961C263.459 167.419 263.973 167.965 264.395 168.58C264.553 167.898 264.792 167.237 265.108 166.612C265.229 166.379 265.359 166.156 265.493 165.927C265.103 165.389 264.641 164.908 264.12 164.496C264.053 163.973 263.938 163.458 263.777 162.956C262.631 159.474 259.555 157.352 256.913 158.221C255.403 158.714 254.359 160.073 253.954 161.792C254.419 161.281 255.007 160.899 255.663 160.682Z"
                              fill="black"/>
                        <path opacity="0.1"
                              d="M267.95 163.421C267.92 162.918 267.941 162.414 268.012 161.915C267.343 162.569 266.788 163.329 266.368 164.164C266.16 164.574 265.986 165 265.846 165.437C266.416 164.641 267.129 163.957 267.95 163.421Z"
                              fill="black"/>
                        <path opacity="0.1"
                              d="M271.677 156.068C271.647 155.565 271.668 155.06 271.739 154.562C271.07 155.214 270.514 155.973 270.095 156.807C269.888 157.219 269.714 157.646 269.574 158.084C270.142 157.286 270.855 156.602 271.677 156.068Z"
                              fill="black"/>
                        <path opacity="0.1"
                              d="M262.256 194.008C262.189 194.518 262.074 195.021 261.913 195.51C262.477 194.731 262.91 193.865 263.193 192.946C262.913 193.327 262.599 193.682 262.256 194.008Z"
                              fill="black"/>
                    </g>
                    <path opacity="0.1"
                          d="M295.115 127.898C296.325 127.105 297.3 126.003 297.94 124.708C299.625 121.387 298.928 117.653 296.385 116.369C293.842 115.085 290.413 116.739 288.728 120.063C288.061 121.347 287.75 122.787 287.829 124.232C286.629 125.037 285.657 126.135 285.004 127.422C284.352 128.709 284.041 130.141 284.102 131.582C282.891 132.374 281.916 133.476 281.277 134.772C281.07 135.179 280.897 135.601 280.759 136.035C281.655 134.741 282.954 133.779 284.455 133.297C284.626 133.824 284.9 134.312 285.261 134.733C285.623 135.154 286.064 135.499 286.56 135.749C287.056 135.999 287.597 136.148 288.151 136.187C288.705 136.227 289.262 136.157 289.789 135.981C290.295 137.469 290.295 139.083 289.789 140.571C290.057 140.202 290.295 139.813 290.503 139.407C291.168 138.125 291.479 136.69 291.402 135.248C292.603 134.445 293.576 133.346 294.229 132.059C294.882 130.772 295.192 129.339 295.129 127.898H295.115Z"
                          fill="#3F3D56"/>
                    <path opacity="0.1"
                          d="M336.081 80.7811C337.115 80.2996 338.115 79.7472 339.073 79.1277L327.978 71.0421L341.019 77.7413C343.658 75.6508 345.841 73.0451 347.434 70.0837C349.027 67.1223 349.998 63.8677 350.286 60.5191L328.122 60.745L350.334 57.0411C350.105 53.6892 349.19 50.4196 347.647 47.433C346.105 44.4464 343.966 41.8059 341.363 39.6737C338.76 37.5416 335.747 35.9628 332.51 35.0343C329.273 34.1058 325.879 33.8472 322.538 34.2745C319.197 34.7017 315.979 35.8057 313.081 37.5187C310.184 39.2318 307.668 41.5176 305.688 44.2358C303.708 46.954 302.307 50.0472 301.569 53.3253C300.832 56.6035 300.774 59.9975 301.399 63.2987C299.788 64.046 298.262 64.9641 296.848 66.0373L308.432 82.1025L294.525 68.0399C291.59 70.9144 289.42 74.4735 288.211 78.3951C287.002 82.3167 286.793 86.4771 287.602 90.4996C283.401 92.4555 279.837 95.5506 277.316 99.4314C274.795 103.312 273.419 107.822 273.346 112.446C273.273 117.069 274.506 121.62 276.903 125.578C279.3 129.536 282.765 132.742 286.903 134.829C291.04 136.915 295.682 137.799 300.299 137.379C304.916 136.959 309.322 135.252 313.012 132.453C316.702 129.653 319.529 125.875 321.168 121.55C322.808 117.225 323.194 112.526 322.284 107.992C327.311 105.658 331.405 101.706 333.908 96.7703C336.41 91.8347 337.175 86.2031 336.081 80.7811Z"
                          fill="#3F51B5"/>
                    <path opacity="0.1"
                          d="M289.789 74.5098C287.278 79.443 286.51 85.077 287.609 90.4996C283.408 92.4555 279.843 95.5506 277.322 99.4314C274.801 103.312 273.426 107.822 273.353 112.446C273.28 117.069 274.512 121.62 276.91 125.578C279.307 129.536 282.772 132.742 286.91 134.829C291.047 136.915 295.689 137.799 300.306 137.379C304.923 136.959 309.329 135.252 313.019 132.453C316.709 129.653 319.536 125.875 321.175 121.55C322.815 117.225 323.201 112.526 322.291 107.992C327.14 105.747 291.031 72.0416 289.789 74.5098Z"
                          fill="black"/>
                    <path opacity="0.1"
                          d="M317.637 38.8227C319.663 38.8227 321.306 37.1844 321.306 35.1633C321.306 33.1423 319.663 31.5039 317.637 31.5039C315.61 31.5039 313.968 33.1423 313.968 35.1633C313.968 37.1844 315.61 38.8227 317.637 38.8227Z"
                          fill="#3F51B5"/>
                    <path opacity="0.1"
                          d="M339.067 41.1711C341.093 41.1711 342.736 39.5327 342.736 37.5116C342.736 35.4906 341.093 33.8522 339.067 33.8522C337.04 33.8522 335.398 35.4906 335.398 37.5116C335.398 39.5327 337.04 41.1711 339.067 41.1711Z"
                          fill="#3F51B5"/>
                    <path opacity="0.1"
                          d="M347.331 74.0545C349.357 74.0545 351 72.4161 351 70.3951C351 68.374 349.357 66.7357 347.331 66.7357C345.305 66.7357 343.662 68.374 343.662 70.3951C343.662 72.4161 345.305 74.0545 347.331 74.0545Z"
                          fill="#3F51B5"/>
                    <path opacity="0.1"
                          d="M336.177 90.4757C338.203 90.4757 339.846 88.8373 339.846 86.8163C339.846 84.7952 338.203 83.1568 336.177 83.1568C334.15 83.1568 332.508 84.7952 332.508 86.8163C332.508 88.8373 334.15 90.4757 336.177 90.4757Z"
                          fill="#3F51B5"/>
                    <path opacity="0.1"
                          d="M320.938 124.581C322.965 124.581 324.607 122.943 324.607 120.922C324.607 118.901 322.965 117.262 320.938 117.262C318.912 117.262 317.269 118.901 317.269 120.922C317.269 122.943 318.912 124.581 320.938 124.581Z"
                          fill="#3F51B5"/>
                    <path opacity="0.1"
                          d="M320.938 124.581C322.965 124.581 324.607 122.943 324.607 120.922C324.607 118.901 322.965 117.262 320.938 117.262C318.912 117.262 317.269 118.901 317.269 120.922C317.269 122.943 318.912 124.581 320.938 124.581Z"
                          fill="black"/>
                    <path opacity="0.1"
                          d="M287.057 85.9536C289.083 85.9536 290.726 84.3152 290.726 82.2942C290.726 80.2732 289.083 78.6348 287.057 78.6348C285.03 78.6348 283.388 80.2732 283.388 82.2942C283.388 84.3152 285.03 85.9536 287.057 85.9536Z"
                          fill="#3F51B5"/>
                    <path opacity="0.1"
                          d="M287.057 85.9536C289.083 85.9536 290.726 84.3152 290.726 82.2942C290.726 80.2732 289.083 78.6348 287.057 78.6348C285.03 78.6348 283.388 80.2732 283.388 82.2942C283.388 84.3152 285.03 85.9536 287.057 85.9536Z"
                          fill="black"/>
                    <path opacity="0.1"
                          d="M283.144 142.485C280.704 141.256 279.966 137.774 281.39 134.563C281.315 134.693 281.243 134.827 281.174 134.967C279.489 138.288 280.186 142.019 282.729 143.303C285.272 144.587 288.701 142.933 290.382 139.613C290.454 139.476 290.516 139.335 290.578 139.198C288.831 142.248 285.581 143.717 283.144 142.485Z"
                          fill="black"/>
                    <path opacity="0.1"
                          d="M279.52 149.632C277.083 148.403 276.342 144.922 277.769 141.708C277.694 141.841 277.618 141.975 277.55 142.112C275.865 145.432 276.561 149.167 279.105 150.447C281.648 151.727 285.076 150.081 286.762 146.757C286.83 146.62 286.895 146.483 286.957 146.343C285.207 149.393 281.96 150.861 279.52 149.632Z"
                          fill="black"/>
                    <path opacity="0.1"
                          d="M275.896 156.777C273.459 155.548 272.717 152.066 274.145 148.855C274.07 148.985 273.994 149.119 273.926 149.259C272.24 152.58 272.941 156.311 275.484 157.595C278.027 158.878 281.452 157.225 283.137 153.905C283.206 153.768 283.271 153.627 283.333 153.49C281.586 156.54 278.336 158.009 275.896 156.777Z"
                          fill="black"/>
                    <path opacity="0.1"
                          d="M272.285 163.941C269.845 162.712 269.107 159.231 270.531 156.02C270.456 156.15 270.384 156.284 270.312 156.421C268.63 159.741 269.327 163.476 271.87 164.76C274.413 166.043 277.842 164.39 279.523 161.066C279.595 160.929 279.657 160.792 279.719 160.652C277.962 163.685 274.711 165.153 272.285 163.941Z"
                          fill="black"/>
                    <path opacity="0.1"
                          d="M268.65 171.069C266.21 169.84 265.472 166.358 266.897 163.147C266.821 163.277 266.749 163.411 266.68 163.551C264.995 166.872 265.692 170.603 268.235 171.887C270.778 173.17 274.207 171.517 275.892 168.196C275.961 168.06 276.026 167.919 276.088 167.782C274.344 170.832 271.087 172.301 268.65 171.069Z"
                          fill="black"/>
                    <path opacity="0.1"
                          d="M265.026 178.216C262.589 176.987 261.848 173.506 263.276 170.295C263.2 170.425 263.125 170.558 263.056 170.695C261.371 174.016 262.068 177.751 264.614 179.034C267.161 180.318 270.569 178.661 272.285 175.341C272.354 175.204 272.419 175.067 272.481 174.927C270.713 177.977 267.48 179.445 265.026 178.216Z"
                          fill="black"/>
                    <path opacity="0.1"
                          d="M261.402 185.36C258.965 184.132 258.224 180.65 259.651 177.439C259.576 177.573 259.504 177.703 259.432 177.843C257.75 181.164 258.447 184.895 260.99 186.179C263.533 187.462 266.962 185.809 268.644 182.488C268.716 182.351 268.777 182.211 268.839 182.074C267.092 185.124 263.842 186.593 261.402 185.36Z"
                          fill="black"/>
                    <path opacity="0.1"
                          d="M257.781 192.508C255.341 191.279 254.603 187.798 256.027 184.587C255.952 184.717 255.88 184.85 255.811 184.987C254.126 188.308 254.822 192.043 257.366 193.326C259.909 194.61 263.337 192.957 265.023 189.633C265.091 189.496 265.153 189.359 265.215 189.218C263.468 192.269 260.218 193.723 257.781 192.508Z"
                          fill="black"/>
                    <path opacity="0.1"
                          d="M255.399 197.205C252.962 195.972 252.221 192.494 253.649 189.28C253.573 189.414 253.498 189.547 253.429 189.684C251.744 193.005 252.441 196.739 254.984 198.02C257.527 199.3 260.956 197.653 262.641 194.329C262.709 194.192 262.775 194.055 262.836 193.915C261.086 196.965 257.836 198.434 255.399 197.205Z"
                          fill="black"/>
                    <path opacity="0.1"
                          d="M320.88 165.4C321.258 164.318 321.489 163.191 321.566 162.048C321.818 162.048 322.068 161.995 322.299 161.894C322.529 161.793 322.737 161.646 322.908 161.461C323.079 161.277 323.21 161.059 323.293 160.821C323.376 160.584 323.409 160.332 323.39 160.081C323.371 159.831 323.3 159.587 323.182 159.364C323.064 159.142 322.901 158.947 322.704 158.79C322.507 158.634 322.279 158.519 322.036 158.454C321.792 158.389 321.538 158.375 321.288 158.413C320.88 156.56 320.064 154.821 318.898 153.322C317.732 151.824 316.246 150.603 314.548 149.749C314.767 149.316 314.805 148.813 314.653 148.353C314.501 147.892 314.172 147.51 313.738 147.291C313.304 147.072 312.8 147.034 312.338 147.186C311.876 147.337 311.493 147.666 311.274 148.099C311.194 148.253 311.139 148.418 311.109 148.588C309.095 148.214 307.021 148.325 305.059 148.911C303.096 149.498 301.303 150.543 299.828 151.96C298.713 151.78 297.58 151.747 296.457 151.861L294.971 158.608L294.882 152.104C293.176 152.477 291.565 153.193 290.146 154.208C288.727 155.223 287.53 156.516 286.63 158.008C285.729 159.5 285.143 161.16 284.907 162.886C284.671 164.611 284.79 166.367 285.257 168.045C285.725 169.723 286.53 171.289 287.625 172.646C288.719 174.003 290.08 175.123 291.623 175.938C293.166 176.753 294.86 177.245 296.6 177.385C298.341 177.525 300.092 177.309 301.746 176.751C301.923 177.069 302.192 177.327 302.518 177.491C302.854 177.661 303.235 177.724 303.608 177.67C303.981 177.617 304.329 177.45 304.603 177.193C304.878 176.935 305.067 176.6 305.143 176.231C305.219 175.863 305.18 175.48 305.031 175.135C305.616 174.734 306.167 174.285 306.678 173.793C309.357 174.228 312.106 173.805 314.53 172.586C316.953 171.366 318.928 169.413 320.17 167.005L313.254 165.845L320.88 165.4Z"
                          fill="#3F51B5"/>
                    <g opacity="0.1">
                        <path opacity="0.1"
                              d="M310.196 168.676C307.642 165.314 306.077 161.333 304.276 157.513C303.552 155.945 302.742 154.418 301.849 152.939L300.497 151.368C300.27 151.56 300.044 151.758 299.81 151.967C298.696 151.787 297.563 151.754 296.44 151.868L294.954 158.615L294.865 152.111C293.159 152.484 291.547 153.2 290.129 154.215C288.71 155.23 287.513 156.523 286.613 158.015C285.712 159.507 285.125 161.167 284.889 162.892C284.654 164.618 284.773 166.374 285.24 168.052C285.708 169.73 286.513 171.295 287.608 172.652C288.702 174.01 290.063 175.13 291.606 175.945C293.149 176.759 294.843 177.252 296.583 177.392C298.324 177.532 300.075 177.316 301.729 176.758C301.906 177.076 302.175 177.334 302.501 177.497C302.837 177.668 303.218 177.73 303.591 177.677C303.964 177.624 304.312 177.457 304.586 177.2C304.861 176.942 305.049 176.606 305.126 176.238C305.202 175.87 305.163 175.487 305.013 175.142C305.599 174.741 306.15 174.292 306.661 173.8C309.284 174.224 311.974 173.827 314.362 172.664C312.768 171.565 311.362 170.219 310.196 168.676Z"
                              fill="black"/>
                    </g>
                    <path opacity="0.1"
                          d="M264.978 154.23C265.12 153.951 265.187 153.64 265.174 153.328C265.16 153.015 265.067 152.711 264.902 152.445C264.738 152.179 264.508 151.959 264.234 151.807C263.96 151.655 263.651 151.576 263.337 151.577C262.817 148.826 261.407 146.321 259.322 144.446C259.658 143.139 259.785 141.788 259.699 140.441L252.955 139.294L259.504 138.883C259.386 138.27 259.224 137.666 259.02 137.076C259.275 136.901 259.482 136.666 259.624 136.391C259.789 136.064 259.852 135.695 259.805 135.332C259.757 134.968 259.602 134.628 259.358 134.353C259.115 134.079 258.795 133.884 258.439 133.793C258.083 133.703 257.708 133.72 257.362 133.844C255.628 131.4 253.09 129.639 250.189 128.867C247.288 128.095 244.208 128.362 241.483 129.62C238.759 130.878 236.562 133.048 235.276 135.753C233.989 138.459 233.693 141.529 234.439 144.429C234.042 144.596 233.718 144.9 233.526 145.285C233.358 145.616 233.295 145.991 233.346 146.359C233.396 146.728 233.558 147.072 233.81 147.346C234.061 147.62 234.391 147.811 234.754 147.893C235.117 147.976 235.497 147.946 235.843 147.808C236.501 148.91 237.321 149.909 238.276 150.769C237.581 153.472 237.791 156.329 238.874 158.902L247.917 156.561L239.852 160.792C241.278 163.052 243.376 164.811 245.854 165.823C248.332 166.836 251.065 167.05 253.671 166.437C256.277 165.823 258.625 164.413 260.388 162.403C262.151 160.393 263.24 157.884 263.502 155.226C263.813 155.199 264.112 155.094 264.37 154.919C264.628 154.745 264.838 154.507 264.978 154.23V154.23Z"
                          fill="#3F51B5"/>
                    <path opacity="0.1"
                          d="M264.978 154.23C265.12 153.951 265.187 153.64 265.174 153.328C265.16 153.015 265.067 152.711 264.902 152.445C264.738 152.179 264.508 151.959 264.234 151.807C263.96 151.655 263.651 151.576 263.337 151.577C262.817 148.826 261.407 146.321 259.322 144.446C259.377 144.23 259.425 144.018 259.466 143.803C259.227 143.976 259.005 144.172 258.804 144.388C257.585 145.72 256.961 147.51 255.756 148.855C254.335 150.444 252.207 151.272 250.083 151.495C247.958 151.717 245.82 151.392 243.723 150.984C241.986 150.642 240.226 150.245 238.465 150.413C238.294 150.413 238.122 150.45 237.964 150.478C238.067 150.577 238.17 150.676 238.276 150.772C237.581 153.476 237.791 156.332 238.874 158.906L247.917 156.561L239.852 160.792C241.278 163.052 243.376 164.811 245.854 165.823C248.332 166.836 251.065 167.05 253.671 166.437C256.277 165.823 258.625 164.413 260.388 162.403C262.151 160.393 263.24 157.884 263.502 155.226C263.813 155.199 264.112 155.093 264.37 154.919C264.628 154.745 264.838 154.507 264.978 154.23Z"
                          fill="black"/>
                </g>
                <g opacity="0.1">
                    <path opacity="0.1"
                          d="M30.7138 175.009C31.1531 173.677 32.9343 173.064 34.6916 173.639C34.9443 173.722 35.189 173.827 35.4226 173.954C35.5359 173.923 35.6526 173.896 35.7658 173.876C35.6694 173.493 35.6324 173.098 35.656 172.705C35.0528 172.298 34.5637 171.744 34.2352 171.096C33.9066 170.448 33.7495 169.727 33.7786 169.001C33.1702 168.601 32.6796 168.047 32.3578 167.395C32.0224 166.75 31.8648 166.027 31.9013 165.3C31.2932 164.899 30.8029 164.344 30.4804 163.692C29.6361 162.021 29.9793 160.142 31.2664 159.491C32.5534 158.841 34.2763 159.679 35.124 161.35C35.4588 161.997 35.6152 162.721 35.5771 163.448C36.1819 163.853 36.6723 164.406 37.001 165.054C37.3298 165.702 37.4859 166.423 37.4544 167.149C38.059 167.554 38.5492 168.108 38.8779 168.756C39.2066 169.405 39.3629 170.127 39.3318 170.853C39.9366 171.257 40.427 171.81 40.7557 172.458C41.0845 173.106 41.2406 173.828 41.2091 174.553C41.8185 174.954 42.31 175.51 42.6334 176.162C42.7878 176.478 42.903 176.811 42.9766 177.155C43.1881 176.845 43.4462 176.569 43.742 176.337C43.7773 176.073 43.837 175.813 43.9205 175.56C44.5005 173.807 46.0484 172.739 47.3835 173.164C48.7185 173.588 49.3294 175.378 48.7563 177.131C48.5194 177.884 48.0644 178.55 47.4487 179.045C47.413 179.307 47.3533 179.566 47.2702 179.818C46.9885 180.747 46.361 181.534 45.5164 182.016C45.5826 182.24 45.6308 182.469 45.6605 182.701C46.0149 183.04 46.3085 183.437 46.5289 183.875C46.7534 184.312 46.8998 184.784 46.9613 185.271C47.317 185.61 47.6118 186.007 47.8331 186.446C48.0572 186.883 48.2035 187.355 48.2655 187.842C48.622 188.182 48.9169 188.58 49.1373 189.02C49.985 190.69 49.6349 192.573 48.3547 193.217C47.0746 193.86 45.3448 193.032 44.4971 191.358C44.2735 190.921 44.1272 190.448 44.0646 189.961C43.3495 189.277 42.8895 188.37 42.7604 187.39C42.0454 186.706 41.5854 185.799 41.4562 184.82C41.1008 184.48 40.806 184.083 40.5845 183.645C40.3625 183.207 40.2163 182.735 40.152 182.249C39.7977 181.91 39.504 181.512 39.2837 181.075C39.0592 180.638 38.9128 180.165 38.8513 179.678C38.6303 179.473 38.4334 179.243 38.2644 178.993C37.5583 179.137 36.8265 179.092 36.1434 178.863C35.8896 178.779 35.6439 178.672 35.4089 178.545C34.6456 178.747 33.8392 178.718 33.0922 178.463C31.3522 177.884 30.2779 176.34 30.7138 175.009Z"
                          fill="#3F3D56"/>
                    <g opacity="0.1">
                        <path opacity="0.1"
                              d="M33.813 169.761C33.9949 169.94 34.1951 170.099 34.4101 170.237C34.3811 170.728 34.4463 171.221 34.6023 171.688C34.4644 171.501 34.3427 171.303 34.2385 171.096C34.0239 170.677 33.8801 170.226 33.813 169.761Z"
                              fill="black"/>
                        <path opacity="0.1"
                              d="M31.9356 166.064C32.1185 166.241 32.3186 166.399 32.5328 166.536C32.504 167.029 32.5692 167.523 32.725 167.991C32.3093 167.422 32.0384 166.761 31.9356 166.064Z"
                              fill="black"/>
                        <path opacity="0.1"
                              d="M36.2017 164.684C36.218 164.431 36.2088 164.176 36.1742 163.924C36.5098 164.255 36.7891 164.637 37.0014 165.057C37.105 165.265 37.1922 165.48 37.2622 165.701C36.9762 165.298 36.6164 164.953 36.2017 164.684Z"
                              fill="black"/>
                        <path opacity="0.1"
                              d="M48.1111 187.093C47.961 186.883 47.7909 186.688 47.6031 186.511C47.5718 186.279 47.5213 186.05 47.4521 185.826C47.6011 186.027 47.7331 186.24 47.8468 186.463C47.9509 186.666 48.0393 186.876 48.1111 187.093Z"
                              fill="black"/>
                        <path opacity="0.1"
                              d="M46.7966 184.522C46.6465 184.312 46.4764 184.117 46.2886 183.94C46.2606 183.708 46.2124 183.479 46.1445 183.255C46.4272 183.637 46.6452 184.063 46.7897 184.515L46.7966 184.522Z"
                              fill="black"/>
                        <path opacity="0.1"
                              d="M35.6938 173.472C35.8739 173.649 36.073 173.806 36.2875 173.941C36.2619 174.334 36.2989 174.729 36.3973 175.111C36.2817 175.132 36.1671 175.158 36.0541 175.19C35.819 175.064 35.5733 174.958 35.3197 174.875C33.5624 174.3 31.7812 174.913 31.3453 176.244C31.2361 176.576 31.2159 176.93 31.287 177.271C31.0046 176.975 30.8038 176.611 30.7039 176.215C30.6041 175.818 30.6087 175.403 30.7172 175.009C31.1565 173.677 32.9378 173.064 34.695 173.639C34.9478 173.722 35.1925 173.827 35.4261 173.954C35.5393 173.924 35.656 173.896 35.7693 173.876C35.7363 173.743 35.7111 173.608 35.6938 173.472Z"
                              fill="black"/>
                        <path opacity="0.1"
                              d="M48.7563 188.383C48.906 188.585 49.0381 188.799 49.151 189.023C49.2558 189.231 49.3441 189.446 49.4153 189.667C49.2652 189.456 49.0951 189.26 48.9073 189.082C48.8767 188.845 48.8262 188.611 48.7563 188.383Z"
                              fill="black"/>
                        <path opacity="0.1"
                              d="M38.0791 168.392C38.0955 168.138 38.0863 167.883 38.0516 167.632C38.3879 167.961 38.6674 168.344 38.8787 168.765C38.9824 168.971 39.0696 169.185 39.1396 169.405C38.8535 169.003 38.4936 168.659 38.0791 168.392Z"
                              fill="black"/>
                        <path opacity="0.1"
                              d="M40.7938 183.488C40.826 183.744 40.8823 183.996 40.962 184.241C40.676 183.85 40.4579 183.414 40.3168 182.951C40.4594 183.144 40.619 183.323 40.7938 183.488Z"
                              fill="black"/>
                        <path opacity="0.1"
                              d="M43.3988 188.63C43.4334 188.885 43.4908 189.137 43.5704 189.383C43.4325 189.196 43.3108 188.998 43.2066 188.791C43.0937 188.571 42.9996 188.342 42.9252 188.106C43.0689 188.293 43.2273 188.468 43.3988 188.63Z"
                              fill="black"/>
                        <path opacity="0.1"
                              d="M42.0981 186.059C42.1302 186.315 42.1865 186.567 42.2662 186.812C42.1295 186.624 42.0079 186.426 41.9024 186.22C41.7891 186 41.695 185.771 41.621 185.535C41.7642 185.723 41.9239 185.899 42.0981 186.059Z"
                              fill="black"/>
                        <path opacity="0.1"
                              d="M39.4897 180.914C39.5214 181.171 39.5777 181.424 39.6578 181.67C39.5277 181.482 39.4129 181.284 39.3146 181.078C39.1996 180.859 39.1042 180.63 39.0298 180.393C39.1669 180.58 39.3208 180.755 39.4897 180.914Z"
                              fill="black"/>
                        <path opacity="0.1"
                              d="M48.0253 174.413C46.6902 173.975 45.1423 175.043 44.5657 176.809C44.4823 177.062 44.4225 177.322 44.3873 177.586C44.0904 177.817 43.8311 178.092 43.6185 178.401C43.5388 178.057 43.4178 177.724 43.2581 177.408C43.1998 177.292 43.1345 177.179 43.0659 177.066C43.2607 176.796 43.4917 176.554 43.7523 176.347C43.7876 176.083 43.8473 175.823 43.9308 175.57C44.5108 173.817 46.0587 172.749 47.3938 173.174C47.7766 173.32 48.115 173.563 48.376 173.879C48.6369 174.194 48.8117 174.572 48.8833 174.974C48.6501 174.717 48.3547 174.524 48.0253 174.413Z"
                              fill="black"/>
                        <path opacity="0.1"
                              d="M41.8338 175.793C41.8501 175.539 41.8409 175.284 41.8063 175.033C42.1426 175.362 42.4221 175.745 42.6334 176.166C42.7371 176.373 42.8243 176.588 42.8943 176.809C42.6092 176.406 42.2492 176.061 41.8338 175.793Z"
                              fill="black"/>
                        <path opacity="0.1"
                              d="M39.9564 172.089C39.9727 171.835 39.9635 171.581 39.929 171.329C40.2637 171.66 40.543 172.042 40.7561 172.462C40.8597 172.669 40.9469 172.884 41.0169 173.105C40.7309 172.703 40.3711 172.358 39.9564 172.089Z"
                              fill="black"/>
                        <path opacity="0.1"
                              d="M44.703 191.2C44.736 191.458 44.7934 191.711 44.8746 191.957C44.7374 191.769 44.6158 191.569 44.5108 191.361C44.3979 191.141 44.3038 190.912 44.2294 190.677C44.3731 190.864 44.5315 191.039 44.703 191.2Z"
                              fill="black"/>
                    </g>
                    <path opacity="0.1"
                          d="M28.15 157.896C27.5415 157.497 27.051 156.942 26.7291 156.29C25.8814 154.617 26.2315 152.737 27.5116 152.09C28.7918 151.443 30.5216 152.275 31.3693 153.949C31.7046 154.595 31.861 155.318 31.8223 156.044C32.427 156.449 32.9171 157.003 33.2458 157.652C33.5745 158.3 33.7308 159.022 33.6997 159.748C34.3086 160.148 34.8001 160.702 35.124 161.353C35.227 161.559 35.3142 161.772 35.3849 161.99C34.9302 161.343 34.2757 160.862 33.5212 160.621C33.4372 160.888 33.3006 161.136 33.1193 161.35C32.9381 161.565 32.7159 161.74 32.4657 161.868C32.2155 161.995 31.9423 162.072 31.6621 162.093C31.3819 162.114 31.1004 162.079 30.8339 161.99C30.5794 162.739 30.5794 163.551 30.8339 164.301C30.705 164.115 30.5902 163.919 30.4907 163.715C30.1553 163.07 29.9978 162.347 30.0342 161.62C29.4303 161.214 28.9407 160.661 28.6121 160.012C28.2835 159.364 28.1268 158.642 28.1569 157.917L28.15 157.896Z"
                          fill="#3F3D56"/>
                    <path opacity="0.1"
                          d="M7.5163 134.159C6.99569 133.917 6.49229 133.639 6.00961 133.328L11.5971 129.254L5.02804 132.626C3.69986 131.572 2.60115 130.26 1.79916 128.768C0.997171 127.277 0.50876 125.638 0.363823 123.951L11.5318 124.068L0.339798 122.199C0.436166 120.496 0.883103 118.831 1.65277 117.308C2.42243 115.784 3.49832 114.436 4.81342 113.345C6.12852 112.255 7.65464 111.446 9.2967 110.97C10.9388 110.494 12.6616 110.36 14.3578 110.577C16.0541 110.793 17.6874 111.356 19.156 112.23C20.6246 113.104 21.8971 114.27 22.8942 115.656C23.8912 117.042 24.5915 118.617 24.9513 120.285C25.3111 121.952 25.3228 123.676 24.9856 125.348C25.7963 125.722 26.5649 126.181 27.2783 126.717L21.4437 134.81L28.4486 127.731C29.9268 129.179 31.0197 130.972 31.6285 132.947C32.2374 134.922 32.3429 137.018 31.9356 139.044C34.0546 140.029 35.8531 141.588 37.1254 143.544C38.3977 145.5 39.0925 147.774 39.1302 150.105C39.1679 152.436 38.5472 154.731 37.3389 156.727C36.1305 158.723 34.3835 160.339 32.2974 161.391C30.2114 162.444 27.8706 162.889 25.5427 162.677C23.2148 162.464 20.9938 161.603 19.1336 160.191C17.2735 158.779 15.8493 156.873 15.0239 154.692C14.1985 152.51 14.0053 150.141 14.4663 147.856C11.9372 146.68 9.87721 144.691 8.61692 142.208C7.35662 139.725 6.96903 136.892 7.5163 134.163V134.159Z"
                          fill="#3F51B5"/>
                    <path opacity="0.1"
                          d="M30.8373 131.003C32.1031 133.488 32.4902 136.326 31.9356 139.058C34.0546 140.042 35.8531 141.602 37.1254 143.558C38.3977 145.514 39.0924 147.787 39.1302 150.119C39.1679 152.45 38.5471 154.745 37.3388 156.741C36.1305 158.737 34.3835 160.353 32.2974 161.405C30.2114 162.457 27.8706 162.903 25.5427 162.69C23.2148 162.478 20.9938 161.617 19.1336 160.205C17.2735 158.793 15.8493 156.887 15.0239 154.706C14.1985 152.524 14.0053 150.155 14.4663 147.869C12.0192 146.736 30.2093 129.761 30.8373 131.003Z"
                          fill="black"/>
                    <path opacity="0.1"
                          d="M16.8069 113.024C17.8286 113.024 18.6568 112.198 18.6568 111.179C18.6568 110.16 17.8286 109.334 16.8069 109.334C15.7853 109.334 14.957 110.16 14.957 111.179C14.957 112.198 15.7853 113.024 16.8069 113.024Z"
                          fill="#3F51B5"/>
                    <path opacity="0.1"
                          d="M6.0096 114.209C7.03127 114.209 7.85949 113.383 7.85949 112.364C7.85949 111.345 7.03127 110.519 6.0096 110.519C4.98793 110.519 4.1597 111.345 4.1597 112.364C4.1597 113.383 4.98793 114.209 6.0096 114.209Z"
                          fill="#3F51B5"/>
                    <path opacity="0.1"
                          d="M1.8499 130.774C2.87157 130.774 3.69979 129.948 3.69979 128.929C3.69979 127.91 2.87157 127.084 1.8499 127.084C0.828227 127.084 0 127.91 0 128.929C0 129.948 0.828227 130.774 1.8499 130.774Z"
                          fill="#3F51B5"/>
                    <path opacity="0.1"
                          d="M7.46823 139.048C8.4899 139.048 9.31813 138.222 9.31813 137.203C9.31813 136.184 8.4899 135.358 7.46823 135.358C6.44656 135.358 5.61833 136.184 5.61833 137.203C5.61833 138.222 6.44656 139.048 7.46823 139.048Z"
                          fill="#3F51B5"/>
                    <path opacity="0.1"
                          d="M15.1424 156.229C16.1641 156.229 16.9923 155.403 16.9923 154.384C16.9923 153.365 16.1641 152.539 15.1424 152.539C14.1207 152.539 13.2925 153.365 13.2925 154.384C13.2925 155.403 14.1207 156.229 15.1424 156.229Z"
                          fill="#3F51B5"/>
                    <path opacity="0.1"
                          d="M15.1424 156.229C16.1641 156.229 16.9923 155.403 16.9923 154.384C16.9923 153.365 16.1641 152.539 15.1424 152.539C14.1207 152.539 13.2925 153.365 13.2925 154.384C13.2925 155.403 14.1207 156.229 15.1424 156.229Z"
                          fill="black"/>
                    <path opacity="0.1"
                          d="M32.2102 136.768C33.2319 136.768 34.0601 135.942 34.0601 134.923C34.0601 133.904 33.2319 133.078 32.2102 133.078C31.1885 133.078 30.3603 133.904 30.3603 134.923C30.3603 135.942 31.1885 136.768 32.2102 136.768Z"
                          fill="#3F51B5"/>
                    <path opacity="0.1"
                          d="M32.2102 136.768C33.2319 136.768 34.0601 135.942 34.0601 134.923C34.0601 133.904 33.2319 133.078 32.2102 133.078C31.1885 133.078 30.3603 133.904 30.3603 134.923C30.3603 135.942 31.1885 136.768 32.2102 136.768Z"
                          fill="black"/>
                    <path opacity="0.1"
                          d="M34.1836 165.246C35.4123 164.626 35.783 162.873 35.0657 161.254C35.1034 161.323 35.1412 161.388 35.1755 161.456C36.0232 163.13 35.6732 165.009 34.3896 165.656C33.106 166.303 31.383 165.472 30.5353 163.798C30.501 163.729 30.4667 163.661 30.4358 163.589C31.3178 165.126 32.9549 165.865 34.1836 165.246Z"
                          fill="black"/>
                    <path opacity="0.1"
                          d="M36.0061 168.847C37.2348 168.227 37.6089 166.471 36.8916 164.855C36.9293 164.92 36.9671 164.989 37.0014 165.057C37.8491 166.731 37.499 168.611 36.2154 169.258C34.9318 169.905 33.2089 169.073 32.3612 167.399C32.3234 167.33 32.2925 167.259 32.2617 167.19C33.1437 168.734 34.7842 169.466 36.0061 168.847Z"
                          fill="black"/>
                    <path opacity="0.1"
                          d="M37.8319 172.445C39.0606 171.825 39.4347 170.072 38.714 168.453C38.7552 168.522 38.7895 168.587 38.8272 168.659C39.675 170.329 39.3215 172.212 38.0413 172.855C36.7611 173.499 35.0348 172.671 34.1871 170.997C34.1493 170.928 34.1184 170.86 34.0875 170.788C34.9661 172.325 36.6032 173.064 37.8319 172.445Z"
                          fill="black"/>
                    <path opacity="0.1"
                          d="M39.6578 176.046C40.8865 175.426 41.2606 173.674 40.5399 172.054C40.5776 172.119 40.6154 172.188 40.6497 172.256C41.5009 173.93 41.1474 175.81 39.8672 176.457C38.587 177.104 36.8572 176.272 36.0095 174.598C35.9752 174.529 35.9443 174.458 35.9134 174.389C36.792 175.923 38.4291 176.665 39.6578 176.046Z"
                          fill="black"/>
                    <path opacity="0.1"
                          d="M41.4837 179.644C42.7124 179.024 43.083 177.271 42.3657 175.656C42.4035 175.721 42.4412 175.789 42.4755 175.858C43.3233 177.532 42.9732 179.411 41.693 180.058C40.4129 180.705 38.6831 179.87 37.8354 178.199C37.801 178.127 37.7702 178.059 37.7358 177.99C38.6179 179.524 40.255 180.263 41.4837 179.644Z"
                          fill="black"/>
                    <path opacity="0.1"
                          d="M43.3095 183.245C44.5382 182.625 44.9089 180.873 44.1916 179.253C44.2293 179.322 44.2671 179.387 44.3014 179.455C45.1491 181.129 44.7991 183.009 43.5189 183.656C42.2387 184.303 40.509 183.471 39.6612 181.797C39.6269 181.728 39.5926 181.66 39.5617 181.588C40.4438 183.111 42.0809 183.865 43.3095 183.245Z"
                          fill="black"/>
                    <path opacity="0.1"
                          d="M45.1354 186.846C46.3607 186.227 46.7348 184.47 46.0175 182.855C46.0552 182.92 46.093 182.988 46.1273 183.057C46.975 184.731 46.625 186.61 45.3414 187.257C44.0578 187.904 42.3349 187.069 41.4871 185.398C41.4528 185.326 41.4185 185.258 41.3876 185.189C42.2697 186.723 43.9068 187.466 45.1354 186.846Z"
                          fill="black"/>
                    <path opacity="0.1"
                          d="M46.9579 190.444C48.1866 189.824 48.5607 188.072 47.8399 186.452C47.8811 186.521 47.9154 186.586 47.9532 186.658C48.8009 188.328 48.4474 190.211 47.1672 190.855C45.8871 191.498 44.1607 190.67 43.313 188.996C43.2753 188.927 43.2444 188.859 43.2135 188.787C44.0955 190.324 45.7292 191.064 46.9579 190.444Z"
                          fill="black"/>
                    <path opacity="0.1"
                          d="M48.1694 192.809C49.3981 192.19 49.7688 190.437 49.0515 188.818C49.0892 188.886 49.127 188.951 49.1613 189.023C50.009 190.694 49.6589 192.577 48.3788 193.22C47.0986 193.864 45.3688 193.035 44.5211 191.361C44.4868 191.293 44.4525 191.224 44.4216 191.153C45.2933 192.696 46.9304 193.429 48.1694 192.809Z"
                          fill="black"/>
                    <path opacity="0.1"
                          d="M15.1733 176.789C14.9827 176.244 14.8672 175.677 14.8301 175.101C14.7032 175.101 14.5777 175.074 14.4615 175.023C14.3454 174.972 14.241 174.898 14.1549 174.805C14.0688 174.712 14.0029 174.602 13.9613 174.483C13.9196 174.363 13.9031 174.236 13.9128 174.11C13.9225 173.984 13.9582 173.861 14.0176 173.749C14.0771 173.637 14.159 173.539 14.2583 173.46C14.3575 173.381 14.4721 173.323 14.5947 173.291C14.7172 173.258 14.8453 173.251 14.9708 173.27C15.1767 172.337 15.5881 171.461 16.1752 170.706C16.7623 169.951 17.5103 169.336 18.3651 168.905C18.2545 168.687 18.2354 168.433 18.312 168.201C18.3886 167.969 18.5546 167.776 18.7735 167.666C18.9925 167.556 19.2463 167.537 19.4793 167.613C19.7123 167.689 19.9054 167.855 20.016 168.073C20.0561 168.151 20.0839 168.234 20.0983 168.32C21.1139 168.134 22.1593 168.192 23.1477 168.49C24.1362 168.787 25.0392 169.316 25.7819 170.031C26.3492 169.939 26.9263 169.923 27.4979 169.983L28.2461 173.379L28.2633 170.103C29.1143 170.299 29.9166 170.665 30.6219 171.179C31.3272 171.693 31.9209 172.344 32.3672 173.093C32.8136 173.842 33.1032 174.673 33.2188 175.536C33.3344 176.4 33.2734 177.278 33.0397 178.117C32.8059 178.956 32.4042 179.74 31.8587 180.42C31.3132 181.101 30.6352 181.664 29.8656 182.076C29.0961 182.488 28.2508 182.74 27.3809 182.817C26.5109 182.895 25.6343 182.796 24.8037 182.526C24.7134 182.685 24.5787 182.815 24.4159 182.899C24.2463 182.985 24.0544 183.016 23.8663 182.989C23.6783 182.962 23.503 182.878 23.3644 182.748C23.2258 182.619 23.1306 182.45 23.0915 182.264C23.0524 182.079 23.0715 181.886 23.146 181.711C22.8517 181.506 22.5751 181.277 22.3189 181.027C20.9689 181.245 19.5843 181.031 18.3636 180.416C17.1428 179.801 16.1486 178.817 15.5234 177.603L19.0069 177.018L15.1733 176.789Z"
                          fill="#3F51B5"/>
                    <g opacity="0.1">
                        <path opacity="0.1"
                              d="M20.5548 178.439C21.8418 176.727 22.6312 174.742 23.5373 172.818C23.9001 172.026 24.3081 171.256 24.7591 170.511L25.4455 169.72C25.5622 169.819 25.6755 169.918 25.7887 170.021C26.356 169.928 26.9332 169.912 27.5048 169.973L28.253 173.369L28.2633 170.103C29.1142 170.299 29.9166 170.665 30.6219 171.179C31.3272 171.693 31.9209 172.344 32.3672 173.093C32.8135 173.842 33.1032 174.673 33.2188 175.536C33.3343 176.4 33.2734 177.278 33.0397 178.117C32.8059 178.957 32.4042 179.74 31.8587 180.42C31.3132 181.101 30.6352 181.664 29.8656 182.076C29.0961 182.488 28.2508 182.74 27.3809 182.817C26.5109 182.895 25.6342 182.796 24.8037 182.526C24.7134 182.685 24.5787 182.815 24.4159 182.899C24.2463 182.985 24.0544 183.016 23.8663 182.989C23.6783 182.962 23.503 182.878 23.3644 182.748C23.2258 182.619 23.1305 182.45 23.0915 182.264C23.0524 182.079 23.0714 181.886 23.146 181.711C22.8517 181.506 22.5751 181.277 22.3189 181.027C20.9968 181.238 19.6416 181.039 18.4372 180.455C19.2472 179.901 19.9623 179.22 20.5548 178.439Z"
                              fill="black"/>
                    </g>
                    <path opacity="0.1"
                          d="M43.3336 171.161C43.2787 171.053 43.2457 170.936 43.2365 170.815C43.2274 170.694 43.2422 170.573 43.2801 170.458C43.3181 170.344 43.3784 170.237 43.4577 170.146C43.537 170.054 43.6336 169.979 43.742 169.925C43.8716 169.859 44.0152 169.825 44.1607 169.826C44.4225 168.44 45.1326 167.177 46.1822 166.232C46.0125 165.574 45.9488 164.893 45.9935 164.215L49.3878 163.647L46.0896 163.438C46.1493 163.129 46.2319 162.825 46.3367 162.528C46.2071 162.442 46.1019 162.324 46.0312 162.185C45.9487 162.02 45.9175 161.835 45.9416 161.652C45.9657 161.469 46.044 161.298 46.1665 161.16C46.289 161.022 46.45 160.923 46.629 160.877C46.8079 160.831 46.9965 160.84 47.1707 160.902C47.7768 160.041 48.5868 159.344 49.5285 158.872C50.6377 158.31 51.8856 158.08 53.1228 158.208C54.3599 158.336 55.5337 158.818 56.5035 159.594C57.4733 160.371 58.1978 161.411 58.5903 162.588C58.9827 163.765 59.0265 165.03 58.7162 166.232C58.8775 166.301 59.0158 166.414 59.1148 166.558C59.2138 166.703 59.2695 166.873 59.2752 167.048C59.281 167.223 59.2366 167.396 59.1473 167.546C59.0581 167.697 58.9276 167.819 58.7711 167.899C58.6538 167.958 58.5252 167.992 58.3939 167.998C58.2625 168.003 58.1314 167.981 58.0092 167.933C57.678 168.487 57.2649 168.988 56.784 169.419C57.1357 170.784 57.0309 172.226 56.4854 173.526L51.9447 172.335L56.0049 174.468C55.3953 175.438 54.538 176.229 53.5208 176.76C52.5037 177.291 51.3633 177.542 50.2166 177.489C49.0699 177.435 47.9582 177.078 46.9953 176.455C46.0324 175.831 45.2532 174.964 44.7373 173.941C44.3782 173.229 44.1525 172.457 44.0715 171.664C43.9156 171.65 43.766 171.596 43.6369 171.508C43.5077 171.42 43.4033 171.301 43.3336 171.161V171.161Z"
                          fill="#3F51B5"/>
                    <path opacity="0.1"
                          d="M43.3336 171.161C43.2787 171.053 43.2457 170.936 43.2365 170.815C43.2274 170.694 43.2422 170.573 43.2801 170.458C43.3181 170.344 43.3784 170.237 43.4577 170.146C43.537 170.054 43.6336 169.979 43.742 169.925C43.8716 169.859 44.0152 169.825 44.1607 169.826C44.4225 168.44 45.1326 167.177 46.1822 166.232C46.1548 166.125 46.1307 166.016 46.1102 165.91C46.2333 165.997 46.3481 166.096 46.4534 166.204C47.0677 166.889 47.3835 167.775 47.9875 168.453C48.7444 169.232 49.7619 169.706 50.8464 169.785C51.9207 169.859 52.9999 169.772 54.0486 169.528C54.9134 169.306 55.8056 169.208 56.6982 169.237L56.9521 169.271L56.7943 169.419C57.146 170.784 57.0412 172.226 56.4957 173.526L51.9447 172.335L56.0049 174.468C55.3953 175.438 54.538 176.229 53.5208 176.76C52.5037 177.291 51.3633 177.542 50.2166 177.489C49.0699 177.435 47.9582 177.078 46.9953 176.455C46.0324 175.831 45.2532 174.964 44.7373 173.941C44.3782 173.229 44.1525 172.457 44.0715 171.664C43.9156 171.65 43.766 171.597 43.6369 171.508C43.5077 171.42 43.4033 171.301 43.3336 171.161Z"
                          fill="black"/>
                </g>
                <path opacity="0.1"
                      d="M118.87 17.7699C117.514 17.513 116.111 17.6656 114.841 18.2081C114.08 18.5466 113.255 18.7215 112.422 18.7215C111.588 18.7215 110.763 18.5466 110.002 18.2081C109.102 17.8146 108.127 17.6209 107.144 17.6404C106.162 17.6599 105.195 17.8922 104.312 18.3211C103.807 18.5869 103.245 18.7267 102.674 18.7285C100.368 18.7285 98.4495 16.4109 98.0514 13.354C98.5113 13.0178 98.9027 12.5972 99.2046 12.1148C100.557 9.94105 102.637 8.54437 105.001 8.54437C107.366 8.54437 109.425 9.91366 110.778 12.0737C111.182 12.7224 111.746 13.2565 112.417 13.6246C113.088 13.9927 113.842 14.1824 114.608 14.1756H114.67C116.489 14.1653 118.078 15.6339 118.87 17.7699Z"
                      fill="#3F51B5"/>
                <path opacity="0.1"
                      d="M125.879 8.18492L122.152 10.5435L124.413 6.43565C123.772 5.92589 122.978 5.64401 122.158 5.63462H122.1C121.841 5.63777 121.583 5.6183 121.328 5.57642L120.061 6.37746L120.604 5.39499C119.711 5.08522 118.938 4.50467 118.393 3.73473L116.125 5.14852L117.553 2.55714C116.231 0.972193 114.447 0 112.487 0C110.136 0 108.025 1.39667 106.687 3.57042C106.286 4.2197 105.72 4.75172 105.047 5.11246C104.374 5.4732 103.617 5.6498 102.853 5.62435H102.74C100.145 5.62435 98.0377 8.55805 98.0377 12.1832C98.0377 15.8084 100.145 18.7387 102.74 18.7387C103.31 18.737 103.872 18.5972 104.377 18.3313C105.26 17.9021 106.227 17.6699 107.21 17.651C108.193 17.6321 109.168 17.8268 110.067 18.2218C110.829 18.5592 111.653 18.7336 112.487 18.7336C113.32 18.7336 114.145 18.5592 114.906 18.2218C115.799 17.8352 116.765 17.6449 117.738 17.6638C118.711 17.6827 119.668 17.9104 120.545 18.3313C121.046 18.5901 121.601 18.7262 122.165 18.7284C124.763 18.7284 126.867 15.7947 126.867 12.173C126.876 10.7822 126.537 9.41125 125.879 8.18492V8.18492Z"
                      fill="#03A9F4"/>
                <path opacity="0.1"
                      d="M41.3052 65.1952C39.3672 64.8295 37.3638 65.0463 35.5496 65.8182C34.4608 66.2996 33.2826 66.5469 32.0916 66.544C30.9007 66.541 29.7237 66.2879 28.6374 65.8011C27.3519 65.239 25.9593 64.9622 24.556 64.99C23.1527 65.0178 21.7722 65.3494 20.5102 65.962C19.7883 66.3413 18.9853 66.5409 18.1695 66.544C14.8747 66.544 12.1324 63.2337 11.5627 58.8657C12.2211 58.3872 12.7805 57.7862 13.2101 57.0959C15.1424 53.991 18.1352 51.9953 21.4952 51.9953C24.8552 51.9953 27.8102 53.967 29.7322 57.0377C30.3098 57.9683 31.1192 58.734 32.0815 59.2601C33.0438 59.7862 34.1263 60.0548 35.2235 60.0398H35.3093C37.9109 60.0364 40.1829 62.1348 41.3052 65.1952Z"
                      fill="#3F51B5"/>
                <path opacity="0.1"
                      d="M51.3269 51.4852L46.0003 54.8537L49.2334 48.9897C48.3171 48.2602 47.1829 47.8566 46.0106 47.8429H45.9248C45.5547 47.8483 45.1849 47.8208 44.8197 47.7608L43.0213 48.9212L43.7969 47.5177C42.5171 47.0716 41.4118 46.2328 40.6394 45.1215L37.4064 47.1754L39.4416 43.4441C37.5505 41.1813 35.0039 39.7949 32.2033 39.7949C28.8433 39.7949 25.8505 41.7873 23.9183 44.8921C23.346 45.8238 22.5362 46.5875 21.5715 47.1052C20.6068 47.623 19.5218 47.8764 18.4269 47.8395H18.245C14.5349 47.8395 11.5284 52.0329 11.5284 57.2089C11.5284 62.3848 14.5349 66.5782 18.245 66.5782C19.0614 66.576 19.8649 66.3751 20.5857 65.9928C21.848 65.3808 23.2286 65.0497 24.6319 65.0225C26.0352 64.9953 27.4277 65.2727 28.7129 65.8354C29.7993 66.3222 30.9762 66.5753 32.1672 66.5782C33.3581 66.5812 34.5363 66.3339 35.6251 65.8525C36.9008 65.3002 38.2808 65.0281 39.6712 65.0547C41.0617 65.0813 42.4301 65.4059 43.6837 66.0065C44.3977 66.3792 45.191 66.5753 45.9969 66.5782C49.707 66.5782 52.7135 62.3813 52.7135 57.2089C52.7394 55.2152 52.2626 53.2471 51.3269 51.4852V51.4852Z"
                      fill="#03A9F4"/>
                <path opacity="0.1"
                      d="M256.71 31.1205C258.067 30.8638 259.47 31.0163 260.739 31.5587C261.5 31.8973 262.324 32.0723 263.157 32.0723C263.991 32.0723 264.814 31.8973 265.575 31.5587C266.475 31.1651 267.45 30.9714 268.433 30.9909C269.415 31.0104 270.382 31.2427 271.266 31.6716C271.77 31.9371 272.332 32.0769 272.903 32.079C275.209 32.079 277.131 29.7615 277.529 26.7045C277.069 26.3692 276.677 25.9485 276.376 25.4653C275.031 23.2847 272.927 21.8778 270.569 21.8778C268.211 21.8778 266.148 23.2471 264.796 25.4071C264.393 26.0587 263.828 26.5955 263.156 26.9655C262.483 27.3355 261.727 27.5262 260.959 27.5193H260.901C259.075 27.5158 257.482 28.9844 256.71 31.1205Z"
                      fill="#3F51B5"/>
                <path opacity="0.1"
                      d="M249.681 21.5355L253.408 23.8872L251.143 19.7794C251.785 19.2701 252.578 18.9882 253.398 18.9783H253.46C253.719 18.9813 253.977 18.9618 254.232 18.9201L255.495 19.7212L254.953 18.7387C255.852 18.4341 256.632 17.8558 257.184 17.0853L259.446 18.5162L258.014 15.9248C259.339 14.3399 261.103 13.3677 263.084 13.3677C265.435 13.3677 267.545 14.7643 268.884 16.9381C269.284 17.5876 269.85 18.1198 270.523 18.4806C271.196 18.8414 271.954 19.0178 272.717 18.992H272.841C275.439 18.992 277.543 21.9257 277.543 25.5509C277.543 29.1761 275.439 32.1064 272.841 32.1064C272.27 32.1038 271.709 31.9641 271.204 31.699C270.32 31.2697 269.353 31.0376 268.371 31.0186C267.388 30.9997 266.413 31.1945 265.513 31.5895C264.752 31.9268 263.929 32.1011 263.096 32.1011C262.263 32.1011 261.439 31.9268 260.678 31.5895C259.784 31.2028 258.818 31.0125 257.845 31.0314C256.871 31.0503 255.913 31.278 255.035 31.699C254.535 31.9581 253.979 32.0943 253.415 32.0961C250.821 32.0961 248.713 29.1624 248.713 25.5406C248.695 24.1459 249.028 22.7688 249.681 21.5355V21.5355Z"
                      fill="#03A9F4"/>
                <path opacity="0.1"
                      d="M211.29 265.943C233.088 265.943 250.759 262.878 250.759 259.097C250.759 255.315 233.088 252.25 211.29 252.25C189.492 252.25 171.821 255.315 171.821 259.097C171.821 262.878 189.492 265.943 211.29 265.943Z"
                      fill="#3F51B5"/>
                <path d="M190.632 226.576L129.476 225.792L129.658 224.228L132.613 198.42H186.321L190.272 224.228L190.574 226.186L190.632 226.576Z"
                      fill="#D0D2D5"/>
                <path opacity="0.1"
                      d="M190.574 226.186H160.056L129.476 225.792L129.658 224.228H190.272L190.574 226.186Z"
                      fill="black"/>
                <path d="M200.434 224.621H119.282V226.576H200.434V224.621Z" fill="#D0D2D5"/>
                <path d="M277.859 43.4167C277.863 42.0678 277.331 40.7723 276.379 39.8147C275.426 38.857 274.132 38.3156 272.779 38.3092H46.1513C45.4811 38.3124 44.8181 38.4472 44.2001 38.7059C43.5821 38.9646 43.0213 39.3422 42.5496 39.8171C42.0779 40.292 41.7047 40.8549 41.4511 41.4737C41.1975 42.0925 41.0687 42.7551 41.0718 43.4235V180.438H277.859V43.4167Z"
                      fill="#3F3D56"/>
                <path d="M41.0718 179.069V195.117C41.0718 196.46 41.607 197.749 42.5596 198.699C43.5122 199.649 44.8042 200.183 46.1513 200.183H272.779C274.126 200.183 275.418 199.649 276.371 198.699C277.324 197.749 277.859 196.46 277.859 195.117V179.069H41.0718Z"
                      fill="#D0D2D5"/>
                <path d="M269.234 46.9015H50.8739V170.072H269.234V46.9015Z" fill="white"/>
                <path d="M160.642 194.093C161.444 194.094 162.236 193.913 162.957 193.564C163.678 193.214 164.31 192.706 164.806 192.077C164.956 191.885 165.094 191.684 165.217 191.474L162.31 190.985L165.451 191.005C165.752 190.352 165.916 189.644 165.933 188.926C165.95 188.207 165.82 187.492 165.55 186.826L161.339 189.003L165.224 186.155C164.859 185.529 164.37 184.985 163.785 184.556C163.2 184.128 162.534 183.823 161.826 183.663C161.119 183.502 160.386 183.488 159.673 183.621C158.96 183.755 158.282 184.033 157.681 184.439C157.08 184.845 156.57 185.37 156.181 185.981C155.792 186.592 155.534 187.277 155.421 187.992C155.309 188.707 155.345 189.437 155.528 190.137C155.71 190.838 156.036 191.493 156.483 192.063V192.063C156.976 192.694 157.607 193.205 158.328 193.557C159.049 193.908 159.84 194.092 160.642 194.093V194.093Z"
                      fill="#3F51B5"/>
                <path opacity="0.1" d="M165.935 200.18L190.334 224.621L186.589 200.18H165.935Z" fill="black"/>
                <path opacity="0.1" d="M269.299 46.9152H50.7023V54.1108H269.299V46.9152Z" fill="#444053"/>
                <path opacity="0.3"
                      d="M192.262 48.1681H126.799C126.689 48.1681 126.6 48.257 126.6 48.3667V52.3479C126.6 52.4575 126.689 52.5464 126.799 52.5464H192.262C192.372 52.5464 192.461 52.4575 192.461 52.3479V48.3667C192.461 48.257 192.372 48.1681 192.262 48.1681Z"
                      fill="#3F51B5"/>
                <path d="M190.505 50.8108H190.344L190.285 50.7595C190.485 50.5201 190.594 50.2185 190.594 49.9071C190.592 49.6515 190.514 49.4022 190.37 49.1907C190.227 48.9792 190.023 48.8149 189.786 48.7187C189.548 48.6224 189.287 48.5984 189.036 48.6498C188.785 48.7012 188.555 48.8255 188.375 49.0073C188.195 49.189 188.072 49.4199 188.023 49.6708C187.975 49.9218 188.001 50.1815 188.1 50.4173C188.199 50.6531 188.366 50.8543 188.58 50.9956C188.793 51.137 189.044 51.212 189.3 51.2114C189.613 51.2102 189.915 51.1 190.155 50.8998L190.213 50.9512V51.1121L191.219 52.1151L191.518 51.8138L190.505 50.8108ZM189.3 50.8108C189.121 50.8115 188.946 50.7591 188.796 50.6602C188.647 50.5613 188.53 50.4204 188.461 50.2553C188.392 50.0903 188.373 49.9084 188.408 49.7329C188.442 49.5574 188.529 49.396 188.655 49.2693C188.782 49.1426 188.943 49.0562 189.119 49.021C189.295 48.9859 189.477 49.0036 189.643 49.0719C189.809 49.1402 189.95 49.256 190.05 49.4047C190.15 49.5534 190.203 49.7282 190.203 49.9071C190.204 50.0258 190.181 50.1434 190.136 50.2532C190.091 50.3631 190.025 50.4629 189.941 50.547C189.857 50.631 189.757 50.6976 189.647 50.7429C189.537 50.7882 189.419 50.8113 189.3 50.8108Z"
                      fill="#3F3D56"/>
                <path opacity="0.8"
                      d="M54.632 51.831C55.3618 51.831 55.9534 51.2409 55.9534 50.513C55.9534 49.7851 55.3618 49.1951 54.632 49.1951C53.9023 49.1951 53.3107 49.7851 53.3107 50.513C53.3107 51.2409 53.9023 51.831 54.632 51.831Z"
                      fill="#FA5959"/>
                <path opacity="0.8"
                      d="M58.2666 51.831C58.9964 51.831 59.588 51.2409 59.588 50.513C59.588 49.7851 58.9964 49.1951 58.2666 49.1951C57.5369 49.1951 56.9453 49.7851 56.9453 50.513C56.9453 51.2409 57.5369 51.831 58.2666 51.831Z"
                      fill="#FED253"/>
                <path opacity="0.8"
                      d="M61.9046 51.831C62.6344 51.831 63.226 51.2409 63.226 50.513C63.226 49.7851 62.6344 49.1951 61.9046 49.1951C61.1749 49.1951 60.5833 49.7851 60.5833 50.513C60.5833 51.2409 61.1749 51.831 61.9046 51.831Z"
                      fill="#8CCF4D"/>
                <path d="M171.622 99.7526C168.626 95.7817 164.284 93.2759 159.452 93.2759C154.619 93.2759 150.278 95.7817 147.281 99.7526C147.944 101.373 148.924 102.845 150.164 104.083C151.697 105.611 153.585 106.737 155.661 107.361C157.736 107.985 159.933 108.087 162.058 107.659C164.182 107.23 166.167 106.284 167.836 104.904C169.504 103.525 170.805 101.755 171.622 99.7526V99.7526Z"
                      fill="#3F51B5"/>
                <path d="M145.095 101.735C145.283 101.871 145.486 101.985 145.699 102.077C147.999 106.715 152.762 110.265 158.23 110.563V132.557C154.094 132.311 150.782 130.233 147.999 126.991C147.758 127.173 147.58 127.337 147.415 127.491C147.184 127.709 147.023 127.991 146.951 128.3C146.88 128.609 146.901 128.933 147.014 129.23C147.165 129.639 147.204 130.081 147.127 130.51C147.051 130.939 146.861 131.341 146.577 131.672C146.294 132.004 145.927 132.255 145.515 132.399C145.102 132.543 144.658 132.575 144.229 132.492C143.8 132.408 143.401 132.212 143.073 131.924C142.745 131.636 142.5 131.266 142.362 130.853C142.225 130.439 142.2 129.996 142.29 129.569C142.381 129.143 142.584 128.748 142.878 128.425C142.966 128.329 143.063 128.239 143.166 128.158C143.226 128.104 143.291 128.057 143.362 128.018C143.739 126.656 144.635 125.427 146.09 124.301C144.453 121.509 143.451 118.392 143.156 115.171C142.944 115.173 142.732 115.186 142.521 115.212C142.235 115.25 141.965 115.366 141.74 115.547C141.516 115.728 141.345 115.968 141.248 116.239C141.089 116.659 140.818 117.028 140.465 117.306C140.111 117.584 139.688 117.76 139.241 117.815C138.794 117.871 138.34 117.803 137.929 117.619C137.518 117.435 137.165 117.143 136.909 116.774C136.653 116.405 136.503 115.972 136.475 115.524C136.447 115.076 136.543 114.628 136.752 114.23C136.961 113.833 137.275 113.499 137.661 113.267C138.046 113.034 138.488 112.911 138.938 112.911C139.038 112.913 139.137 112.92 139.237 112.932C139.605 112.667 140.014 112.464 140.448 112.33C141.295 112.065 142.176 111.923 143.063 111.908C143.151 109.625 143.584 107.367 144.347 105.213C143.792 104.898 143.269 104.531 142.785 104.117C142.313 103.697 141.927 103.19 141.646 102.625C141.497 102.339 141.27 102.101 140.99 101.94C140.775 101.811 140.579 101.653 140.407 101.471C140.102 101.143 139.892 100.738 139.801 100.3C139.71 99.8619 139.74 99.4072 139.889 98.9851C140.037 98.5629 140.299 98.1892 140.645 97.9043C140.991 97.6194 141.408 97.4341 141.852 97.3684C142.295 97.3027 142.749 97.3591 143.163 97.5314C143.577 97.7038 143.936 97.9856 144.201 98.3465C144.466 98.7074 144.628 99.1336 144.668 99.5793C144.708 100.025 144.626 100.473 144.429 100.875C144.583 101.208 144.811 101.502 145.095 101.735Z"
                      fill="#3F51B5"/>
                <path d="M233.725 255.105C233.526 254.79 233.274 254.511 232.981 254.28C231.481 252.866 230.784 250.792 230.413 248.758C230.043 246.725 229.936 244.651 229.343 242.662C229.02 241.642 228.616 240.649 228.135 239.694C227.791 238.961 227.359 237.527 226.731 237.013C226.608 236.907 226.458 236.835 226.298 236.805C226.002 236.176 225.579 235.614 225.056 235.155C224.074 234.268 222.877 233.563 222.221 232.416C222.041 232.018 221.819 231.641 221.559 231.29C221.116 230.804 220.416 230.605 220.007 230.092C219.475 229.428 219.595 228.476 219.664 227.63C219.733 226.785 219.664 225.772 218.93 225.327C218.49 225.056 217.924 225.083 217.468 224.844C216.781 224.502 216.51 223.639 216.524 222.869C216.538 222.098 216.778 221.349 216.84 220.579C217.032 218.128 215.412 215.69 216.036 213.314C216.273 212.414 216.815 211.634 217.217 210.795C217.357 210.516 217.472 210.225 217.56 209.925C218.631 210.349 219.756 210.62 220.903 210.73C219.012 206.499 219.493 201.583 218.61 197.037L218.724 196.883C219.615 195.711 220.12 194.293 220.172 192.823C220.172 191.132 219.379 189.55 219.022 187.894C218.717 186.487 218.731 185.015 218.336 183.632C218.062 182.772 217.699 181.944 217.251 181.16C216.824 180.368 216.374 179.589 215.903 178.822C215.463 177.371 215.023 175.919 214.581 174.468C213.963 172.431 213.328 170.36 212.127 168.6C211.688 167.957 211.554 166.649 210.878 166.259C210.329 165.976 209.706 165.867 209.093 165.947C208.139 165.413 207.302 164.643 207.182 163.589C207.17 163.358 207.193 163.128 207.25 162.904H207.367C208.877 162.767 209.642 161.439 210.428 160.275C211.698 158.392 211.214 155.845 210.428 153.703C210.234 153.026 209.881 152.406 209.399 151.892C208.297 150.865 206.554 151.091 205.133 150.594C204.656 150.43 204.209 150.18 203.722 150.064C202.778 149.845 201.79 150.153 200.925 150.587C200.06 151.022 199.253 151.584 198.347 151.926C197.441 152.268 196.322 152.539 196.099 153.466C196.037 153.779 196.063 154.102 196.175 154.401C196.383 154.996 196.75 155.524 197.235 155.928C196.85 156.721 196.641 157.588 196.624 158.47C196.607 159.352 196.781 160.226 197.136 161.034C197.491 161.842 198.017 162.563 198.678 163.148C199.339 163.734 200.12 164.169 200.966 164.424C201.227 164.842 201.471 165.266 201.694 165.701C202.092 166.468 202.428 167.371 202.291 168.193C202.043 168.456 201.813 168.736 201.604 169.032C200.619 170.401 200.06 172.006 199.545 173.609C198.854 175.654 198.3 177.744 197.888 179.863C197.05 181.639 196.027 183.337 195.42 185.203C194.332 185.204 193.249 185.059 192.201 184.772L189.304 184.118C188.295 183.888 187.245 183.642 186.455 182.978C186.037 182.636 185.71 182.18 185.285 181.841C184.859 181.503 184.005 181.105 183.538 181.386C183.453 181.438 183.373 181.499 183.301 181.568C182.876 180.708 182.471 179.856 181.976 179.024C181.266 177.86 180.209 176.796 178.87 176.573C178.052 176.442 177.216 176.636 176.54 177.114C175.757 177.668 175.267 178.826 175.854 179.606C176 179.78 176.16 179.942 176.331 180.092C176.728 180.549 177.083 181.04 177.391 181.561C178.497 183.11 180.152 184.181 182.021 184.559L181.901 184.902C181.657 185.614 181.139 186.473 181.269 187.212L194.153 191.611C194.98 191.946 195.857 192.139 196.748 192.183C197.096 192.18 197.441 192.134 197.778 192.046V192.703V192.731C197.812 197.246 197.091 201.73 196.957 206.242C196.933 207.067 196.957 207.954 197.479 208.597C198.063 209.302 199.099 209.443 200.002 209.282C200.219 209.245 200.432 209.197 200.64 209.138C200.945 210.274 201.166 211.431 201.299 212.599L202.15 218.713C202.26 219.339 202.305 219.974 202.284 220.609C202.184 222.044 201.426 223.327 200.877 224.652C200.328 225.977 200.002 227.562 200.722 228.801C200.949 229.185 201.261 229.51 201.464 229.907C201.721 230.522 201.838 231.186 201.807 231.851C201.86 233.695 201.91 235.541 201.958 237.39C201.808 237.365 201.655 237.396 201.526 237.476C200.812 238.03 200.891 240.669 200.839 241.488C200.784 242.857 200.839 244.254 200.764 245.637C200.674 247.5 200.374 249.348 199.868 251.144C199.744 251.728 199.474 252.271 199.082 252.723C198.681 253.071 198.202 253.318 197.685 253.445C195.975 253.979 194.187 254.222 192.396 254.164C191.672 254.14 190.917 254.071 190.244 254.345C189.572 254.619 189.029 255.372 189.273 256.057C189.482 256.632 190.117 256.906 190.69 257.121C192 257.581 193.264 258.161 194.466 258.854C194.928 259.168 195.416 259.444 195.924 259.679C196.411 259.853 196.915 259.977 197.428 260.048L203.513 261.096C204.759 261.308 206.258 261.438 207.051 260.411C207.48 259.857 207.542 259.103 207.521 258.398C207.487 257.029 207.212 255.636 207.391 254.266C207.526 253.457 207.74 252.663 208.029 251.894C208.636 250.098 209.244 248.303 209.855 246.509C210.466 244.709 211.084 242.891 211.321 241.001C211.407 240.317 211.4 239.536 210.875 239.108C210.742 239 210.587 238.92 210.422 238.876C210.401 237.226 210.185 235.572 210.277 233.922C210.301 233.511 210.343 233.101 210.377 232.686C210.695 232.988 210.979 233.323 211.225 233.686C211.812 234.603 212.028 235.815 212.923 236.425C213.685 236.945 214.815 236.918 215.35 237.671C215.522 237.96 215.651 238.272 215.734 238.598C216.045 239.406 216.512 240.144 217.107 240.772C217.312 241.524 217.596 242.251 217.955 242.942C218.461 244.008 218.964 245.071 219.465 246.129C219.98 247.272 220.553 248.389 221.181 249.474C221.661 250.157 222.047 250.901 222.331 251.685C222.815 253.376 222.025 255.232 220.776 256.478C219.527 257.724 217.879 258.439 216.256 259.107C216.085 259.165 215.928 259.258 215.796 259.381C215.655 259.547 215.581 259.759 215.587 259.976C215.587 260.767 216.239 261.445 216.987 261.688C217.752 261.893 218.553 261.922 219.331 261.774C223.717 261.243 228.09 260.175 231.968 258.049C232.548 257.775 233.062 257.379 233.475 256.889C233.674 256.642 233.803 256.345 233.847 256.031C233.891 255.717 233.849 255.397 233.725 255.105Z"
                      fill="url(#paint0_linear)"/>
                <path d="M215.189 178.339C215.921 179.46 216.607 180.608 217.248 181.783C217.697 182.561 218.061 183.383 218.336 184.238C218.734 185.607 218.724 187.069 219.022 188.465C219.366 190.108 220.169 191.676 220.169 193.361C220.116 194.82 219.61 196.227 218.72 197.386C217.833 198.536 216.818 199.581 215.693 200.501C213.102 193.805 211.654 186.722 211.41 179.548C211.376 178.555 211.369 177.532 211.733 176.604C211.956 176.022 213.026 174.427 213.716 175.053C213.967 175.283 214.032 176.316 214.187 176.662C214.476 177.247 214.811 177.808 215.189 178.339Z"
                      fill="#2F2E41"/>
                <path opacity="0.1"
                      d="M215.189 178.339C215.921 179.46 216.607 180.608 217.248 181.783C217.697 182.561 218.061 183.383 218.336 184.238C218.734 185.607 218.724 187.069 219.022 188.465C219.366 190.108 220.169 191.676 220.169 193.361C220.116 194.82 219.61 196.227 218.72 197.386C217.833 198.536 216.818 199.581 215.693 200.501C213.102 193.805 211.654 186.722 211.41 179.548C211.376 178.555 211.369 177.532 211.733 176.604C211.956 176.022 213.026 174.427 213.716 175.053C213.967 175.283 214.032 176.316 214.187 176.662C214.476 177.247 214.811 177.808 215.189 178.339Z"
                      fill="black"/>
                <path d="M124.705 131.636C121.99 134.341 121.664 135.532 120.034 136.07C118.404 136.607 112.538 139.637 114.381 142.995L119.337 146.26L119.481 146.356L120.24 148.629L112.744 161.939C112.744 161.939 100.389 156.304 99.1772 164.64C97.9656 172.975 98.7344 175.252 98.4084 179.702C98.0823 184.152 98.5148 185.439 97.4268 185.439C96.3388 185.439 95.9098 182.516 95.9098 182.516C95.9098 182.516 95.8412 182.382 95.721 182.132C94.1045 178.781 83.1321 154.178 100.708 137.268C100.708 137.268 108.849 136.734 110.809 127.422C112.161 120.987 116.89 121.541 120.034 122.852C121.056 123.252 122.008 123.81 122.855 124.506C123.618 125.226 124.296 126.03 124.877 126.902C125.772 128.313 126.26 130.082 124.705 131.636Z"
                      fill="#D0D2D5"/>
                <path opacity="0.1"
                      d="M119.481 146.356L120.24 148.629L112.744 161.939C112.744 161.939 100.389 156.304 99.1771 164.64C97.9656 172.975 98.7344 175.252 98.4084 179.702C98.0823 184.152 98.5148 185.439 97.4268 185.439C96.3388 185.439 95.9098 182.516 95.9098 182.516C95.9098 182.516 95.8412 182.382 95.721 182.132C95.1753 177.97 92.4091 153.62 102.438 154.914C102.438 154.914 110.575 158.707 111.876 157.194C112.906 155.996 117.477 149.105 119.337 146.278L119.481 146.356Z"
                      fill="black"/>
                <path opacity="0.1"
                      d="M124.877 126.882L119.921 132.499C119.921 132.499 114.165 140.181 112.971 139.856C112.613 139.778 112.249 139.735 111.883 139.729C111.484 139.699 111.103 139.556 110.782 139.318C110.462 139.08 110.215 138.757 110.071 138.385C109.928 138.013 109.893 137.608 109.97 137.217C110.048 136.826 110.235 136.465 110.51 136.176C112.473 134.122 116.09 130.223 116.327 129.357C116.564 128.491 118.867 124.694 120.02 122.835C121.042 123.235 121.994 123.793 122.841 124.489C123.608 125.207 124.291 126.01 124.877 126.882Z"
                      fill="black"/>
                <path d="M265.098 207.7C264.257 209.378 259.95 215.67 258.066 218.419L257.184 219.712C257.184 219.712 256.841 221.986 251.215 219.168C245.59 216.351 113.424 160.727 113.424 160.727L112.528 158.043L119.049 148.304L263.907 204.127C263.907 204.127 266.186 205.534 265.098 207.7Z"
                      fill="#454B69"/>
                <path opacity="0.1"
                      d="M258.066 218.419L257.184 219.712C257.184 219.712 256.841 221.986 251.215 219.168C245.59 216.351 113.424 160.727 113.424 160.727L112.528 158.043L258.066 218.419Z"
                      fill="black"/>
                <path d="M178.345 182.084C177.003 181.865 175.514 181.972 174.47 182.841C173.84 183.374 173.441 184.13 173.358 184.95C173.269 185.898 173.822 187.024 174.776 187.096C175.005 187.099 175.235 187.084 175.462 187.052C176.065 187.049 176.667 187.099 177.261 187.202C178.43 187.312 179.608 187.14 180.696 186.702C181.785 186.263 182.752 185.571 183.517 184.683C184.338 183.656 183.257 183.211 182.289 183.005C180.964 182.725 179.67 182.297 178.345 182.084Z"
                      fill="#FBBEBE"/>
                <path d="M201.299 213L202.15 219.031C202.259 219.654 202.302 220.286 202.281 220.917C202.181 222.338 201.423 223.612 200.877 224.926C200.331 226.241 199.998 227.815 200.722 229.034C200.946 229.414 201.258 229.739 201.46 230.133C201.718 230.742 201.835 231.4 201.804 232.06L202.037 240.618C204.686 240.798 207.345 240.784 209.993 240.574C210.096 240.578 210.198 240.547 210.281 240.485C210.351 240.396 210.386 240.285 210.38 240.173C210.497 238.17 210.147 236.164 210.26 234.162C210.301 233.429 210.404 232.7 210.418 231.964C210.459 228.983 208.983 226.063 209.43 223.115C209.57 222.371 209.753 221.636 209.979 220.914C211.389 215.779 211.091 210.384 210.778 205.082C210.784 204.996 210.76 204.912 210.71 204.842C210.659 204.791 210.595 204.757 210.524 204.743C209.023 204.293 207.435 204.211 205.895 204.503C204.355 204.795 202.908 205.453 201.677 206.42C201.302 206.721 200.359 207.012 200.112 207.372C199.768 207.872 200.218 208.371 200.417 208.902C200.858 210.232 201.154 211.606 201.299 213Z"
                      fill="#3F3D56"/>
                <path opacity="0.1"
                      d="M201.299 213L202.15 219.031C202.259 219.654 202.302 220.286 202.281 220.917C202.181 222.338 201.423 223.612 200.877 224.926C200.331 226.241 199.998 227.815 200.722 229.034C200.946 229.414 201.258 229.739 201.46 230.133C201.718 230.742 201.835 231.4 201.804 232.06L202.037 240.618C204.686 240.798 207.345 240.784 209.993 240.574C210.096 240.578 210.198 240.547 210.281 240.485C210.351 240.396 210.386 240.285 210.38 240.173C210.497 238.17 210.147 236.164 210.26 234.162C210.301 233.429 210.404 232.7 210.418 231.964C210.459 228.983 208.983 226.063 209.43 223.115C209.57 222.371 209.753 221.636 209.979 220.914C211.389 215.779 211.091 210.384 210.778 205.082C210.784 204.996 210.76 204.912 210.71 204.842C210.659 204.791 210.595 204.757 210.524 204.743C209.023 204.293 207.435 204.211 205.895 204.503C204.355 204.795 202.908 205.453 201.677 206.42C201.302 206.721 200.359 207.012 200.112 207.372C199.768 207.872 200.218 208.371 200.417 208.902C200.858 210.232 201.154 211.606 201.299 213Z"
                      fill="black"/>
                <path d="M217.214 211.182C216.812 212.014 216.273 212.787 216.033 213.681C215.408 216.039 217.025 218.473 216.833 220.89C216.771 221.653 216.534 222.396 216.517 223.16C216.5 223.923 216.781 224.772 217.461 225.125C217.917 225.357 218.49 225.333 218.919 225.6C219.644 226.042 219.726 227.045 219.654 227.887C219.582 228.729 219.462 229.671 219.997 230.328C220.405 230.838 221.106 231.036 221.545 231.519C221.806 231.866 222.028 232.24 222.207 232.635C222.863 233.778 224.061 234.477 225.042 235.374C226.024 236.271 226.854 237.585 226.415 238.828C226.092 239.738 225.186 240.3 224.315 240.728C222.724 241.512 221.045 242.104 219.314 242.491C219.128 242.547 218.932 242.557 218.741 242.521C218.548 242.451 218.375 242.333 218.24 242.179C217.227 241.19 216.181 240.153 215.714 238.821C215.631 238.498 215.501 238.189 215.329 237.903C214.794 237.154 213.665 237.181 212.903 236.664C212.011 236.058 211.794 234.857 211.211 233.95C210.627 233.042 209.773 232.502 209.152 231.704C208.101 230.376 207.844 228.603 207.092 227.086C206.773 226.443 206.365 225.84 206.111 225.169C205.855 224.365 205.697 223.533 205.641 222.691C205.157 218.692 203.925 214.667 204.7 210.709C204.872 209.84 205.136 208.998 205.246 208.101C205.435 206.55 205.136 204.962 205.366 203.415C205.372 203.22 205.421 203.03 205.511 202.857C205.601 202.685 205.728 202.535 205.884 202.418C206.07 202.335 206.271 202.294 206.475 202.299C208.509 202.19 210.549 202.236 212.577 202.435C213.607 202.535 214.76 202.744 215.377 203.582C215.903 204.301 215.875 205.263 216.043 206.136C216.253 207.211 216.798 207.796 217.371 208.638C217.945 209.48 217.636 210.312 217.214 211.182Z"
                      fill="#3F3D56"/>
                <path d="M209.296 238.999C209.838 238.999 210.439 238.965 210.857 239.307C211.379 239.735 211.386 240.519 211.304 241.186C211.063 243.062 210.449 244.866 209.835 246.663L208.009 252.007C207.72 252.77 207.506 253.558 207.37 254.362C207.192 255.732 207.466 257.101 207.501 258.47C207.501 259.155 207.456 259.915 207.027 260.466C206.252 261.462 204.738 261.346 203.492 261.151L197.414 260.124C196.901 260.055 196.397 259.933 195.911 259.757C195.403 259.524 194.916 259.25 194.452 258.939C193.249 258.254 191.985 257.681 190.677 257.228C190.107 257.015 189.469 256.745 189.263 256.173C189.019 255.489 189.561 254.735 190.234 254.462C190.907 254.188 191.658 254.256 192.386 254.277C194.175 254.334 195.961 254.093 197.671 253.565C198.186 253.439 198.664 253.192 199.065 252.846C199.472 252.389 199.749 251.833 199.868 251.233C200.386 249.449 200.694 247.611 200.788 245.756C200.86 244.387 200.812 243.018 200.867 241.648C200.901 240.837 200.822 238.225 201.536 237.667C202.082 237.25 204.326 238.403 205.064 238.571C206.451 238.888 207.873 239.032 209.296 238.999Z"
                      fill="#2F2E41"/>
                <path d="M229.319 242.806C229.912 244.767 230.005 246.841 230.389 248.858C230.774 250.874 231.453 252.931 232.953 254.335C233.245 254.566 233.497 254.844 233.698 255.156C233.825 255.45 233.868 255.772 233.822 256.088C233.777 256.404 233.645 256.701 233.441 256.947C233.026 257.434 232.513 257.827 231.934 258.1C228.059 260.209 223.697 261.274 219.3 261.801C218.523 261.946 217.724 261.917 216.96 261.715C216.211 261.462 215.549 260.791 215.563 260.004C215.556 259.788 215.629 259.577 215.769 259.412C215.902 259.29 216.06 259.198 216.232 259.141C217.852 258.477 219.496 257.755 220.749 256.529C222.001 255.304 222.787 253.448 222.303 251.785C222.017 251.005 221.628 250.268 221.147 249.59C220.519 248.514 219.947 247.407 219.431 246.273L217.921 243.114C217.478 242.189 217.032 241.238 216.956 240.218C218.853 240.302 220.748 239.999 222.523 239.328C223.352 238.99 224.124 238.529 224.812 237.958C225.396 237.472 225.928 236.565 226.714 237.198C227.345 237.705 227.743 239.132 228.114 239.855C228.596 240.804 228.998 241.791 229.319 242.806Z"
                      fill="#2F2E41"/>
                <path d="M207.188 164.349C207.339 165.663 208.616 166.529 209.835 167.05L202.123 169.504C202.62 168.552 202.219 167.389 201.725 166.423C201.322 165.659 200.863 164.925 200.352 164.229C200.276 164.123 200.19 163.989 200.245 163.866C200.294 163.786 200.371 163.726 200.462 163.698C202.047 162.993 203.681 162.264 205.414 162.007C205.915 161.935 206.862 161.737 207.237 162.243C207.611 162.75 207.116 163.743 207.188 164.349Z"
                      fill="#FBBEBE"/>
                <path opacity="0.1"
                      d="M207.188 164.349C207.339 165.663 208.616 166.529 209.835 167.05L202.123 169.504C202.62 168.552 202.219 167.389 201.725 166.423C201.322 165.659 200.863 164.925 200.352 164.229C200.276 164.123 200.19 163.989 200.245 163.866C200.294 163.786 200.371 163.726 200.462 163.698C202.047 162.993 203.681 162.264 205.414 162.007C205.915 161.935 206.862 161.737 207.237 162.243C207.611 162.75 207.116 163.743 207.188 164.349Z"
                      fill="black"/>
                <path d="M202.706 165.413C206.046 165.413 208.754 162.713 208.754 159.382C208.754 156.05 206.046 153.35 202.706 153.35C199.366 153.35 196.659 156.05 196.659 159.382C196.659 162.713 199.366 165.413 202.706 165.413Z"
                      fill="#FBBEBE"/>
                <path d="M197.465 209.018C198.052 209.72 199.085 209.857 199.988 209.703C202.099 209.361 203.825 207.81 205.891 207.252C208.424 206.567 211.105 207.447 213.497 208.525C215.889 209.604 218.267 210.922 220.883 211.107C218.518 205.848 219.87 199.522 217.608 194.22C217.056 192.922 216.284 191.673 216.16 190.269C216.006 188.527 216.877 186.846 217.011 185.114C217.135 183.57 216.668 182.033 216.222 180.561C215.67 178.754 215.119 176.946 214.567 175.139C213.95 173.116 213.315 171.058 212.117 169.319C211.674 168.679 211.54 167.382 210.868 166.995C209.399 166.149 207.171 167.214 205.579 167.272C203.986 167.33 202.535 168.46 201.604 169.737C200.619 171.086 200.06 172.691 199.545 174.28C198.725 176.645 198.113 179.076 197.716 181.547C197.664 181.917 197.62 182.286 197.585 182.66C197.242 186.175 197.743 189.711 197.771 193.244V193.268C197.805 197.749 197.084 202.203 196.951 206.68C196.937 207.498 196.957 208.392 197.465 209.018Z"
                      fill="#2F2E41"/>
                <path opacity="0.1"
                      d="M197.781 193.248C198.965 192.95 200.036 192.186 200.956 191.351C201.752 190.64 202.46 189.835 203.063 188.955C203.822 187.771 204.432 186.498 204.879 185.165C206.149 181.601 206.957 177.888 207.281 174.119C207.37 173.092 207.398 171.989 206.784 171.175C206.439 170.733 205.954 170.421 205.409 170.29C204.864 170.158 204.29 170.214 203.78 170.449C202.97 170.843 202.445 171.64 201.958 172.404C200.994 173.917 200.022 175.45 199.401 177.134C199.127 177.881 198.924 178.648 198.656 179.397C198.384 180.137 198.07 180.86 197.716 181.564C197.664 181.934 197.62 182.304 197.585 182.677C197.266 186.192 197.754 189.715 197.781 193.248Z"
                      fill="black"/>
                <path d="M206.766 170.514C207.381 171.329 207.353 172.441 207.267 173.455C206.944 177.224 206.136 180.937 204.865 184.501C204.422 185.845 203.812 187.129 203.049 188.322C202.445 189.201 201.738 190.006 200.942 190.718C199.775 191.779 198.354 192.727 196.772 192.741C195.882 192.699 195.004 192.508 194.177 192.176L181.29 187.801C181.16 187.069 181.678 186.213 181.921 185.508L182.608 183.478C182.803 182.916 183.03 182.31 183.541 182.006C184.053 181.701 184.863 182.119 185.288 182.458C185.714 182.796 186.037 183.242 186.455 183.587C187.248 184.245 188.295 184.491 189.304 184.717L192.197 185.364C193.246 185.65 194.329 185.794 195.416 185.792C196.223 183.334 197.757 181.17 198.625 178.733C198.893 177.987 199.096 177.217 199.374 176.47C199.991 174.786 200.966 173.256 201.931 171.74C202.414 170.98 202.94 170.182 203.753 169.785C204.264 169.547 204.84 169.49 205.388 169.622C205.936 169.755 206.422 170.069 206.766 170.514Z"
                      fill="#2F2E41"/>
                <path d="M204.635 160.744C204.589 160.347 204.466 159.964 204.271 159.614C204.17 159.44 204.016 159.302 203.831 159.22C203.645 159.139 203.439 159.119 203.242 159.163C202.638 159.351 202.435 160.282 201.804 160.313C201.378 160.333 201.073 159.902 200.939 159.498C200.805 159.094 200.733 158.632 200.414 158.348C200.191 158.182 199.936 158.065 199.665 158.006C198.2 157.543 196.686 156.691 196.199 155.236C196.084 154.941 196.057 154.619 196.12 154.308C196.343 153.388 197.493 153.11 198.368 152.778C199.243 152.446 200.084 151.878 200.942 151.447C201.8 151.015 202.795 150.711 203.739 150.93C204.218 151.08 204.689 151.255 205.15 151.454C206.571 151.946 208.311 151.717 209.412 152.741C209.894 153.248 210.247 153.863 210.442 154.534C211.211 156.664 211.698 159.19 210.425 161.059C209.639 162.213 208.877 163.531 207.367 163.671C205.61 163.818 204.913 162.23 204.635 160.744Z"
                      fill="#2F2E41"/>
                <g opacity="0.1">
                    <path opacity="0.1"
                          d="M201.951 158.772C201.817 158.368 201.745 157.906 201.429 157.622C201.207 157.456 200.952 157.34 200.681 157.28C199.212 156.818 197.702 155.965 197.211 154.51C197.1 154.214 197.073 153.893 197.136 153.583C197.17 153.436 197.231 153.298 197.318 153.175C196.758 153.418 196.271 153.74 196.134 154.308C196.071 154.619 196.098 154.941 196.213 155.236C196.7 156.691 198.214 157.543 199.679 158.006C199.95 158.065 200.205 158.182 200.427 158.348C200.746 158.632 200.815 159.091 200.952 159.498C201.09 159.905 201.392 160.333 201.817 160.313C202.243 160.292 202.449 159.905 202.72 159.58C202.346 159.532 202.075 159.149 201.951 158.772Z"
                          fill="black"/>
                    <path opacity="0.1"
                          d="M208.376 162.935C206.612 163.096 205.915 161.494 205.63 160.018C205.593 159.623 205.476 159.239 205.287 158.889C205.186 158.714 205.031 158.577 204.846 158.495C204.661 158.414 204.455 158.394 204.257 158.437C203.944 158.588 203.681 158.826 203.499 159.121C203.657 159.137 203.808 159.188 203.943 159.271C204.077 159.354 204.191 159.467 204.275 159.601C204.469 159.95 204.593 160.334 204.638 160.73C204.916 162.206 205.613 163.811 207.384 163.647C208.084 163.57 208.73 163.236 209.196 162.709C208.937 162.829 208.66 162.906 208.376 162.935Z"
                          fill="black"/>
                </g>
                <path d="M279.067 226.614C285.187 226.614 290.149 225.662 290.149 224.488C290.149 223.314 285.187 222.362 279.067 222.362C272.946 222.362 267.985 223.314 267.985 224.488C267.985 225.662 272.946 226.614 279.067 226.614Z"
                      fill="#3F51B5"/>
                <path d="M278.881 225.268C279.594 225.268 280.172 224.514 280.172 223.584C280.172 222.654 279.594 221.9 278.881 221.9C278.169 221.9 277.591 222.654 277.591 223.584C277.591 224.514 278.169 225.268 278.881 225.268Z"
                      fill="#3F3D56"/>
                <path d="M278.881 223.208C279.594 223.208 280.172 222.454 280.172 221.523C280.172 220.593 279.594 219.839 278.881 219.839C278.169 219.839 277.591 220.593 277.591 221.523C277.591 222.454 278.169 223.208 278.881 223.208Z"
                      fill="#3F3D56"/>
                <path d="M278.881 221.15C279.594 221.15 280.172 220.396 280.172 219.466C280.172 218.536 279.594 217.782 278.881 217.782C278.169 217.782 277.591 218.536 277.591 219.466C277.591 220.396 278.169 221.15 278.881 221.15Z"
                      fill="#3F3D56"/>
                <path d="M278.881 219.089C279.594 219.089 280.172 218.335 280.172 217.405C280.172 216.475 279.594 215.721 278.881 215.721C278.169 215.721 277.591 216.475 277.591 217.405C277.591 218.335 278.169 219.089 278.881 219.089Z"
                      fill="#3F3D56"/>
                <path d="M278.881 217.029C279.594 217.029 280.172 216.275 280.172 215.344C280.172 214.414 279.594 213.66 278.881 213.66C278.169 213.66 277.591 214.414 277.591 215.344C277.591 216.275 278.169 217.029 278.881 217.029Z"
                      fill="#3F3D56"/>
                <path d="M278.881 214.971C279.594 214.971 280.172 214.217 280.172 213.287C280.172 212.357 279.594 211.603 278.881 211.603C278.169 211.603 277.591 212.357 277.591 213.287C277.591 214.217 278.169 214.971 278.881 214.971Z"
                      fill="#3F3D56"/>
                <path d="M278.881 212.911C279.594 212.911 280.172 212.156 280.172 211.226C280.172 210.296 279.594 209.542 278.881 209.542C278.169 209.542 277.591 210.296 277.591 211.226C277.591 212.156 278.169 212.911 278.881 212.911Z"
                      fill="#3F3D56"/>
                <path d="M283.71 197.147C283.887 196.923 284.047 196.687 284.191 196.441L280.8 195.887L284.469 195.911C284.819 195.147 285.01 194.32 285.03 193.48C285.05 192.641 284.899 191.806 284.586 191.026L279.664 193.573L284.201 190.245C283.775 189.514 283.203 188.879 282.521 188.378C281.838 187.877 281.059 187.521 280.233 187.333C279.407 187.145 278.551 187.129 277.718 187.285C276.885 187.441 276.093 187.767 275.391 188.241C274.69 188.716 274.094 189.329 273.64 190.043C273.187 190.758 272.886 191.557 272.755 192.392C272.625 193.228 272.668 194.081 272.882 194.899C273.097 195.717 273.477 196.482 274.001 197.147C273.725 197.494 273.488 197.871 273.294 198.269L277.697 200.553L273.002 198.981C272.674 199.952 272.594 200.988 272.768 201.997C272.943 203.006 273.366 203.955 274.001 204.76C273.285 205.669 272.84 206.761 272.716 207.91C272.593 209.059 272.796 210.22 273.303 211.26C273.81 212.3 274.599 213.176 275.582 213.79C276.564 214.403 277.7 214.728 278.859 214.728C280.018 214.728 281.154 214.403 282.136 213.79C283.119 213.176 283.909 212.3 284.415 211.26C284.922 210.22 285.125 209.059 285.002 207.91C284.878 206.761 284.433 205.669 283.717 204.76C284.575 203.673 285.041 202.331 285.041 200.948C285.041 199.565 284.575 198.223 283.717 197.136L283.71 197.147Z"
                      fill="#3F51B5"/>
                <path opacity="0.1"
                      d="M272.669 200.946C272.669 202.331 273.138 203.675 274.001 204.76C273.285 205.669 272.84 206.761 272.717 207.91C272.593 209.059 272.796 210.22 273.303 211.26C273.81 212.3 274.599 213.176 275.582 213.79C276.564 214.403 277.7 214.728 278.859 214.728C280.018 214.728 281.154 214.403 282.136 213.79C283.119 213.176 283.908 212.3 284.415 211.26C284.922 210.22 285.125 209.059 285.002 207.91C284.878 206.761 284.433 205.669 283.717 204.76C284.538 203.709 272.669 200.255 272.669 200.946Z"
                      fill="black"/>
                <path d="M50.9391 269C59.7513 269 66.8949 267.63 66.8949 265.94C66.8949 264.249 59.7513 262.879 50.9391 262.879C42.127 262.879 34.9833 264.249 34.9833 265.94C34.9833 267.63 42.127 269 50.9391 269Z"
                      fill="#3F51B5"/>
                <path d="M50.6714 267.066C51.6969 267.066 52.5282 265.979 52.5282 264.639C52.5282 263.298 51.6969 262.212 50.6714 262.212C49.6459 262.212 48.8146 263.298 48.8146 264.639C48.8146 265.979 49.6459 267.066 50.6714 267.066Z"
                      fill="#3F3D56"/>
                <path d="M50.6714 264.101C51.6969 264.101 52.5282 263.015 52.5282 261.674C52.5282 260.334 51.6969 259.247 50.6714 259.247C49.6459 259.247 48.8146 260.334 48.8146 261.674C48.8146 263.015 49.6459 264.101 50.6714 264.101Z"
                      fill="#3F3D56"/>
                <path d="M50.6714 261.137C51.6969 261.137 52.5282 260.05 52.5282 258.71C52.5282 257.369 51.6969 256.283 50.6714 256.283C49.6459 256.283 48.8146 257.369 48.8146 258.71C48.8146 260.05 49.6459 261.137 50.6714 261.137Z"
                      fill="#3F3D56"/>
                <path d="M50.6714 258.172C51.6969 258.172 52.5282 257.086 52.5282 255.745C52.5282 254.405 51.6969 253.318 50.6714 253.318C49.6459 253.318 48.8146 254.405 48.8146 255.745C48.8146 257.086 49.6459 258.172 50.6714 258.172Z"
                      fill="#3F3D56"/>
                <path d="M50.6714 255.208C51.6969 255.208 52.5282 254.121 52.5282 252.781C52.5282 251.44 51.6969 250.354 50.6714 250.354C49.6459 250.354 48.8146 251.44 48.8146 252.781C48.8146 254.121 49.6459 255.208 50.6714 255.208Z"
                      fill="#3F3D56"/>
                <path d="M50.6714 252.24C51.6969 252.24 52.5282 251.153 52.5282 249.813C52.5282 248.472 51.6969 247.386 50.6714 247.386C49.6459 247.386 48.8146 248.472 48.8146 249.813C48.8146 251.153 49.6459 252.24 50.6714 252.24Z"
                      fill="#3F3D56"/>
                <path d="M50.6714 249.275C51.6969 249.275 52.5282 248.189 52.5282 246.848C52.5282 245.508 51.6969 244.421 50.6714 244.421C49.6459 244.421 48.8146 245.508 48.8146 246.848C48.8146 248.189 49.6459 249.275 50.6714 249.275Z"
                      fill="#3F3D56"/>
                <path d="M57.6248 226.562C57.8761 226.236 58.1054 225.892 58.3112 225.535L53.4308 224.734L58.7093 224.775C59.2153 223.676 59.4911 222.485 59.52 221.275C59.549 220.066 59.3303 218.863 58.8775 217.741L51.8005 221.417L58.3215 216.625C57.7109 215.568 56.8884 214.648 55.9055 213.922C54.9226 213.197 53.8002 212.681 52.6086 212.407C51.4169 212.133 50.1814 212.108 48.9793 212.331C47.7771 212.555 46.6341 213.023 45.6215 213.707C44.6089 214.391 43.7484 215.276 43.0939 216.306C42.4393 217.336 42.0046 218.49 41.817 219.695C41.6294 220.901 41.6928 222.131 42.0033 223.311C42.3139 224.491 42.8648 225.594 43.6219 226.552C43.221 227.052 42.8758 227.594 42.5922 228.168L48.9313 231.454L42.1735 229.191C41.6999 230.594 41.5856 232.093 41.8409 233.551C42.0963 235.01 42.7132 236.381 43.6356 237.541C42.603 238.85 41.9606 240.423 41.7819 242.079C41.6032 243.735 41.8953 245.408 42.625 246.907C43.3546 248.405 44.4923 249.668 45.908 250.552C47.3236 251.436 48.9601 251.905 50.6302 251.905C52.3004 251.905 53.9368 251.436 55.3524 250.552C56.7681 249.668 57.9058 248.405 58.6354 246.907C59.3651 245.408 59.6572 243.735 59.4785 242.079C59.2998 240.423 58.6574 238.85 57.6248 237.541C58.859 235.976 59.53 234.044 59.53 232.053C59.53 230.063 58.859 228.13 57.6248 226.566V226.562Z"
                      fill="#3F51B5"/>
                <path opacity="0.1"
                      d="M41.7308 232.063C41.7311 234.051 42.4021 235.98 43.6356 237.541C42.603 238.85 41.9606 240.423 41.7819 242.079C41.6032 243.735 41.8954 245.408 42.625 246.907C43.3547 248.405 44.4924 249.668 45.908 250.552C47.3236 251.436 48.9601 251.905 50.6302 251.905C52.3004 251.905 53.9368 251.436 55.3525 250.552C56.7681 249.668 57.9058 248.405 58.6354 246.907C59.3651 245.408 59.6572 243.735 59.4785 242.079C59.2998 240.423 58.6574 238.85 57.6248 237.541C58.8089 236.028 41.7308 231.054 41.7308 232.063Z"
                      fill="black" fill-opacity="0.87"/>
                <defs>
                    <linearGradient id="paint0_linear" x1="206.571" y1="262.337" x2="202.052" y2="150.013"
                                    gradientUnits="userSpaceOnUse">
                        <stop stop-color="#808080" stop-opacity="0.25"/>
                        <stop offset="0.54" stop-color="#808080" stop-opacity="0.12"/>
                        <stop offset="1" stop-color="#808080" stop-opacity="0.1"/>
                    </linearGradient>
                </defs>
            </svg>