<svg xmlns="http://www.w3.org/2000/svg" width="64" height="64" viewBox="1 1 14.933 14.933"><path d="M6.432 3.495c-.144 0-.263.042-.347.125l-.412.412c-.336.336.025 1.238.81 2.023l.92.92c-.046.031-.089.068-.129.108L5.969 8.388a.89.89 0 0 0 0 1.265l1.159 1.159a.89.89 0 0 0 1.265 0l1.304-1.304a.88.88 0 0 0 .107-.129l.981.981c.785.785 1.687 1.146 2.023.81l.412-.412c.336-.336-.025-1.238-.81-2.023L8.108 4.431c-.589-.589-1.243-.939-1.676-.936z" class="OxModuleIcon-primary"/><g class="OxModuleIcon-secondary"><path d="M12.587 1.677a2.502 2.502 0 0 0-2.379 3.273c-.074.03-.143.076-.203.136l-.62.62 1.664 1.664.621-.621a.61.61 0 0 0 .132-.196 2.502 2.502 0 0 0 3.289-2.374 2.502 2.502 0 0 0-2.502-2.502zM5.969 7.286c-2.277 0-4.124 1.846-4.124 4.124s1.846 4.124 4.124 4.124 4.124-1.847 4.124-4.124c0-.668-.16-1.298-.442-1.856l-1.257 1.257c-.071.071-.151.126-.235.168.027.139.043.283.043.431 0 1.233-.999 2.232-2.232 2.232a2.23 2.23 0 0 1-2.232-2.232 2.23 2.23 0 0 1 1.988-2.218.89.89 0 0 1 .245-.804l.982-.982c-.315-.077-.644-.119-.984-.119zm.984.119a4.07 4.07 0 0 1 .845.308 4.09 4.09 0 0 0-.845-.308zm.845.308l.196.104-.196-.104zm.198.105l.187.113-.187-.113zm.191.115l.133.09-.133-.09zm.373.269l.081.069-.081-.069zm.314.28l.045.048-.045-.048zm.233.254l.064.073-.064-.073zm.242.312l.082.119-.082-.119zm.082.119l.113.185-.113-.185zm-3.46.01l.215.01c-.071-.01-.142-.01-.215-.01zm0 0c-.065 0-.127 0-.19.01.063-.01.126-.01.19-.01zm.246.015l.186.028c-.061-.013-.123-.022-.186-.028zm.22.035l.179.046-.179-.046zm.215.056l.18.067-.18-.067zm.198.074l.179.086-.179-.086zm2.7 0l.103.191-.103-.191zm-2.505.091l.155.094-.155-.094zm.187.115l.143.107-.143-.107zm.167.126l.139.126-.139-.126zm.162.15l.119.131-.119-.131zm.147.164l.095.126-.095-.126zm.129.176l.085.141-.085-.141zm.106.179l.075.155-.075-.155zm.098.208l.053.146-.053-.146zm.07.199l.04.152-.04-.152z"/><path d="M9.383 5.706l-.275.275a.61.61 0 0 0 0 .868l.796.796c.241.24.628.24.868 0l.274-.275zM6.952 7.405l-.982.982a.89.89 0 0 0-.245.804c.08-.01.162-.015.244-.015 1.085 0 1.988.775 2.19 1.801.084-.042.164-.098.235-.168L9.65 9.553a4.13 4.13 0 0 0-2.698-2.149z" opacity=".5"/></g></svg>
