<svg xmlns="http://www.w3.org/2000/svg" width="64" height="64" viewBox="0 0 16.933 16.933"><path d="M6.722 5.304c-.312 0-.564.267-.564.598s.251.598.564.598h.089v3.683c-.098.06-.179.147-.236.251l-3.849 5.187c-.293.456.104 1.007.726 1.007h10.029c.622 0 1.02-.551.726-1.007l-3.85-5.187c-.057-.104-.138-.191-.236-.251V6.5h.089c.265 0 .564-.267.564-.598s-.252-.598-.564-.598h-3.4z" class="OxModuleIcon-primary"/><g class="OxModuleIcon-secondary"><path d="M8.763.306c-.589 0-1.067.478-1.067 1.067s.478 1.067 1.067 1.067 1.067-.478 1.067-1.067S9.352.306 8.763.306zM7.514 2.478c-.195 0-.383.077-.521.215s-.216.325-.216.52.078.382.216.52.325.215.521.215c.406 0 .736-.329.736-.736s-.329-.736-.736-.736zm1.212 1.469c-.137 0-.268.054-.365.151s-.151.228-.151.365.054.268.151.365.228.151.365.151.268-.054.365-.151.151-.228.151-.365-.054-.268-.151-.365-.228-.151-.365-.151z"/></g></svg>
