<svg width="210" height="214" viewBox="0 0 210 214" fill="none" xmlns="http://www.w3.org/2000/svg">
<g clip-path="url(#clip0_86_876)">
<g opacity="0.5">
<path opacity="0.5" d="M136.909 9.65308H0V199.198H136.909V9.65308Z" fill="url(#paint0_linear_86_876)"/>
</g>
<path d="M134.414 12.2263H1.78271V195.159H134.414V12.2263Z" fill="#F2F2F2"/>
<path d="M57.7602 19.9385H12.124V21.4076H57.7602V19.9385Z" fill="#E0E0E0"/>
<path opacity="0.7" d="M57.7602 26.5503H12.124V28.0194H57.7602V26.5503Z" fill="#6C63FF"/>
<path d="M110.171 19.9385H64.5352V21.4076H110.171V19.9385Z" fill="#E0E0E0"/>
<path d="M117.3 61.8169H71.6636V63.286H117.3V61.8169Z" fill="#E0E0E0"/>
<path d="M118.37 65.8557H72.7339V67.3248H118.37V65.8557Z" fill="#E0E0E0"/>
<path d="M120.513 69.8979H74.8765V71.367H120.513V69.8979Z" fill="#E0E0E0"/>
<path d="M117.3 126.833H71.6636V128.303H117.3V126.833Z" fill="#E0E0E0"/>
<path d="M118.37 130.875H72.7339V132.344H118.37V130.875Z" fill="#E0E0E0"/>
<path d="M120.513 134.914H74.8765V136.383H120.513V134.914Z" fill="#E0E0E0"/>
<g opacity="0.5">
<path opacity="0.5" d="M60.9679 46.7537H12.48V97.4455H60.9679V46.7537Z" fill="url(#paint1_linear_86_876)"/>
</g>
<path d="M60.5102 47.8577H12.7856V96.3447H60.5102V47.8577Z" fill="#F5F5F5"/>
<g opacity="0.5">
<path opacity="0.5" d="M58.9807 50.7954H14.4678V82.3852H58.9807V50.7954Z" fill="url(#paint2_linear_86_876)"/>
</g>
<path d="M58.6726 51.1633H14.7734V81.6519H58.6726V51.1633Z" fill="white"/>
<path opacity="0.4" d="M11.0514 80.5512L22.1061 62.9177L26.7402 70.6303L36.7238 59.9801L45.2843 70.6303L52.7703 54.8372L72.0199 86.4269L9.62549 84.2222L11.0514 80.5512Z" fill="#6C63FF"/>
<path opacity="0.4" d="M19.6097 58.8759C21.3819 58.8759 22.8186 57.3958 22.8186 55.5699C22.8186 53.7441 21.3819 52.2639 19.6097 52.2639C17.8375 52.2639 16.4009 53.7441 16.4009 55.5699C16.4009 57.3958 17.8375 58.8759 19.6097 58.8759Z" fill="#6C63FF"/>
<g opacity="0.5">
<path opacity="0.5" d="M60.9679 111.773H12.48V162.465H60.9679V111.773Z" fill="url(#paint3_linear_86_876)"/>
</g>
<path d="M60.5102 112.874H12.7856V161.361H60.5102V112.874Z" fill="#F5F5F5"/>
<g opacity="0.5">
<path opacity="0.5" d="M58.9807 115.815H14.4678V147.404H58.9807V115.815Z" fill="url(#paint4_linear_86_876)"/>
</g>
<path d="M58.6726 116.18H14.7734V146.668H58.6726V116.18Z" fill="white"/>
<path opacity="0.4" d="M11.0514 145.568L22.1061 127.934L26.7402 135.65L36.7238 124.996L45.2843 135.65L52.7703 119.854L72.0199 151.443L9.62549 149.241L11.0514 145.568Z" fill="#BDBDBD"/>
<path opacity="0.4" d="M19.6097 123.896C21.3819 123.896 22.8186 122.416 22.8186 120.59C22.8186 118.764 21.3819 117.284 19.6097 117.284C17.8375 117.284 16.4009 118.764 16.4009 120.59C16.4009 122.416 17.8375 123.896 19.6097 123.896Z" fill="#BDBDBD"/>
<g opacity="0.5">
<path opacity="0.5" d="M55.9601 0.287381L20.1001 186.196L154.383 213.691L190.243 27.7816L55.9601 0.287381Z" fill="url(#paint5_linear_86_876)"/>
</g>
<path d="M57.2201 3.16804L22.6108 182.592L152.698 209.227L187.307 29.8032L57.2201 3.16804Z" fill="white"/>
<path d="M157.401 32.2884L65.0791 13.3857L64.8012 14.8266L157.123 33.7293L157.401 32.2884Z" fill="#E0E0E0"/>
<path d="M131.133 168.48L38.8115 149.577L38.5336 151.018L130.855 169.921L131.133 168.48Z" fill="#E0E0E0"/>
<path d="M108.55 172.468L37.2104 157.861L36.9325 159.302L108.272 173.909L108.55 172.468Z" fill="#E0E0E0"/>
<path opacity="0.7" d="M62.1896 171.592L35.6138 166.15L35.3358 167.591L61.9116 173.033L62.1896 171.592Z" fill="#039BE5"/>
<path opacity="0.7" d="M109.639 31.1254L63.4795 21.6743L63.2016 23.1152L109.361 32.5663L109.639 31.1254Z" fill="#039BE5"/>
<path d="M145.112 47.0004L61.8848 29.9597L61.6068 31.4006L144.834 48.4413L145.112 47.0004Z" fill="#E0E0E0"/>
<path opacity="0.7" d="M80.5659 42.4006L60.2847 38.248L60.0067 39.6889L80.288 43.8415L80.5659 42.4006Z" fill="#3AD29F"/>
<path d="M151.01 65.4373L58.689 46.5347L58.411 47.9756L150.733 66.8782L151.01 65.4373Z" fill="#E0E0E0"/>
<g opacity="0.5">
<path opacity="0.5" d="M66.8223 81.537L57.3711 130.535L140.249 147.504L149.7 98.506L66.8223 81.537Z" fill="url(#paint6_linear_86_876)"/>
</g>
<path d="M149.121 98.7595L67.292 82.0051L58.0491 129.923L139.878 146.677L149.121 98.7595Z" fill="white"/>
<path d="M149.41 73.7269L57.0884 54.8242L56.8104 56.2651L149.132 75.1678L149.41 73.7269Z" fill="#E0E0E0"/>
<path d="M84.7536 92.3212L74.6113 90.2446L67.8702 125.193L78.0124 127.269L84.7536 92.3212Z" fill="#3F51B5"/>
<path d="M100.713 107.574L90.5703 105.498L86.053 128.917L96.1952 130.994L100.713 107.574Z" fill="#3AD29F"/>
<path d="M116.815 122.107L106.672 120.03L104.24 132.639L114.382 134.716L116.815 122.107Z" fill="#F55F44"/>
<path d="M137.502 112.859L127.359 110.783L122.425 136.364L132.567 138.441L137.502 112.859Z" fill="#7BC5EA"/>
<path d="M167.09 78.7899C162.691 74.0761 157.421 70.3164 151.591 67.7321C145.761 65.1478 139.487 63.7911 133.141 63.7419C126.794 63.6926 120.501 64.9518 114.634 67.4454C108.766 69.9389 103.442 73.6165 98.9748 78.2615C80.9622 96.9715 80.6567 127.434 98.2759 146.54C106.016 154.933 116.39 160.233 127.56 161.503C138.729 162.772 149.975 159.929 159.305 153.476L193.709 190.344C194.135 190.8 194.72 191.063 195.334 191.076C195.949 191.088 196.543 190.849 196.985 190.41L205.561 181.917C206.004 181.478 206.259 180.876 206.271 180.243C206.283 179.61 206.051 178.998 205.625 178.542L171.229 141.68C177.824 132.368 181.024 120.96 180.267 109.459C179.51 97.958 174.845 87.0995 167.09 78.7899ZM156.376 138.066C151.523 142.873 145.395 146.09 138.767 147.309C132.139 148.528 125.309 147.695 119.141 144.915C112.973 142.135 107.743 137.533 104.114 131.691C100.484 125.849 98.6172 119.029 98.7495 112.094C98.8818 105.158 101.007 98.4195 104.857 92.7288C108.707 87.0382 114.108 82.6515 120.377 80.1233C126.647 77.5952 133.503 77.0393 140.079 78.5258C146.655 80.0123 152.656 83.4745 157.322 88.4746C160.421 91.7947 162.854 95.7112 164.484 100C166.113 104.289 166.907 108.867 166.819 113.472C166.731 118.077 165.763 122.619 163.972 126.839C162.18 131.059 159.599 134.874 156.376 138.066Z" fill="url(#paint7_linear_86_876)"/>
<path d="M107.568 103.026C103.74 103.026 103.734 109.156 107.568 109.156C111.403 109.156 111.406 103.026 107.568 103.026Z" fill="url(#paint8_linear_86_876)"/>
<path d="M134.256 83.3888C123.953 83.1498 114.577 88.4752 109.591 96.5147C107.966 99.1381 112.583 101.456 114.201 98.8453C118.329 92.1894 126.172 87.9624 134.656 88.1824C138.945 88.3383 143.13 89.583 146.84 91.8059C150.549 94.0288 153.668 97.1612 155.92 100.925C157.546 103.683 161.806 101.177 160.195 98.4336C154.986 89.6261 144.899 83.6499 134.256 83.3888Z" fill="url(#paint9_linear_86_876)"/>
<path d="M170.824 76.9281C166.425 72.2142 161.155 68.4545 155.325 65.8702C149.495 63.286 143.221 61.9293 136.874 61.8801C130.528 61.8308 124.235 63.09 118.368 65.5836C112.5 68.0771 107.176 71.7546 102.709 76.3997C84.696 95.1096 84.3906 125.572 102.01 144.678C109.75 153.071 120.124 158.372 131.294 159.641C142.464 160.91 153.709 158.067 163.039 151.614L197.44 188.484C197.866 188.941 198.451 189.204 199.065 189.216C199.68 189.229 200.274 188.989 200.717 188.55L209.292 180.057C209.735 179.618 209.991 179.016 210.003 178.383C210.015 177.75 209.782 177.138 209.356 176.682L174.947 139.815C181.543 130.505 184.745 119.099 183.991 107.599C183.237 96.0986 178.575 85.2396 170.824 76.9281ZM160.108 136.176C155.255 140.983 149.126 144.2 142.499 145.419C135.871 146.638 129.041 145.805 122.873 143.025C116.704 140.245 111.475 135.643 107.845 129.8C104.216 123.958 102.349 117.138 102.481 110.203C102.614 103.268 104.739 96.5293 108.589 90.8387C112.439 85.1481 117.84 80.7614 124.109 78.2333C130.379 75.7053 137.235 75.1494 143.812 76.636C150.388 78.1226 156.388 81.5849 161.055 86.5851C164.153 89.9052 166.587 93.8217 168.216 98.1108C169.845 102.4 170.639 106.978 170.551 111.583C170.463 116.188 169.495 120.73 167.704 124.95C165.912 129.169 163.331 132.984 160.108 136.176Z" fill="#3F51B5"/>
<path d="M111.303 101.16C107.474 101.16 107.469 107.291 111.303 107.291C115.137 107.291 115.138 101.16 111.303 101.16Z" fill="#039BE5"/>
<path d="M137.99 81.5265C127.686 81.2875 118.311 86.6129 113.325 94.6524C111.699 97.2758 116.317 99.5938 117.935 96.983C122.062 90.3271 129.906 86.1001 138.39 86.3201C142.679 86.476 146.864 87.7207 150.574 89.9436C154.283 92.1665 157.402 95.2989 159.654 99.0625C161.28 101.821 165.54 99.3143 163.929 96.5713C158.708 87.7406 148.636 81.7621 137.99 81.5265Z" fill="#039BE5"/>
</g>
<defs>
<linearGradient id="paint0_linear_86_876" x1="68.4545" y1="199.198" x2="68.4545" y2="9.65308" gradientUnits="userSpaceOnUse">
<stop stop-color="#808080" stop-opacity="0.251"/>
<stop offset="0.54" stop-color="#808080" stop-opacity="0.122"/>
<stop offset="1" stop-color="#808080" stop-opacity="0.102"/>
</linearGradient>
<linearGradient id="paint1_linear_86_876" x1="36.724" y1="97.4455" x2="36.724" y2="46.7537" gradientUnits="userSpaceOnUse">
<stop stop-color="#808080" stop-opacity="0.251"/>
<stop offset="0.54" stop-color="#808080" stop-opacity="0.122"/>
<stop offset="1" stop-color="#808080" stop-opacity="0.102"/>
</linearGradient>
<linearGradient id="paint2_linear_86_876" x1="36.7242" y1="82.3852" x2="36.7242" y2="50.7954" gradientUnits="userSpaceOnUse">
<stop stop-color="#808080" stop-opacity="0.251"/>
<stop offset="0.54" stop-color="#808080" stop-opacity="0.122"/>
<stop offset="1" stop-color="#808080" stop-opacity="0.102"/>
</linearGradient>
<linearGradient id="paint3_linear_86_876" x1="36.724" y1="162.465" x2="36.724" y2="111.773" gradientUnits="userSpaceOnUse">
<stop stop-color="#808080" stop-opacity="0.251"/>
<stop offset="0.54" stop-color="#808080" stop-opacity="0.122"/>
<stop offset="1" stop-color="#808080" stop-opacity="0.102"/>
</linearGradient>
<linearGradient id="paint4_linear_86_876" x1="36.7242" y1="147.404" x2="36.7242" y2="115.815" gradientUnits="userSpaceOnUse">
<stop stop-color="#808080" stop-opacity="0.251"/>
<stop offset="0.54" stop-color="#808080" stop-opacity="0.122"/>
<stop offset="1" stop-color="#808080" stop-opacity="0.102"/>
</linearGradient>
<linearGradient id="paint5_linear_86_876" x1="185.313" y1="119.919" x2="4.57285" y2="85.0562" gradientUnits="userSpaceOnUse">
<stop stop-color="#808080" stop-opacity="0.251"/>
<stop offset="0.54" stop-color="#808080" stop-opacity="0.122"/>
<stop offset="1" stop-color="#808080" stop-opacity="0.102"/>
</linearGradient>
<linearGradient id="paint6_linear_86_876" x1="117.741" y1="112.336" x2="70.0644" y2="103.139" gradientUnits="userSpaceOnUse">
<stop stop-color="#808080" stop-opacity="0.251"/>
<stop offset="0.54" stop-color="#808080" stop-opacity="0.122"/>
<stop offset="1" stop-color="#808080" stop-opacity="0.102"/>
</linearGradient>
<linearGradient id="paint7_linear_86_876" x1="145.766" y1="191.076" x2="145.766" y2="63.7405" gradientUnits="userSpaceOnUse">
<stop stop-color="#B3B3B3" stop-opacity="0.251"/>
<stop offset="0.54" stop-color="#B3B3B3" stop-opacity="0.102"/>
<stop offset="1" stop-color="#B3B3B3" stop-opacity="0.051"/>
</linearGradient>
<linearGradient id="paint8_linear_86_876" x1="107.57" y1="109.15" x2="107.57" y2="103.026" gradientUnits="userSpaceOnUse">
<stop stop-opacity="0.122"/>
<stop offset="0.55" stop-opacity="0.09"/>
<stop offset="1" stop-opacity="0.02"/>
</linearGradient>
<linearGradient id="paint9_linear_86_876" x1="134.901" y1="102.122" x2="134.901" y2="83.3811" gradientUnits="userSpaceOnUse">
<stop stop-opacity="0.122"/>
<stop offset="0.55" stop-opacity="0.09"/>
<stop offset="1" stop-opacity="0.02"/>
</linearGradient>
<clipPath id="clip0_86_876">
<rect width="210" height="213.403" fill="white" transform="translate(0 0.287842)"/>
</clipPath>
</defs>
</svg>
