<svg version="1.1" xmlns="http://www.w3.org/2000/svg" viewBox="0 0 1198.4974076487124 475.41595458984375" width="800.4974076487124" height="325.41595458984375">
  <!-- svg-source:excalidraw -->
  
  <defs>
    <style>
      @font-face {
        font-family: "Virgil";
        src: url("https://excalidraw.com/Virgil.woff2");
      }
      @font-face {
        font-family: "Cascadia";
        src: url("https://excalidraw.com/Cascadia.woff2");
      }
    </style>
  </defs>
  <rect x="0" y="0" width="1198.4974076487124" height="475.41595458984375" fill="#ffffff"></rect><g stroke-linecap="round" transform="translate(478 14.5) rotate(0 135.06076049804688 74.70797729492188)"><path d="M-0.52 0.73 C102.19 2.92, 204.67 0.51, 270.73 -0.88 M0.61 0.19 C76.69 -1.02, 152.59 -0.47, 270.58 -0.28 M268.54 -1.46 C272.35 52.66, 270.69 102.08, 269.85 150.25 M270.05 0.51 C269.87 42.18, 268.35 83.8, 269.13 149.77 M271.42 149.92 C164.54 146.43, 59.52 146.55, -0.83 148.34 M270.6 148.99 C189.28 148.28, 108.63 149.41, 0.7 150.18 M-1.86 150.78 C-2.25 115.83, -0.36 84.67, -0.35 0.16 M-0.89 149.88 C1.13 114.54, -0.63 79.44, 0.62 0.35" stroke="#000000" stroke-width="1" fill="none"></path></g><g stroke-linecap="round"><g transform="translate(480.42535400390625 53.056610107421875) rotate(0 134.70044449344283 -0.7861058076238265)"><path d="M-0.4 0.56 C44.66 0.6, 224.66 -0.1, 269.8 -0.6 M1.59 -0.19 C46.58 -0.39, 224.3 -1.91, 269.07 -2.13" stroke="#000000" stroke-width="1" fill="none"></path></g></g><g stroke-linecap="round" transform="translate(912 313) rotate(0 135.06076049804688 74.70797729492188)"><path d="M-1.51 0.99 C90.16 -1.23, 181.21 -3.48, 270.18 1.55 M0.2 0.77 C88.96 -0.51, 176.93 -0.78, 269.92 0.52 M271.2 0.97 C271.49 47.53, 268.54 98.98, 268.41 151.03 M270.42 0.89 C269.23 44.13, 268.63 89.04, 270.33 149.97 M269.15 148.3 C197.04 147.99, 124.66 147.75, -0.3 148.7 M269.45 150.01 C195.33 148.9, 120.81 149.6, -0.08 148.78 M1.95 151.32 C1.24 101.87, 1.12 51.11, -0.58 1.63 M0.61 148.64 C-1.02 109.88, -0.63 69.11, -0.49 0.83" stroke="#000000" stroke-width="1" fill="none"></path></g><g stroke-linecap="round"><g transform="translate(914.4253540039062 351.5566101074219) rotate(0 133.88991747871034 -1.0663498352980412)"><path d="M-1.16 0.76 C43.84 0.38, 223.88 -0.5, 268.94 -1.1 M0.44 0.11 C45.33 -0.11, 223.11 -2.53, 267.75 -2.89" stroke="#000000" stroke-width="1" fill="none"></path></g></g><g stroke-linecap="round" transform="translate(468 316) rotate(0 135.06076049804688 74.70797729492188)"><path d="M0.29 1.5 C79.24 -1.85, 155.95 -2.43, 269.09 -0.27 M-0.48 0.18 C64.75 0.05, 129.67 0.27, 270.37 0.68 M271.51 -0.68 C269.45 44.27, 268.69 89.82, 269.11 147.82 M269.76 0.31 C269.94 44.71, 269.65 88.24, 270.34 148.45 M270.12 150.4 C203.49 150.16, 137.72 149.71, -0.31 148.85 M270.15 149.29 C167.63 147.54, 66.51 147.28, -0.04 149.92 M0.63 150.03 C1.59 97.01, 1.03 47.42, 1.15 -1.94 M0.7 148.91 C-2.07 97.62, -0.44 47.43, 0.91 -0.91" stroke="#000000" stroke-width="1" fill="none"></path></g><g stroke-linecap="round"><g transform="translate(470.42535400390625 354.5566101074219) rotate(0 134.43432477633928 -0.3231260918080636)"><path d="M0.22 1.15 C45.32 0.68, 225.25 -1.23, 269.99 -1.79 M-1.12 0.7 C43.92 0.96, 223.98 0.02, 269.36 -0.29" stroke="#000000" stroke-width="1" fill="none"></path></g></g><g transform="translate(557.9046020507812 19.80797729492187) rotate(359.33068722839033 63.5 12.700000000000003)"><text x="0" y="18.39999999999999" font-family="Virgil, Segoe UI Emoji" font-size="19.538461538461547px" fill="#000000" text-anchor="start" style="white-space: pre;" direction="ltr">CSampleMovie</text></g><g transform="translate(981.9046020507812 319.2079772949219) rotate(0 71 13)"><text x="0" y="19" font-family="Virgil, Segoe UI Emoji" font-size="20px" fill="#000000" text-anchor="start" style="white-space: pre;" direction="ltr">CSamplePerson</text></g><g transform="translate(530.9046020507812 321.2079772949219) rotate(0 75 13)"><text x="0" y="19" font-family="Virgil, Segoe UI Emoji" font-size="20px" fill="#000000" text-anchor="start" style="white-space: pre;" direction="ltr">CSampleCasting</text></g><g stroke-linecap="round" transform="translate(10 11) rotate(0 135.06076049804688 74.70797729492188)"><path d="M-0.87 -0.88 C99.67 -1.49, 201.05 -1.44, 271.62 -1.12 M0.09 -0.26 C91.97 1.81, 183.92 1.7, 270.11 0.49 M272.07 -1.55 C269.76 38.27, 269.29 73.09, 272.12 149.56 M270.53 -0.69 C270.81 43.28, 269.65 86.2, 270.85 148.67 M270.92 150.67 C175.89 149.91, 84.13 148.07, -0.08 148.16 M269.93 150.02 C181.87 148.59, 94.96 148.01, 0.67 150.04 M-1.87 150.39 C2.72 91.84, 3.29 33.34, 0.83 0.8 M-0.78 150.34 C0.2 118.94, 0.47 88.01, -0.01 -0.93" stroke="#000000" stroke-width="1" fill="none"></path></g><g stroke-linecap="round"><g transform="translate(12.42535400390625 49.556610107421875) rotate(0 135.11672616464554 -0.664270021966658)"><path d="M-0.67 -0.68 C44.26 -1.16, 223.63 -2.55, 268.6 -2.91 M1.18 1.58 C46.58 1.21, 226.39 -1.37, 270.9 -2" stroke="#000000" stroke-width="1" fill="none"></path></g></g><g transform="translate(67.90460205078125 15.207977294921875) rotate(0 83 13)"><text x="0" y="19" font-family="Virgil, Segoe UI Emoji" font-size="20px" fill="#000000" text-anchor="start" style="white-space: pre;" direction="ltr">CSampleCategory</text></g><g stroke-linecap="round" transform="translate(916 10) rotate(0 135.06076049804688 74.70797729492188)"><path d="M-1.38 1.15 C100.93 -0.22, 200.15 -0.77, 271.55 0.88 M0.77 0.31 C62.66 -0.64, 125.34 -0.38, 270.76 0.71 M268.45 1.54 C271.13 36.93, 268.22 75.47, 268.45 147.44 M269.69 0.37 C270.81 49.14, 272.1 99.77, 270.45 149.32 M271.42 148.47 C173.32 146.33, 77.07 147.57, -0.79 149.13 M269.49 149.71 C164.18 148.34, 58.32 148.55, -0.09 149.87 M1.64 149.45 C-0.35 89.28, 0.8 31.12, -0.63 0.55 M-0.53 149.38 C0.59 100.82, 0.16 52.21, 0.22 0.93" stroke="#000000" stroke-width="1" fill="none"></path></g><g stroke-linecap="round"><g transform="translate(918.4253540039062 48.556610107421875) rotate(0 134.50903633609414 -0.6829603411257352)"><path d="M-1.05 0.88 C44.12 0.55, 224.99 -1.66, 270.07 -2.25 M0.59 0.3 C45.76 0.15, 224.8 -0.63, 269.49 -0.99" stroke="#000000" stroke-width="1" fill="none"></path></g></g><g transform="translate(966.9046020507812 17.207977294921875) rotate(0 92 13)"><text x="0" y="19" font-family="Virgil, Segoe UI Emoji" font-size="20px" fill="#000000" text-anchor="start" style="white-space: pre;" direction="ltr">CSampleNationality</text></g><g stroke-linecap="round"><g transform="translate(613.9046020507812 314.7079772949219) rotate(359.1687897151134 -0.49760207617282504 -77.44615484867245)"><path d="M-1.96 1.08 C-0.46 -54.5, 2.03 -105.9, 0.49 -155.46 M0.17 -0.45 C1.63 -53.14, 0.07 -103.97, -0.42 -155.97" stroke="#000000" stroke-width="1" fill="none"></path></g><g transform="translate(613.9046020507812 314.7079772949219) rotate(359.1687897151134 -0.49760207617282504 -77.44615484867245)"><path d="M8.25 -126.84 C5.8 -138.56, 4.65 -146.17, 0.07 -155.44 M10.39 -128.37 C7.52 -138.11, 2.38 -145.96, -0.84 -155.95" stroke="#000000" stroke-width="1" fill="none"></path></g><g transform="translate(613.9046020507812 314.7079772949219) rotate(359.1687897151134 -0.49760207617282504 -77.44615484867245)"><path d="M-12.27 -126.57 C-7.7 -138.52, -1.82 -146.22, 0.07 -155.44 M-10.13 -128.1 C-6.1 -137.86, -4.35 -145.8, -0.84 -155.95" stroke="#000000" stroke-width="1" fill="none"></path></g></g><g stroke-linecap="round"><g transform="translate(737.9046020507812 399.7079772949219) rotate(0 86.78130489215255 0.6419159666619976)"><path d="M-1.91 1.44 C53.83 0.05, 106.76 3.22, 175.47 -0.7 M0.45 0.9 C48.45 2.62, 96.93 2.25, 174.9 0.19" stroke="#000000" stroke-width="1" fill="none"></path></g><g transform="translate(737.9046020507812 399.7079772949219) rotate(0 86.78130489215255 0.6419159666619976)"><path d="M145.03 12.51 C155.68 6.04, 163.6 5.58, 175.37 -1.51 M147.39 11.97 C154.47 8.96, 162.02 5.29, 174.79 -0.63" stroke="#000000" stroke-width="1" fill="none"></path></g><g transform="translate(737.9046020507812 399.7079772949219) rotate(0 86.78130489215255 0.6419159666619976)"><path d="M144.57 -8.01 C155.48 -8.19, 163.53 -2.37, 175.37 -1.51 M146.94 -8.55 C154.1 -5.84, 161.77 -3.8, 174.79 -0.63" stroke="#000000" stroke-width="1" fill="none"></path></g></g><g stroke-linecap="round"><g transform="translate(1045.9046020507812 311.7079772949219) rotate(0 -0.24933725541461627 -78.08364479336888)"><path d="M-0.54 -0.69 C-0.97 -46.79, 1.53 -96.95, -1.5 -156.61 M0.45 0.45 C0.39 -50.06, 2.04 -101.27, -0.12 -154.02" stroke="#000000" stroke-width="1" fill="none"></path></g><g transform="translate(1045.9046020507812 311.7079772949219) rotate(0 -0.24933725541461627 -78.08364479336888)"><path d="M10.23 -126.76 C6.77 -133.89, 5.93 -145.11, -1.61 -155.63 M11.22 -125.62 C6.6 -134.28, 4.66 -143.72, -0.24 -153.03" stroke="#000000" stroke-width="1" fill="none"></path></g><g transform="translate(1045.9046020507812 311.7079772949219) rotate(0 -0.24933725541461627 -78.08364479336888)"><path d="M-10.28 -126.3 C-7.46 -133.61, -2.01 -144.97, -1.61 -155.63 M-9.29 -125.15 C-7.17 -134.09, -2.36 -143.68, -0.24 -153.03" stroke="#000000" stroke-width="1" fill="none"></path></g></g><g stroke-linecap="round"><g transform="translate(477.90460205078125 100.70797729492188) rotate(0 -98.73712819628417 0.1023550568203433)"><path d="M-1.02 -0.69 C-63.25 0.38, -129.75 2.88, -197.19 0.97 M0.11 0.62 C-68.08 0.34, -137.07 -1.48, -197.59 -1.45" stroke="#000000" stroke-width="1" fill="none"></path></g><g transform="translate(477.90460205078125 100.70797729492188) rotate(0 -98.73712819628417 0.1023550568203433)"><path d="M-170.34 -12.21 C-176.79 -9.07, -187.43 -2.93, -196.77 0.52 M-169.21 -10.9 C-178.65 -7.21, -188.94 -5.2, -197.17 -1.9" stroke="#000000" stroke-width="1" fill="none"></path></g><g transform="translate(477.90460205078125 100.70797729492188) rotate(0 -98.73712819628417 0.1023550568203433)"><path d="M-170.48 8.31 C-176.72 4.7, -187.3 4.08, -196.77 0.52 M-169.35 9.62 C-178.83 6.21, -189.06 1.13, -197.17 -1.9" stroke="#000000" stroke-width="1" fill="none"></path></g></g><g stroke-linecap="round"><g transform="translate(746.9046020507812 99.70797729492188) rotate(0 98.28013961134604 108.03219473193074)"><path d="M-0.36 1.17 C39.18 43.71, 81.97 88.89, 197.24 215.41 M-0.68 0.65 C56.28 62.97, 112.99 123.71, 196.4 214.63" stroke="#000000" stroke-width="1" fill="none"></path></g><g transform="translate(746.9046020507812 99.70797729492188) rotate(0 98.28013961134604 108.03219473193074)"><path d="M169.28 202.39 C174.54 202.78, 182.36 206.39, 196.72 216.51 M168.86 201.71 C176.53 205.6, 184.41 208.65, 195.6 215.46" stroke="#000000" stroke-width="1" fill="none"></path></g><g transform="translate(746.9046020507812 99.70797729492188) rotate(0 98.28013961134604 108.03219473193074)"><path d="M184.38 188.5 C186.37 191.81, 191.04 198.32, 196.72 216.51 M183.96 187.81 C187.34 195.58, 190.88 202.62, 195.6 215.46" stroke="#000000" stroke-width="1" fill="none"></path></g></g><g transform="translate(296.90460205078125 60.207977294921875) rotate(0 3 13)"><text x="0" y="19" font-family="Virgil, Segoe UI Emoji" font-size="20px" fill="#000000" text-anchor="start" style="white-space: pre;" direction="ltr">1</text></g><g transform="translate(458.90460205078125 58.207977294921875) rotate(0 5.5 13)"><text x="0" y="19" font-family="Virgil, Segoe UI Emoji" font-size="20px" fill="#000000" text-anchor="start" style="white-space: pre;" direction="ltr">*</text></g><g transform="translate(637.9046020507812 166.20797729492188) rotate(0 3 13)"><text x="0" y="19" font-family="Virgil, Segoe UI Emoji" font-size="20px" fill="#000000" text-anchor="start" style="white-space: pre;" direction="ltr">1</text></g><g transform="translate(633.9046020507812 284.2079772949219) rotate(0 5.5 13)"><text x="0" y="19" font-family="Virgil, Segoe UI Emoji" font-size="20px" fill="#000000" text-anchor="start" style="white-space: pre;" direction="ltr">*</text></g><g transform="translate(750.9046020507812 367.2079772949219) rotate(0 5.5 13)"><text x="0" y="19" font-family="Virgil, Segoe UI Emoji" font-size="20px" fill="#000000" text-anchor="start" style="white-space: pre;" direction="ltr">*</text></g><g transform="translate(893.9046020507812 370.2079772949219) rotate(0 3 13)"><text x="0" y="19" font-family="Virgil, Segoe UI Emoji" font-size="20px" fill="#000000" text-anchor="start" style="white-space: pre;" direction="ltr">1</text></g><g transform="translate(936.9046020507812 269.2079772949219) rotate(0 3 13)"><text x="0" y="19" font-family="Virgil, Segoe UI Emoji" font-size="20px" fill="#000000" text-anchor="start" style="white-space: pre;" direction="ltr">1</text></g><g transform="translate(762.9046020507812 87.20797729492188) rotate(0 5.5 13)"><text x="0" y="19" font-family="Virgil, Segoe UI Emoji" font-size="20px" fill="#000000" text-anchor="start" style="white-space: pre;" direction="ltr">*</text></g><g transform="translate(1065.9046020507812 165.20797729492188) rotate(0 3 13)"><text x="0" y="19" font-family="Virgil, Segoe UI Emoji" font-size="20px" fill="#000000" text-anchor="start" style="white-space: pre;" direction="ltr">1</text></g><g transform="translate(1063.9046020507812 287.2079772949219) rotate(0 5.5 13)"><text x="0" y="19" font-family="Virgil, Segoe UI Emoji" font-size="20px" fill="#000000" text-anchor="start" style="white-space: pre;" direction="ltr">*</text></g></svg>
