<svg xmlns="http://www.w3.org/2000/svg" width="64" height="64" viewBox="1 1 14.933 14.933"><path d="M1.679 2.473a.57.57 0 0 0-.571.571v10.846a.57.57 0 0 0 .571.571l6.57-.889V3.064l-6.57-.592zm7.005 0v.571 10.846.571h.57 4.367 1.633a.57.57 0 0 0 .571-.571V3.044a.57.57 0 0 0-.571-.571h-1.633-4.367-.57z" class="OxModuleIcon-primary"/><path d="M9.985 8.56a.27.27 0 0 0-.272.272v1.767a.27.27 0 1 0 .543 0V8.831a.27.27 0 0 0-.271-.272zm-3.05.308c-.144.005-.257.092-.257.199v1.297c0 .11.121.199.271.199s.272-.089.272-.199V9.067c0-.11-.121-.199-.272-.199z" fill="#fff"/><path d="M3.342 4.393c-.094 0-.168.13-.168.28v2.45c0 .155.079.286.177.28l2.656-.175c.098-.006.177-.125.177-.28V4.906c0-.155-.08-.272-.177-.28l-2.656-.233zm7.576.001c-.094.007-.168.129-.168.28v2.45c0 .155.079.28.177.28h2.656c.098 0 .177-.125.177-.28v-2.45c0-.155-.079-.28-.177-.28h-2.656z" class="OxModuleIcon-secondary"/></svg>
