<svg xmlns="http://www.w3.org/2000/svg" width="63.999" height="53.197" viewBox="0 0 16.933 14.075"><g transform="matrix(.26265 0 0 .26265 -2.067 -4.95)"><g class="OxModuleIcon-secondary"><circle cx="63.062" cy="53.527" r="9.281" paint-order="normal"/><path d="M23.353 18.87c-8.493 0-15.481 6.988-15.481 15.481v.246c0 8.493 6.988 15.48 15.481 15.48h21.625c8.493 0 15.48-6.987 15.48-15.48v-.246c0-8.493-6.987-15.481-15.48-15.481h-1.983s-4.514-.048-4.514 4.595 4.514 5.036 4.514 5.036h1.983c3.324 0 5.849 2.526 5.849 5.85v.246c0 3.324-2.525 5.85-5.849 5.85H23.353c-3.324 0-5.85-2.526-5.85-5.85v-.246c0-3.324 2.526-5.85 5.85-5.85h1.983s5.864-.225 5.864-4.91-5.864-4.721-5.864-4.721z" dominant-baseline="auto" paint-order="normal"/></g><path d="M29.697 47.974l.042 9.005c.04 8.493 9.688 15.479 18.18 15.479h.246c8.485 0 19.51-7.31 19.53-15.793 0 0 .37-6.324-4.755-6.324s-4.877 6.324-4.877 6.324c-.03 3.314-6.582 6.162-9.898 6.162h-.246c-3.324 0-8.532-2.524-8.547-5.848l-.042-9.005s.481-5.822-4.836-5.822-4.797 5.822-4.797 5.822z" dominant-baseline="auto" class="OxModuleIcon-primary" paint-order="normal"/><g class="OxModuleIcon-secondary"><path d="M34.488 42.154c-5.315 0-4.797 5.815-4.797 5.822l.009 2.102h9.633l-.009-2.102s.481-5.822-4.837-5.822z" dominant-baseline="auto" opacity=".5" paint-order="normal"/><path d="M62.942 50.34c-5.125 0-4.878 6.325-4.878 6.325-.01 1.115-.76 2.176-1.875 3.095a9.28 9.28 0 0 0 9.881 2.54c1.02-1.765 1.622-3.668 1.627-5.635 0 0 .371-6.325-4.755-6.325z" opacity=".5" paint-order="normal"/></g></g></svg>
