<svg xmlns="http://www.w3.org/2000/svg" width="63.999" height="50.321" viewBox="0 0 16.933 13.314"><path d="M7.467.004a.96.96 0 0 0-.964.964v11.387a.96.96 0 0 0 .964.964h8.504a.96.96 0 0 0 .964-.964V3.464l-1.611-1.676L13.61.004z" paint-order="stroke fill markers" class="OxModuleIcon-primary"/><g class="OxModuleIcon-secondary"><path d="M13.61.004v3.46h3.325l-1.611-1.676z" opacity=".5" paint-order="stroke fill markers"/><path d="M.65 4.628c-.359 0-.648.289-.648.649v6.193c0 .359.289.648.648.648h5.853v-7.49zm2.047 1.004a.86.86 0 1 1 0 1.722.86.86 0 1 1 0-1.722zm-.603 1.937h.112c.15.069.316.108.49.108a1.17 1.17 0 0 0 .49-.108H3.3c.499 0 .904.405.904.904v.28c0 .178-.145.323-.323.323H1.514c-.178 0-.323-.144-.323-.323v-.28c0-.499.405-.904.904-.904z" paint-order="stroke fill markers"/><path d="M6.502 4.628v7.49h2.856c.359 0 .648-.289.648-.648V5.276c0-.359-.289-.649-.648-.649z" opacity=".5" paint-order="stroke fill markers"/></g></svg>
