<svg width="20" height="24" viewBox="0 0 20 24" fill="none" xmlns="http://www.w3.org/2000/svg">
<path d="M18.9482 11.2958H1.05182C0.667706 11.2958 0.357147 11.6059 0.357147 11.9894V23.3065C0.357147 23.6899 0.667706 24 1.05182 24H5.56637L6.61736 19.9774H13.5396L14.5906 24H18.9482C19.3323 24 19.6429 23.6899 19.6429 23.3065V11.9894C19.6429 11.6059 19.3323 11.2958 18.9482 11.2958Z" fill="#03A9F4"/>
<path d="M10.0008 0C5.12668 0 1.17604 3.94424 1.17604 8.80887V10.8993H6.19566V8.15285C6.19566 6.07058 7.88739 4.38159 9.97303 4.38159C12.0587 4.38159 13.7504 6.06895 13.7504 8.15285V10.8993H18.824V8.80887C18.824 3.94424 14.8733 0 10.0008 0Z" fill="#03A9F4"/>
</svg>
