<svg xmlns="http://www.w3.org/2000/svg" width="63.999" height="63.024" viewBox="1.65 1.1 14.333 14.175"><path d="M11.94 1.14h0c-.072.002-.144.021-.211.06L7.36 3.723c.161.011.287.143.287.306v1.27a1.27 1.27 0 0 1 1.439.251 1.27 1.27 0 0 1 .372.898 1.27 1.27 0 0 1-.119.53c.041.054.078.111.113.169.381.66.316 1.487-.162 2.08a1.27 1.27 0 0 0 .257 1.422 1.27 1.27 0 0 0 1.389.273l.278-.16a1.27 1.27 0 0 0 .38-1.552h1.306c.17 0 .307.137.307.307v2.904c.284-.017.56-.099.806-.239.882-.509 1.184-1.637.675-2.519-.136-.235-.322-.437-.546-.592l1.598-.923c.214-.124.287-.395.163-.609l-3.565-6.175c-.085-.147-.24-.228-.398-.223zm-.164 2.683l.482.718c-.104.097-.177.178-.314.361l-.898 1.194 1.444-.381c.224-.06.326-.096.451-.157l.483.721a3.81 3.81 0 0 0-.439.263l-1.417.95a3.26 3.26 0 0 0-.407.304l-.359-.536c.136-.067.243-.131.436-.261l.593-.397.363-.223.192-.113-.49.151-.922.236a2.97 2.97 0 0 0-.478.151l-.318-.473c.086-.077.167-.175.324-.387l.555-.735c.012-.012.21-.263.226-.286l.107-.135-.52.388-.59.396c-.188.126-.303.212-.407.305l-.359-.536c.133-.066.251-.137.436-.261l1.417-.95c.163-.109.302-.214.41-.306zM8.02 6.236l.032.002-.032-.002zm-.362 0c.001.003.013.001.025 0-.008 0-.017 0-.025 0zm-.347.073l-.063.022.063-.022zm1.753.373l.027.024-.027-.024zm-5.33 2.558l-1.269.005c-.17 0-.307.137-.307.307v4.909c0 .17.137.307.307.307h4.91c.17 0 .307-.137.307-.307v-1.306a1.27 1.27 0 0 1-1.439-.251 1.27 1.27 0 0 1 .898-2.168 1.27 1.27 0 0 1 .541.122V9.553c0-.17-.137-.307-.307-.307H6.033zm1.127 1.586c.36 0 .636.111.789.324.071.094.105.179.141.34l-.601.065c-.034-.184-.136-.261-.352-.261-.173 0-.301.094-.301.224 0 .079.043.139.133.182.057.025.057.025.392.094.216.045.352.094.46.162.204.128.306.318.306.579a.71.71 0 0 1-.199.522c-.165.159-.414.241-.746.241-.241 0-.48-.051-.633-.139a.67.67 0 0 1-.307-.363c-.028-.068-.043-.133-.063-.264l.59-.057c.011.102.031.154.073.21.068.085.187.133.332.133.218 0 .349-.096.349-.255 0-.088-.046-.165-.12-.199-.06-.028-.13-.048-.425-.116-.261-.057-.352-.091-.457-.164-.179-.125-.275-.315-.275-.545 0-.437.352-.712.911-.712z" class="OxModuleIcon-secondary"/><path d="M2.43 3.72c-.17 0-.307.137-.307.307v4.91c0 .17.137.307.307.307h.799c.019.003.039.005.058.005h3.151a.38.38 0 0 0 .059-.005h.842c.17 0 .307-.137.307-.307V7.595a1.27 1.27 0 0 0 1.439-.25 1.27 1.27 0 0 0 0-1.796 1.27 1.27 0 0 0-1.439-.251V4.027c0-.17-.137-.307-.307-.307zm1.568 1.629l.417.01h.621c.562 0 .871.269.871.763 0 .505-.323.806-.874.806h-.448v.363l.003.179a1.27 1.27 0 0 0-.505.25h-.086a3.03 3.03 0 0 0 .023-.42V5.764a3.4 3.4 0 0 0-.023-.414zm.587.491v.604h.423a.28.28 0 0 0 .315-.306c0-.196-.111-.298-.315-.298zm3.404 3.368c-.17 0-.307.137-.307.307v1.342a1.27 1.27 0 0 0-1.439.251 1.27 1.27 0 0 0 0 1.796 1.27 1.27 0 0 0 1.439.251v1.271c0 .17.137.307.307.307h4.91c.17 0 .307-.137.307-.307v-4.91c0-.17-.137-.307-.307-.307h-1.306a1.27 1.27 0 0 1-.91 1.788c-.014.102-.018.199-.018.385v1.521c0 .196.007.301.023.42h-.624c.017-.111.023-.23.023-.42v-1.521a2.8 2.8 0 0 0-.023-.42h.018a1.27 1.27 0 0 1-.785-1.754z" class="OxModuleIcon-primary"/><path d="M7.36 3.72L5.555 4.762c-.214.124-.287.395-.163.609l.949 1.643c.155-.223.357-.41.593-.546.814-.469 1.85-.251 2.406.506a1.27 1.27 0 0 0 .119-.53 1.27 1.27 0 0 0-1.27-1.27 1.27 1.27 0 0 0-.541.121v-1.27c0-.163-.126-.295-.287-.306zM4.885 7.431a1.27 1.27 0 0 0-1.27 1.27 1.27 1.27 0 0 0 .12.536h2.3a1.27 1.27 0 0 0-.252-1.435 1.27 1.27 0 0 0-.898-.372zm6.707 1.775a1.27 1.27 0 0 1-.38 1.552l.041-.023c.022.271.104.533.24.769.351.605 1.015.959 1.713.914V9.514c0-.17-.137-.307-.307-.307zm-2.303.017c-.142.177-.316.326-.513.439-.236.136-.498.218-.769.24l.949 1.643c.124.214.395.287.609.163l1.37-.791a1.27 1.27 0 0 1-1.389-.273 1.27 1.27 0 0 1-.257-1.422z" class="OxModuleIcon-secondary" opacity=".5"/></svg>
