<svg xmlns="http://www.w3.org/2000/svg" width="64" height="64" viewBox="0 0 16.933 16.933"><path d="M13.364.361c-.127 0-.301.012-.489.061-.376.096-.836.36-1.066.931-.1.248-.072.506 0 .742s.187.463.299.686c.218.432.389.836.345 1.143l-.804.975-1.054-.883c-.383-.307-.936-.295-1.235.071s-.231.928.15 1.249l1.004.844-.443.483c-.28.306-.287.738-.093 1.088l-3.994 5.748a.57.57 0 0 0-.173-.024c-.115.002-.23.039-.328.111l-1.291.948c-.308.228-.301.703.014.922l1.467 1.02c.315.218.763.06.869-.308l.44-1.542a.57.57 0 0 0-.095-.498l4.012-5.773c.373.053.756-.055 1.007-.341l4.021-4.568c.366-.416.257-1.057-.188-1.411h-.001c-.005-.008-.077-.075-.175-.169l-.396-.372c-.308-.281-.684-.606-1.021-.837h-.002c-.204-.141-.375-.241-.558-.281l-.017-.003s-.08-.012-.207-.012z" class="OxModuleIcon-primary"/><path d="M3.568.357c-.127 0-.208.012-.208.012v.005c-.197.04-.37.14-.559.271h-.006l-.01.008c-.337.231-.713.555-1.021.836l-.397.372-.175.169c-.446.364-.553.998-.189 1.411l4.021 4.568c.251.285.632.393 1.004.341l4.015 5.777a.57.57 0 0 0-.095.5l.44 1.542a.57.57 0 0 0 .868.308l1.469-1.02c.315-.219.322-.694.014-.922l-1.292-.948c-.103-.076-.227-.113-.349-.11a.61.61 0 0 0-.15.024L6.952 7.75c.196-.35.189-.784-.091-1.09l-.443-.483 1.004-.845c.381-.32.45-.881.15-1.249s-.852-.378-1.23-.079l-1.06.891-.803-.975c-.044-.308.128-.711.346-1.143.112-.223.226-.45.298-.686s.102-.494.002-.742C4.894.776 4.433.513 4.058.417a2 2 0 0 0-.489-.06z" class="OxModuleIcon-secondary"/><path d="M8.467 9.93l-.67.964.67.964.67-.964z" class="OxModuleIcon-primary" opacity=".5"/></svg>
